<?xml version="1.0" encoding="UTF-8"?>
<svg width="40px" height="40px" viewBox="0 0 40 40" version="1.1" xmlns="http://www.w3.org/2000/svg" xmlns:xlink="http://www.w3.org/1999/xlink">
    <!-- Generator: Sketch 39.1 (31720) - http://www.bohemiancoding.com/sketch -->
    <title>icon_云管理</title>
    <desc>Created with Sketch.</desc>
    <defs></defs>
    <g id="Page-1" stroke="none" stroke-width="1" fill="none" fill-rule="evenodd">
        <g id="导航" transform="translate(-1167.000000, -332.000000)" fill="#ddd">
            <g id="Group-3" transform="translate(1030.000000, 316.000000)">
                <g id="icon_云管理" transform="translate(136.000000, 15.000000)">
                    <path d="M22.9207197,40.0702893 L21.9069124,40.5638824 C21.4121998,40.8047435 20.6008749,40.8002462 20.1153993,40.5638824 L1.36757876,31.4361176 C0.872866074,31.1952565 0.882103182,30.8002462 1.36757876,30.5638824 L8.68755568,27 L19.0183193,32.0297462 C19.0556293,32.6444169 19.1452829,33.2578992 19.2438545,33.7812293 C19.5128413,35.2021657 20.5563282,36.3405443 22.061364,36.3405443 C22.1054894,36.3402094 22.1054894,36.3402094 22.1640892,36.3403155 C22.4932903,36.3403155 22.7644322,36.6114557 22.7644322,36.9406585 C22.7644322,36.945675 22.713846,37.1154054 22.7096388,37.1249 C22.279251,38.0936044 22.3803449,39.1960253 22.9207197,40.0702893 Z" id="Combined-Shape"></path>
                    <path d="M38.7141033,22.3707113 L40.6326262,21.4361176 C41.1178311,21.1997538 41.1270631,20.8047435 40.6326262,20.5638824 L33.31673,17 L21.8952572,22.5638824 C21.4008203,22.8047435 20.5899477,22.8002462 20.1047428,22.5638824 L8.68326999,17 L1.36737384,20.5638824 C0.882168907,20.8002462 0.872936949,21.1952565 1.36737384,21.4361176 L19.0844789,30.0668687 C19.1264594,29.7330381 19.1788242,29.4118685 19.2339598,29.1191319 C19.5065168,27.6771835 20.5799743,26.5258053 22.0653773,26.5615087 L22.1523134,26.5615087 C22.4813212,26.5615087 22.7523217,26.2903554 22.7523217,25.9611429 C22.7523217,25.9579674 22.700277,25.7833007 22.6976053,25.7771459 C22.0873655,24.4019499 22.5471348,22.7609881 23.7825622,21.9021885 L23.985903,21.7742259 L26.5733633,20.352134 L26.7547406,20.2640542 C27.1765544,20.0841343 27.6028504,20 28.0369919,20 C28.9336829,20 29.812359,20.3614817 30.4231348,21.0055048 C30.5232087,21.1103213 30.7303101,21.2852031 30.9254999,21.4135524 C31.0267194,21.4801105 31.114847,21.527995 31.1759417,21.5527158 C31.1731312,21.5515786 31.1324247,21.5422277 31.0355355,21.5422277 C30.9399989,21.5422277 30.9001244,21.5512839 30.8976272,21.5522823 C30.9582408,21.5280494 31.0456014,21.4811734 31.1459487,21.4160383 C31.3393207,21.2905211 31.5445533,21.1195551 31.6392483,21.0217826 C32.252914,20.3842439 33.1247153,20.0295593 34.0123566,20.0295593 C34.4543779,20.0295593 34.8881706,20.1166552 35.2980611,20.2948749 L35.492346,20.3897217 L37.9914982,21.7788683 L38.1709358,21.8914515 C38.3731249,22.0326226 38.5545641,22.1938324 38.7141033,22.3707113 Z" id="Combined-Shape"></path>
                    <path d="M20.1094,1.17353185 C20.6042518,0.932670738 21.4158048,0.937168015 21.9014169,1.17353185 L40.6545098,10.3012966 C41.1493616,10.5421577 41.1401219,10.937168 40.6545098,11.1735319 L21.9014169,20.3012966 C21.4065651,20.5421577 20.5950121,20.5376604 20.1094,20.3012966 L1.35630712,11.1735319 C0.861455315,10.9326707 0.87069502,10.5376604 1.35630712,10.3012966 L20.1094,1.17353185 Z" id="Polygon"></path>
                    <path d="M30,30.4003906 L27,30.4003906 L27,32.4003906 L30,32.4003906 L30,35.4003906 L32,35.4003906 L32,32.4003906 L35,32.4003906 L35,30.4003906 L32,30.4003906 L32,27.4003906 L30,27.4003906 L30,30.4003906 Z M33.9978254,40.8858549 L33.997711,40.8858549 C33.6339632,40.8857634 33.2803277,40.7353591 33.0518842,40.4833277 C32.7407115,40.1421611 31.7548243,39.2550181 30.9477337,39.2550181 C30.1462255,39.2550181 29.1450095,40.1473317 28.8574476,40.4598314 C28.6295991,40.7075615 28.2784573,40.8554949 27.9181642,40.8554949 C27.7465056,40.8554949 27.5846162,40.8225725 27.4367285,40.7575971 L27.4108527,40.7462493 L24.9577569,39.3744219 L24.9333911,39.3574459 C24.4867767,39.0448319 24.316834,38.4333081 24.5381622,37.9351482 C24.5398552,37.9313274 24.7644322,37.4131028 24.7644322,36.9406585 C24.7644322,35.5068756 23.5978492,34.3403155 22.1640892,34.3403155 L22.0771045,34.3403155 C22.0717967,34.3404299 22.0665117,34.3405443 22.061364,34.3405443 C21.6506005,34.3405443 21.3161831,33.9756754 21.209294,33.41103 C21.2007831,33.3658447 21,32.2948259 21,31.4509693 C21,30.6071127 21.2007831,29.5359567 21.209294,29.4907942 C21.3174414,28.9189649 21.6591571,28.5516251 22.0771274,28.5615087 L22.1641121,28.5615087 C23.5978721,28.5615087 24.764455,27.3949258 24.764455,25.9611429 C24.764455,25.4888129 24.5399925,24.9707027 24.537636,24.965555 C24.3166281,24.467784 24.4877147,23.8564204 24.936228,23.544813 L24.9616233,23.5271736 L27.550527,22.1050817 L27.577478,22.0936424 C27.7233066,22.0314582 27.882931,22 28.052073,22 C28.4115883,22 28.7633935,22.1446618 28.9933698,22.3870155 C29.2998295,22.7078201 30.2683519,23.5422277 31.0522892,23.5422277 C31.828791,23.5422277 32.7914793,22.7243613 33.0968866,22.409162 C33.3255359,22.1717501 33.674916,22.0295593 34.0307707,22.0295593 C34.2033215,22.0295593 34.365966,22.0621842 34.5141282,22.1265648 L34.5403243,22.1380499 L37.0408705,23.5271965 L37.0654879,23.5445156 C37.5128801,23.8566721 37.6832804,24.468173 37.4618379,24.966699 C37.4601448,24.9705197 37.235545,25.4887214 37.235545,25.9611658 C37.235545,27.3949487 38.402128,28.5615316 39.8358879,28.5615316 L39.9228955,28.5615316 C40.3402709,28.5521971 40.6824442,28.9188963 40.790706,29.4908171 C40.7992397,29.5360025 41,30.6070442 41,31.4508778 C41,32.2947115 40.7992397,33.3658905 40.7905916,33.411053 C40.6824442,33.9828594 40.3402709,34.3488722 39.9227811,34.3403384 L39.8358879,34.3403384 C38.4021279,34.3403384 37.235545,35.5068985 37.235545,36.9406814 C37.235545,37.4130114 37.4600304,37.9309843 37.4622725,37.9361548 C37.6831431,38.4335827 37.512514,39.0451065 37.0647786,39.3570113 L37.0397265,39.3745592 L34.4970378,40.7799039 L34.4704985,40.791389 C34.325036,40.8540536 34.1659836,40.8858549 33.9978254,40.8858549 Z" id="Combined-Shape"></path>
                </g>
            </g>
        </g>
    </g>
</svg>