<?xml version="1.0" encoding="UTF-8"?>
<svg width="36px" height="40px" viewBox="0 0 36 40" version="1.1" xmlns="http://www.w3.org/2000/svg" xmlns:xlink="http://www.w3.org/1999/xlink">
    <!-- Generator: Sketch 39.1 (31720) - http://www.bohemiancoding.com/sketch -->
    <title>icon_云影像</title>
    <desc>Created with Sketch.</desc>
    <defs></defs>
    <g id="Page-1" stroke="none" stroke-width="1" fill="none" fill-rule="evenodd">
        <g id="导航" transform="translate(-1274.000000, -332.000000)" fill="#ddd">
            <g id="Group-3" transform="translate(1030.000000, 316.000000)">
                <g id="icon_云影像" transform="translate(244.000000, 16.000000)">
                    <path d="M27,31 L24,31 L24,33 L27,33 L27,36 L29,36 L29,33 L32,33 L32,31 L29,31 L29,28 L27,28 L27,31 Z M2,16 L1.00041944,16 C0.455173016,16 0,16.4480262 0,17.0006946 L0,38.9993054 C0,39.5525308 0.447903039,40 1.00041944,40 L34.9995806,40 C35.544827,40 36,39.5519738 36,38.9993054 L36,17.0006946 C36,16.4474692 35.552097,16 34.9995806,16 L34,16 L18.871592,24.5097295 C18.390225,24.7804984 17.6044922,24.7775269 17.128408,24.5097295 L2,16 Z M14,36 L3,36 L3,35 L14,35 L14,36 Z M9,33 L3,33 L3,32 L9,32 L9,33 Z" id="Combined-Shape"></path>
                    <path d="M34,14 L34,1.00069463 C34,0.44746922 33.5555144,0 33.0072136,0 L2.99278641,0 C2.45236206,0 2,0.448026248 2,1.00069463 L2,14 L17.1273433,22.5091306 C17.6041059,22.7773096 18.3907017,22.7802303 18.8726567,22.5091306 L34,14 Z M22.3759106,5 L13.6240894,5 C13.2792618,5 13,5.28007793 13,5.6259133 L13,14.3740867 C13,14.7199221 13.2792618,15 13.6240894,15 L22.3759106,15 C22.7207382,15 23,14.7199221 23,14.3740867 L23,5.62347784 C23,5.28007793 22.7207382,5 22.3759106,5 L22.3759106,5 Z M22.1670714,9.16463712 L18,11.3857769 L16.7931034,10.1509985 L13.8329286,12.4963468 L13.8329286,5.83292742 L22.1670714,5.83292742 L22.1670714,9.16463712 Z M16.1932977,8.88455918 C16.729966,8.88455918 17.164643,8.45104725 17.164643,7.91524598 C17.164643,7.37944472 16.729966,6.94593278 16.1932977,6.94593278 C15.6566294,6.94593278 15.2219524,7.37944472 15.2219524,7.91524598 C15.2219524,8.45104725 15.6566294,8.88455918 16.1932977,8.88455918 Z" id="Combined-Shape"></path>
                </g>
            </g>
        </g>
    </g>
</svg>