<?xml version="1.0" encoding="UTF-8"?>
<svg width="16px" height="16px" viewBox="0 0 16 16" version="1.1" xmlns="http://www.w3.org/2000/svg" xmlns:xlink="http://www.w3.org/1999/xlink">
    <!-- Generator: Sketch 39.1 (31720) - http://www.bohemiancoding.com/sketch -->
    <title>icon_删除</title>
    <desc>Created with Sketch.</desc>
    <defs></defs>
    <g id="Page-1" stroke="none" stroke-width="1" fill="none" fill-rule="evenodd" fill-opacity="0.54">
        <g id="添加备注说明-保存后" transform="translate(-896.000000, -623.000000)" fill="#000000">
            <path d="M911.25,624.7695 L908.3125,624.7695 L908.3125,624 C908.3125,623.44775 907.86475,623 907.3125,623 L901.3125,623 C900.76025,623 900.3125,623.44775 900.3125,624 L900.3125,624.7695 L896.75,624.7695 C896.33575,624.7695 896,625.10525 896,625.5195 C896,625.93375 896.33575,626.2695 896.75,626.2695 L897.75,626.2695 L897.75,638 C897.75,638.55225 898.19775,639 898.75,639 L909.25,639 C909.80225,639 910.25,638.55225 910.25,638 L910.25,626.2695 L911.25,626.2695 C911.66425,626.2695 912,625.93375 912,625.5195 C912,625.10525 911.66425,624.7695 911.25,624.7695 L911.25,624.7695 Z M899.761808,637 C899.200863,637 899,636.823917 899,636.332176 L899,627 L900,627 L900,637 L899.761808,637 L899.761808,637 Z M902,637 L902,627 L903,627 L903,637 L902,637 L902,637 Z M905,637 L905,627 L906,627 L906,637 L905,637 L905,637 Z M909,636.332176 C909,636.823917 908.799137,637 908.238192,637 L908,637 L908,627 L909,627 L909,636.332176 L909,636.332176 Z" id="icon_删除"></path>
        </g>
    </g>
</svg>