<?xml version="1.0" encoding="UTF-8"?>
<svg width="16px" height="16px" viewBox="0 0 16 16" version="1.1" xmlns="http://www.w3.org/2000/svg" xmlns:xlink="http://www.w3.org/1999/xlink">
    <!-- Generator: Sketch 39.1 (31720) - http://www.bohemiancoding.com/sketch -->
    <title>Shape</title>
    <desc>Created with Sketch.</desc>
    <defs></defs>
    <g id="Page-1" stroke="none" stroke-width="1" fill="none" fill-rule="evenodd" fill-opacity="0.54">
        <g id="成员管理" transform="translate(-1112.000000, -406.000000)" fill="#000000">
            <path d="M1125.64853,408.35 C1124.19762,406.9 1122.20638,406 1119.995,406 C1115.57223,406 1112,409.58 1112,414 C1112,418.42 1115.57223,422 1119.995,422 C1123.72733,422 1126.83927,419.45 1127.72983,416 L1125.64853,416 C1124.82802,418.33 1122.60663,420 1119.995,420 C1116.68293,420 1113.99124,417.31 1113.99124,414 C1113.99124,410.69 1116.68293,408 1119.995,408 C1121.65604,408 1123.13696,408.69 1124.21764,409.78 L1120.99562,413 L1128,413 L1128,406 L1125.64853,408.35 L1125.64853,408.35 Z" id="Shape"></path>
        </g>
    </g>
</svg>