<?xml version="1.0" encoding="UTF-8"?>
<svg width="16px" height="16px" viewBox="0 0 16 16" version="1.1" xmlns="http://www.w3.org/2000/svg" xmlns:xlink="http://www.w3.org/1999/xlink">
    <!-- Generator: Sketch 39.1 (31720) - http://www.bohemiancoding.com/sketch -->
    <title>icon_项目_已结束</title>
    <desc>Created with Sketch.</desc>
    <defs></defs>
    <g id="Page-1" stroke="none" stroke-width="1" fill="none" fill-rule="evenodd" fill-opacity="0.26">
        <g id="首页-已加项目" transform="translate(-116.000000, -408.000000)" fill="#000000">
            <path d="M123.5,417 L121.491005,417 C121.22788,417 121,417.223858 121,417.5 C121,417.768066 121.219831,418 121.491005,418 L123.5,418 L123.5,420.008995 C123.5,420.27212 123.723858,420.5 124,420.5 C124.268066,420.5 124.5,420.280169 124.5,420.008995 L124.5,418 L126.508995,418 C126.77212,418 127,417.776142 127,417.5 C127,417.231934 126.780169,417 126.508995,417 L124.5,417 L124.5,414.991005 C124.5,414.72788 124.276142,414.5 124,414.5 C123.731934,414.5 123.5,414.719831 123.5,414.991005 L123.5,417 L123.5,417 Z M124,411 L130.999128,411 C131.551894,411 132,411.447489 132,411.998502 L132,423.001498 C132,423.552955 131.555369,424 130.999128,424 L117.000872,424 C116.448106,424 116,423.552511 116,423.001498 L116,412.503862 L116,408.990778 C116,408.443586 116.450975,408 116.990778,408 L121.009222,408 C121.556414,408 122.250218,408.375327 122.556183,408.834274 L124,411 L124,411 Z M124,409 C124,408.447715 124.453036,408 124.99703,408 L131.00297,408 C131.553614,408 132,408.443865 132,409 C132,409.552285 131.546964,410 131.00297,410 L124.99703,410 C124.446386,410 124,409.556135 124,409 L124,409 Z" id="icon_项目_已结束"></path>
        </g>
    </g>
</svg>