<?xml version="1.0" encoding="UTF-8"?>
<svg width="16px" height="16px" viewBox="0 0 16 16" version="1.1" xmlns="http://www.w3.org/2000/svg" xmlns:xlink="http://www.w3.org/1999/xlink">
    <!-- Generator: Sketch 39.1 (31720) - http://www.bohemiancoding.com/sketch -->
    <title>icon_项目_进行中</title>
    <desc>Created with Sketch.</desc>
    <defs></defs>
    <g id="Page-1" stroke="none" stroke-width="1" fill="none" fill-rule="evenodd" fill-opacity="0.54">
        <g id="首页-已加项目" transform="translate(-116.000000, -157.000000)" fill="#000000">
            <path d="M123.5,166 L121.491005,166 C121.22788,166 121,166.223858 121,166.5 C121,166.768066 121.219831,167 121.491005,167 L123.5,167 L123.5,169.008995 C123.5,169.27212 123.723858,169.5 124,169.5 C124.268066,169.5 124.5,169.280169 124.5,169.008995 L124.5,167 L126.508995,167 C126.77212,167 127,166.776142 127,166.5 C127,166.231934 126.780169,166 126.508995,166 L124.5,166 L124.5,163.991005 C124.5,163.72788 124.276142,163.5 124,163.5 C123.731934,163.5 123.5,163.719831 123.5,163.991005 L123.5,166 L123.5,166 Z M124,160 L130.999128,160 C131.551894,160 132,160.447489 132,160.998502 L132,172.001498 C132,172.552955 131.555369,173 130.999128,173 L117.000872,173 C116.448106,173 116,172.552511 116,172.001498 L116,161.503862 L116,157.990778 C116,157.443586 116.450975,157 116.990778,157 L121.009222,157 C121.556414,157 122.250218,157.375327 122.556183,157.834274 L124,160 L124,160 Z M124,158 C124,157.447715 124.453036,157 124.99703,157 L131.00297,157 C131.553614,157 132,157.443865 132,158 C132,158.552285 131.546964,159 131.00297,159 L124.99703,159 C124.446386,159 124,158.556135 124,158 L124,158 Z" id="icon_项目_进行中"></path>
        </g>
    </g>
</svg>