<?xml version="1.0" encoding="UTF-8"?>
<svg width="160px" height="160px" viewBox="0 0 160 160" version="1.1" xmlns="http://www.w3.org/2000/svg" xmlns:xlink="http://www.w3.org/1999/xlink">
    <!-- Generator: Sketch 45.2 (43514) - http://www.bohemiancoding.com/sketch -->
    <title>05</title>
    <desc>Created with Sketch.</desc>
    <defs></defs>
    <g id="Page-1" stroke="none" stroke-width="1" fill="none" fill-rule="evenodd">
        <g id="Artboard-Copy-6" transform="translate(-100.000000, -1720.000000)">
            <g id="05" transform="translate(100.000000, 1720.000000)">
                <circle id="Oval-Copy-4" stroke-opacity="0.12" stroke="#458DF1" stroke-width="8" cx="80" cy="80" r="76"></circle>
                <rect id="Rectangle-19" stroke="#458DF1" stroke-width="4" x="52" y="50" width="56" height="60" rx="2"></rect>
                <rect id="Rectangle-19" fill="#458DF1" x="60" y="60" width="4" height="4" rx="2"></rect>
                <rect id="Rectangle-19-Copy-6" fill="#458DF1" x="68" y="60" width="32" height="4" rx="2"></rect>
                <rect id="Rectangle-19-Copy" fill="#458DF1" x="60" y="69" width="4" height="4" rx="2"></rect>
                <rect id="Rectangle-19-Copy-7" fill="#458DF1" x="68" y="69" width="28" height="4" rx="2"></rect>
                <rect id="Rectangle-19-Copy-2" fill="#458DF1" x="60" y="78" width="4" height="4" rx="2"></rect>
                <rect id="Rectangle-19-Copy-8" fill="#458DF1" x="68" y="78" width="20" height="4" rx="2"></rect>
                <rect id="Rectangle-19-Copy-4" fill="#458DF1" x="60" y="96" width="4" height="4" rx="2"></rect>
                <rect id="Rectangle-19-Copy-9" fill="#458DF1" x="68" y="96" width="12" height="4" rx="2"></rect>
                <rect id="Rectangle-19-Copy-3" fill="#458DF1" x="60" y="87" width="4" height="4" rx="2"></rect>
                <rect id="Rectangle-19-Copy-10" fill="#458DF1" x="68" y="87" width="20" height="4" rx="2"></rect>
            </g>
        </g>
    </g>
</svg>