<?xml version="1.0" encoding="UTF-8"?>
<svg width="16px" height="16px" viewBox="0 0 16 16" version="1.1" xmlns="http://www.w3.org/2000/svg" xmlns:xlink="http://www.w3.org/1999/xlink">
    <!-- Generator: Sketch 39.1 (31720) - http://www.bohemiancoding.com/sketch -->
    <title>Shape</title>
    <desc>Created with Sketch.</desc>
    <defs></defs>
    <g id="Page-1" stroke="none" stroke-width="1" fill="none" fill-rule="evenodd">
        <g id="患者列表" transform="translate(-728.000000, -156.000000)" fill="#458DF1">
            <path d="M743.610387,169.719887 L739.782657,165.892327 C739.738105,165.848037 739.688885,165.814217 739.641879,165.777366 C740.288458,164.785363 740.666017,163.603737 740.666017,162.330938 C740.666017,158.834215 737.83165,156 734.333009,156 C730.836326,156 728,158.834215 728,162.330938 C728,165.828151 730.836326,168.661748 734.333009,168.661748 C735.605711,168.661748 736.789068,168.283319 737.782923,167.636795 C737.819115,167.684876 737.852323,167.732704 737.896145,167.776649 L741.724367,171.60468 C741.985739,171.865208 742.326136,171.995065 742.667029,171.995065 C743.008158,171.995065 743.348793,171.865228 743.609927,171.605296 C744.129948,171.084205 744.129948,170.240583 743.610387,169.719887 M734.333009,166.662593 C731.944373,166.662593 730.000007,164.719121 730.000007,162.33094 C730.000007,159.943121 731.944391,157.999141 734.333009,157.999141 C736.721627,157.999141 738.66601,159.943121 738.66601,162.33094 C738.66601,164.719102 736.721627,166.662593 734.333009,166.662593" id="Shape"></path>
        </g>
    </g>
</svg>