<?xml version="1.0" encoding="UTF-8"?>
<svg width="16px" height="16px" viewBox="0 0 16 16" version="1.1" xmlns="http://www.w3.org/2000/svg" xmlns:xlink="http://www.w3.org/1999/xlink">
    <!-- Generator: Sketch 39.1 (31720) - http://www.bohemiancoding.com/sketch -->
    <title>Shape</title>
    <desc>Created with Sketch.</desc>
    <defs></defs>
    <g id="Page-1" stroke="none" stroke-width="1" fill="none" fill-rule="evenodd" fill-opacity="0.54">
        <g id="随访管理" transform="translate(-1112.000000, -224.000000)" fill="#000000">
            <path d="M1127.25,225.7695 L1124.3125,225.7695 L1124.3125,225 C1124.3125,224.44775 1123.86475,224 1123.3125,224 L1117.3125,224 C1116.76025,224 1116.3125,224.44775 1116.3125,225 L1116.3125,225.7695 L1112.75,225.7695 C1112.33575,225.7695 1112,226.10525 1112,226.5195 C1112,226.93375 1112.33575,227.2695 1112.75,227.2695 L1113.75,227.2695 L1113.75,239 C1113.75,239.55225 1114.19775,240 1114.75,240 L1125.25,240 C1125.80225,240 1126.25,239.55225 1126.25,239 L1126.25,227.2695 L1127.25,227.2695 C1127.66425,227.2695 1128,226.93375 1128,226.5195 C1128,226.10525 1127.66425,225.7695 1127.25,225.7695 L1127.25,225.7695 Z M1115.76181,238 C1115.20086,238 1115,237.823917 1115,237.332176 L1115,228 L1116,228 L1116,238 L1115.76181,238 L1115.76181,238 Z M1118,238 L1118,228 L1119,228 L1119,238 L1118,238 L1118,238 Z M1121,238 L1121,228 L1122,228 L1122,238 L1121,238 L1121,238 Z M1125,237.332176 C1125,237.823917 1124.79914,238 1124.23819,238 L1124,238 L1124,228 L1125,228 L1125,237.332176 L1125,237.332176 Z" id="Shape"></path>
        </g>
    </g>
</svg>