<?xml version="1.0" encoding="UTF-8"?>
<svg width="16px" height="16px" viewBox="0 0 16 16" version="1.1" xmlns="http://www.w3.org/2000/svg" xmlns:xlink="http://www.w3.org/1999/xlink">
    <!-- Generator: Sketch 39.1 (31720) - http://www.bohemiancoding.com/sketch -->
    <title>被退回的病历</title>
    <desc>Created with Sketch.</desc>
    <defs></defs>
    <g id="Page-1" stroke="none" stroke-width="1" fill="none" fill-rule="evenodd" fill-opacity="0.7">
        <g id="项目首页-初次进入历史日志为空" transform="translate(-24.000000, -343.000000)" fill="#FFFFFF">
            <path d="M30,350 L37.0024554,350 C37.553384,350 38,350.443865 38,351 C38,351.552285 37.5536886,352 37.0024554,352 L30,352 L30,353.705066 C30,354.004842 29.7939671,354.091165 29.5347217,353.894004 L26.1935803,351.352998 C25.9366142,351.15757 25.9343349,350.842452 26.1935803,350.64529 L29.5347217,348.104284 C29.7916878,347.908856 30,347.997203 30,348.293222 L30,350 Z M24,344.000872 C24,343.448106 24.4446309,343 25.0008717,343 L38.9991283,343 C39.5518945,343 40,343.444631 40,344.000872 L40,357.999128 C40,358.551894 39.5553691,359 38.9991283,359 L25.0008717,359 C24.4481055,359 24,358.555369 24,357.999128 L24,344.000872 Z" id="被退回的病历"></path>
        </g>
    </g>
</svg>