<?xml version="1.0" encoding="UTF-8"?>
<svg width="16px" height="16px" viewBox="0 0 16 16" version="1.1" xmlns="http://www.w3.org/2000/svg" xmlns:xlink="http://www.w3.org/1999/xlink">
    <!-- Generator: Sketch 39.1 (31720) - http://www.bohemiancoding.com/sketch -->
    <title>已提交的病历</title>
    <desc>Created with Sketch.</desc>
    <defs></defs>
    <g id="Page-1" stroke="none" stroke-width="1" fill="none" fill-rule="evenodd" fill-opacity="0.699999988">
        <g id="项目首页-初次进入历史日志为空" transform="translate(-24.000000, -279.000000)" fill="#FFFFFF">
            <path d="M33.5,285.806494 L33.5,289.799146 C33.5,290.079347 33.2842474,290.306494 33.004611,290.306494 L30.995389,290.306494 C30.7217932,290.306494 30.5,290.081909 30.5,289.799146 L30.5,285.806494 L28.4975446,285.806494 C27.946616,285.806494 27.7952576,285.462026 28.1447403,285.054297 L31.3552597,281.308691 C31.7113399,280.893264 32.2952576,280.900961 32.6447403,281.308691 L35.8552597,285.054297 C36.2113399,285.469723 36.0536886,285.806494 35.5024554,285.806494 L33.5,285.806494 Z M24,280.000872 C24,279.448106 24.4446309,279 25.0008717,279 L38.9991283,279 C39.5518945,279 40,279.444631 40,280.000872 L40,293.999128 C40,294.551894 39.5553691,295 38.9991283,295 L25.0008717,295 C24.4481055,295 24,294.555369 24,293.999128 L24,280.000872 Z M26,291.806494 C26,291.39228 26.3334731,291.056494 26.7506537,291.056494 L37.2493463,291.056494 C37.6639209,291.056494 38,291.389392 38,291.806494 C38,292.220707 37.6665269,292.556494 37.2493463,292.556494 L26.7506537,292.556494 C26.3360791,292.556494 26,292.223595 26,291.806494 Z" id="已提交的病历"></path>
        </g>
    </g>
</svg>