<?xml version="1.0" encoding="UTF-8"?>
<svg width="16px" height="16px" viewBox="0 0 16 16" version="1.1" xmlns="http://www.w3.org/2000/svg" xmlns:xlink="http://www.w3.org/1999/xlink">
    <!-- Generator: Sketch 39.1 (31720) - http://www.bohemiancoding.com/sketch -->
    <title>Group 2</title>
    <desc>Created with Sketch.</desc>
    <defs></defs>
    <g id="Page-1" stroke="none" stroke-width="1" fill="none" fill-rule="evenodd" opacity="0.699999988">
        <g id="首页" transform="translate(-24.000000, -109.000000)">
            <g id="Group-2" transform="translate(24.000000, 109.000000)">
                <rect id="Rectangle-4" x="0" y="0" width="16" height="16"></rect>
                <path d="M0,1.00087166 C0,0.448105505 0.444630861,0 1.00087166,0 L14.9991283,0 C15.5518945,0 16,0.444630861 16,1.00087166 L16,14.9991283 C16,15.5518945 15.5553691,16 14.9991283,16 L1.00087166,16 C0.448105505,16 0,15.5553691 0,14.9991283 L0,1.00087166 Z M3,6.2481966 C3,6.1111214 3.10752869,6 3.24523926,6 L4.75476074,6 C4.89020264,6 5,6.11309052 5,6.2481966 L5,13.7518034 C5,13.8888786 4.89247131,14 4.75476074,14 L3.24523926,14 C3.10979736,14 3,13.8869095 3,13.7518034 L3,6.2481966 Z M11,9.24116039 C11,9.10797119 11.1075287,9 11.2452393,9 L12.7547607,9 C12.8902026,9 13,9.10443211 13,9.24116039 L13,13.7588396 C13,13.8920288 12.8924713,14 12.7547607,14 L11.2452393,14 C11.1097974,14 11,13.8955679 11,13.7588396 L11,9.24116039 Z M7,3.25041807 C7,3.11211599 7.10752869,3 7.24523926,3 L8.75476074,3 C8.89020264,3 9,3.10887086 9,3.25041807 L9,13.7495819 C9,13.887884 8.89247131,14 8.75476074,14 L7.24523926,14 C7.10979736,14 7,13.8911291 7,13.7495819 L7,3.25041807 Z" id="Combined-Shape" fill="#FFFFFF"></path>
            </g>
        </g>
    </g>
</svg>