<?xml version="1.0" encoding="UTF-8"?>
<svg width="16px" height="16px" viewBox="0 0 16 16" version="1.1" xmlns="http://www.w3.org/2000/svg" xmlns:xlink="http://www.w3.org/1999/xlink">
    <!-- Generator: Sketch 39.1 (31720) - http://www.bohemiancoding.com/sketch -->
    <title>已保存的病历</title>
    <desc>Created with Sketch.</desc>
    <defs></defs>
    <g id="Page-1" stroke="none" stroke-width="1" fill="none" fill-rule="evenodd" fill-opacity="0.7">
        <g id="项目首页-初次进入历史日志为空" transform="translate(-24.000000, -215.000000)" fill="#FFFFFF">
            <path d="M24,216.000872 C24,215.448106 24.4446309,215 25.0008717,215 L38.9991283,215 C39.5518945,215 40,215.444631 40,216.000872 L40,229.999128 C40,230.551894 39.5553691,231 38.9991283,231 L25.0008717,231 C24.4481055,231 24,230.555369 24,229.999128 L24,216.000872 Z M26,215 L38,215 L38,223.002455 C38,223.553384 37.544239,224 36.9975267,224 L27.0024733,224 C26.4488226,224 26,223.553689 26,223.002455 L26,215 Z M27,215.99703 C27,215.446386 27.4556644,215 27.9953976,215 L36.0046024,215 C36.5543453,215 37,215.453036 37,215.99703 L37,222.00297 C37,222.553614 36.5443356,223 36.0046024,223 L27.9953976,223 C27.4456547,223 27,222.546964 27,222.00297 L27,215.99703 Z M34,217.490479 C34,217.219595 34.2319336,217 34.5,217 C34.7761424,217 35,217.215057 35,217.490479 L35,220.509521 C35,220.780405 34.7680664,221 34.5,221 C34.2238576,221 34,220.784943 34,220.509521 L34,217.490479 Z" id="已保存的病历"></path>
        </g>
    </g>
</svg>