<?xml version="1.0" encoding="UTF-8"?>
<svg width="16px" height="16px" viewBox="0 0 16 16" version="1.1" xmlns="http://www.w3.org/2000/svg" xmlns:xlink="http://www.w3.org/1999/xlink">
    <!-- Generator: Sketch 39.1 (31720) - http://www.bohemiancoding.com/sketch -->
    <title>我的工作日志</title>
    <desc>Created with Sketch.</desc>
    <defs></defs>
    <g id="Page-1" stroke="none" stroke-width="1" fill="none" fill-rule="evenodd" fill-opacity="0.7">
        <g id="项目首页-初次进入历史日志为空" transform="translate(-24.000000, -151.000000)" fill="#FFFFFF">
            <path d="M26,160 L26,158 L24.4904785,158 C24.2195947,158 24,157.768066 24,157.5 C24,157.223858 24.2150574,157 24.4904785,157 L26,157 L26,155 L24.4904785,155 C24.2195947,155 24,154.768066 24,154.5 C24,154.223858 24.2150574,154 24.4904785,154 L26,154 L26,152.000872 C26,151.448106 26.4499488,151 27.0068455,151 L38.9931545,151 C39.5492199,151 40,151.444631 40,152.000872 L40,165.999128 C40,166.551894 39.5500512,167 38.9931545,167 L27.0068455,167 C26.4507801,167 26,166.555369 26,165.999128 L26,164 L24.4904785,164 C24.2195947,164 24,163.768066 24,163.5 C24,163.223858 24.2150574,163 24.4904785,163 L26,163 L26,161 L24.4904785,161 C24.2195947,161 24,160.768066 24,160.5 C24,160.223858 24.2150574,160 24.4904785,160 L26,160 Z M27,160 L27,158 L27.5095215,158 C27.7849426,158 28,157.776142 28,157.5 C28,157.231934 27.7804053,157 27.5095215,157 L27,157 L27,155 L27.5095215,155 C27.7849426,155 28,154.776142 28,154.5 C28,154.231934 27.7804053,154 27.5095215,154 L27,154 L27,153.006845 C27,152.45078 27.4438648,152 28,152 C28.5522847,152 29,152.449949 29,153.006845 L29,164.993155 C29,165.54922 28.5561352,166 28,166 C27.4477153,166 27,165.550051 27,164.993155 L27,164 L27.5095215,164 C27.7849426,164 28,163.776142 28,163.5 C28,163.231934 27.7804053,163 27.5095215,163 L27,163 L27,161 L27.5095215,161 C27.7849426,161 28,160.776142 28,160.5 C28,160.231934 27.7804053,160 27.5095215,160 L27,160 Z" id="我的工作日志"></path>
        </g>
    </g>
</svg>