<?xml version="1.0" encoding="UTF-8"?>
<svg width="100px" height="80px" viewBox="0 0 100 80" version="1.1" xmlns="http://www.w3.org/2000/svg" xmlns:xlink="http://www.w3.org/1999/xlink">
    <!-- Generator: Sketch 45.2 (43514) - http://www.bohemiancoding.com/sketch -->
    <title>随访记录</title>
    <desc>Created with Sketch.</desc>
    <defs></defs>
    <g id="Page-1" stroke="none" stroke-width="1" fill="none" fill-rule="evenodd">
        <g id="设计" transform="translate(-202.000000, -408.000000)">
            <g id="随访记录" transform="translate(202.000000, 408.000000)">
                <rect id="Rectangle-Copy-4" fill="#FFFFFF" x="0" y="0" width="100" height="80"></rect>
                <path d="M63.5,48.9869581 C61.7133741,48.2090311 60.0541164,47.0302506 60.0294791,45.4600567 C59.9970488,43.6084987 60.2781112,41.9184136 61.4996512,40.4220964 C64.5372862,36.6759207 66.4939123,32.262323 67.7154523,27.4288952 C68.7964611,23.1229462 69.0667134,18.7847025 68.2451467,14.4033994 C67.4235799,9.96827199 65.5210043,6.21133142 62.1482566,3.54164309 C59.0998115,1.11954677 55.7919244,0 52.3110757,0 C50.8733339,0 49.4031618,0.193767705 47.9113696,0.559773344 C42.117162,1.99150136 38.2471502,5.93144471 36.3661948,12.1535411 C35.0149336,16.6317281 35.0365538,21.2175637 35.9554114,25.7818697 C37.133711,31.584136 39.4362599,34.8889518 43.10088,39.3025496 C43.2414112,39.4747875 43.4251827,39.6470255 43.5008534,39.8515581 C44.7764438,43.1348442 41.9874409,48.2804533 38.5714529,49.4538244 C35.9229811,50.3688385 33.2961295,51.3592068 30.7341385,52.4572238 C26.6479249,54.2011331 22.7130526,56.1818697 19.2754444,58.8730878 C17.1134266,60.5631728 15.0378895,62.3824363 14.3352337,64.9875354 C13.9785008,66.3223796 14.0325513,67.7541077 14.000121,69.1535411 C13.9893109,70.929745 14.7027768,72.5337111 16.1729488,73.7393768 C17.2215274,74.6005666 19.6429874,76 19.6429874,76 L31.6205657,75.9784703 L55.1999512,75.9784703 L55.1999512,51.9668427 C55.1999512,51.4107741 55.6551242,50.9599915 56.2003706,50.9599915 L63.5,50.9599915 L63.5,48.9869581 Z" id="Combined-Shape" fill="#458DF1"></path>
                <path d="M10.7484285,61.8195284 C10.2414272,61.0717125 9.99453774,60.2090625 10.0000916,59.2856668 C10.0246516,58.2132684 9.98371828,57.1161222 10.2538783,56.0932191 C10.7860117,54.0969081 12.3578517,52.70279 13.9951852,51.4076627 C16.5985453,49.3453579 19.5784921,47.8275016 22.6730522,46.4911281 C24.6132923,45.6497077 26.6026524,44.8907796 28.6083859,44.189596 C31.1953726,43.2904311 33.3075327,39.3473044 32.3415061,36.8312926 C32.2841993,36.6745574 32.145026,36.5425699 32.0385993,36.4105824 C29.2633192,33.0284026 27.5195591,30.4958924 26.6272124,26.0495633 C25.9313457,22.5518944 25.9149724,19.0377271 26.9383058,15.6060519 C27.9843021,12.1048719 29.8425161,9.54665832 32.4934997,8 C32.1078453,9.31259711 31.7938364,10.7845323 31.4322943,12.3997335 C30.449837,16.7356913 30.5444639,20.8951499 31.4322938,25.2282377 C32.5708051,30.7365734 34.6343347,33.9731838 37.3535281,38.0639884 C37.8075462,38.7470216 38.1754365,39.1268205 38.7229443,40.1924257 C39.9554611,41.7021471 37.2606362,46.5870904 33.9599979,47.701021 C31.4009586,48.5696824 28.8628096,49.5098807 26.3873308,50.5522745 C22.4390989,52.2078411 18.6370978,54.0882377 15.3155694,56.6431244 C13.4081064,58.1081545 11.570311,59.67543 10.7484285,61.8195284 Z" id="Combined-Shape" fill="#458DF1"></path>
                <path d="M66,54 L66,48.9970301 C66,48.4463856 66.4446309,48 67.0008717,48 L80.9991283,48 C81.5518945,48 82,48.4530363 82,48.9970301 L82,54 L89.0072136,54 C89.5555144,54 90,54.4512787 90,55.0032996 L90,78.9967004 C90,79.5508075 89.5476379,80 89.0072136,80 L58.9927864,80 C58.4444856,80 58,79.5487213 58,78.9967004 L58,55.0032996 C58,54.4491925 58.4523621,54 58.9927864,54 L66,54 Z M73,70 L69.9953976,70 C69.4556644,70 69,70.4477153 69,71 C69,71.5561352 69.4456547,72 69.9953976,72 L73,72 L73,75.0046024 C73,75.5443356 73.4477153,76 74,76 C74.5561352,76 75,75.5543453 75,75.0046024 L75,72 L78.0046024,72 C78.5443356,72 79,71.5522847 79,71 C79,70.4438648 78.5543453,70 78.0046024,70 L75,70 L75,66.9953976 C75,66.4556644 74.5522847,66 74,66 C73.4438648,66 73,66.4456547 73,66.9953976 L73,70 Z M58,60 L58,62 L90,62 L90,60 L58,60 Z M68,51.0093689 L68,54 L80,54 L80,51.0093689 C80,50.4433532 79.5511774,50 78.9975267,50 L69.0024733,50 C68.455761,50 68,50.4519098 68,51.0093689 Z" id="Combined-Shape" fill="#458DF1"></path>
            </g>
        </g>
    </g>
</svg>