<?xml version="1.0" encoding="UTF-8"?>
<svg width="100px" height="80px" viewBox="0 0 100 80" version="1.1" xmlns="http://www.w3.org/2000/svg" xmlns:xlink="http://www.w3.org/1999/xlink">
    <!-- Generator: Sketch 45.2 (43514) - http://www.bohemiancoding.com/sketch -->
    <title>影像中心</title>
    <desc>Created with Sketch.</desc>
    <defs></defs>
    <g id="Page-1" stroke="none" stroke-width="1" fill="none" fill-rule="evenodd">
        <g id="设计" transform="translate(-666.000000, -176.000000)">
            <g id="影像中心" transform="translate(666.000000, 176.000000)">
                <rect id="Rectangle-Copy-2" fill="#FFFFFF" x="0" y="0" width="100" height="80"></rect>
                <path d="M68,62 L62,62 L62,66 L68,66 L68,72 L72,72 L72,66 L78,66 L78,62 L72,62 L72,56 L68,56 L68,62 Z M18,32 L49.1274813,49.5092082 C49.6183324,49.785312 50.3906399,49.780265 50.8725187,49.5092082 L82,32 L85.0095856,32 C85.5565764,32 86,32.4445307 86,33.0025482 L86,78.9974518 C86,79.5511439 85.5588838,80 85.0095856,80 L14.9904144,80 C14.4434236,80 14,79.5554693 14,78.9974518 L14,33.0025482 C14,32.4488561 14.4411162,32 14.9904144,32 L18,32 Z M42,72 L42,70 L20,70 L20,72 L42,72 Z M32,66 L32,64 L20,64 L20,66 L32,66 Z" id="Combined-Shape" fill="#458DF1"></path>
                <path d="M82,28 L50.8711721,45.5099657 C50.390037,45.7806042 49.6072924,45.779102 49.1288279,45.5099657 L18,28 L18,1.00254822 C18,0.448856126 18.4428625,0 19.0052872,0 L80.9947128,0 C81.5499176,0 82,0.444530725 82,1.00254822 L82,28 Z M58.7518213,10 L41.2481787,10 C40.5585236,10 40,10.5601559 40,11.2518266 L40,28.7481734 C40,29.4398441 40.5585236,30 41.2481787,30 L58.7518213,30 C59.4414764,30 60,29.4398441 60,28.7481734 L60,11.2469557 C60,10.5601559 59.4414764,10 58.7518213,10 L58.7518213,10 Z M58.3341428,18.3292742 L50,22.7715538 L47.5862069,20.3019971 L41.6658572,24.9926936 L41.6658572,11.6658548 L58.3341428,11.6658548 L58.3341428,18.3292742 Z M46.3865954,17.7691184 C47.459932,17.7691184 48.3292861,16.9020945 48.3292861,15.830492 C48.3292861,14.7588894 47.459932,13.8918656 46.3865954,13.8918656 C45.3132589,13.8918656 44.4439048,14.7588894 44.4439048,15.830492 C44.4439048,16.9020945 45.3132589,17.7691184 46.3865954,17.7691184 Z" id="Combined-Shape" fill="#458DF1"></path>
            </g>
        </g>
    </g>
</svg>