<?xml version="1.0" encoding="UTF-8"?>
<svg width="100px" height="80px" viewBox="0 0 100 80" version="1.1" xmlns="http://www.w3.org/2000/svg" xmlns:xlink="http://www.w3.org/1999/xlink">
    <!-- Generator: Sketch 45.2 (43514) - http://www.bohemiancoding.com/sketch -->
    <title>临床研究管理</title>
    <desc>Created with Sketch.</desc>
    <defs></defs>
    <g id="Page-1" stroke="none" stroke-width="1" fill="none" fill-rule="evenodd">
        <g id="设计" transform="translate(-434.000000, -176.000000)">
            <g id="临床研究管理" transform="translate(434.000000, 176.000000)">
                <rect id="Rectangle-Copy" fill="#FFFFFF" x="0" y="0" width="100" height="80"></rect>
                <path d="M53.7499766,78.2324696 L50.9155627,79.6124627 C50.4219404,79.8527929 49.6248908,79.854385 49.1279984,79.6124627 L10.8149588,60.9589659 C10.3213366,60.7186357 10.3180664,60.3305755 10.8149588,60.0886532 L25.9614182,52.7142857 L46.1310044,62.5342665 C46.2038477,63.7343377 46.3788857,64.9320888 46.5713349,65.9538287 C47.0964997,68.7280379 49.1337836,70.9505865 52.0721869,70.9505865 C52.1583364,70.9499326 52.1583364,70.9499326 52.2727456,70.9501398 C52.9154715,70.9501398 53.4448437,71.4795088 53.4448437,72.122238 C53.4448437,72.1320321 53.3460802,72.4634106 53.3378662,72.4819475 C52.4975854,74.3732276 52.6949591,76.5255733 53.7499766,78.2324696 Z" id="Combined-Shape" fill="#458DF1"></path>
                <path d="M84.5846778,43.6761505 L89.1849646,41.4351563 C89.6815799,41.193234 89.6783116,40.8051739 89.1849646,40.5648437 L74.0469491,33.1904762 L50.8932839,44.4696056 C50.3999368,44.7099358 49.6033315,44.7115279 49.1067161,44.4696056 L25.9530509,33.1904762 L10.8150354,40.5648437 C10.3184201,40.806766 10.3216884,41.1948261 10.8150354,41.4351563 L46.2601732,58.7019817 C46.3421351,58.0502172 46.444371,57.4231719 46.5520168,56.8516385 C47.0841519,54.0364058 49.1799498,51.788477 52.0800223,51.8581837 L52.2497548,51.8581837 C52.8921033,51.8581837 53.4211995,51.3287892 53.4211995,50.6860409 C53.4211995,50.6798412 53.3195884,50.3388251 53.3143723,50.3268087 C52.1229516,47.6419022 53.0205965,44.4381196 55.4326214,42.7614157 L55.82962,42.5115839 L60.8813284,39.7351188 L61.235446,39.5631535 C62.0589872,39.2118812 62.8912794,39.047619 63.738889,39.047619 C65.4895713,39.047619 67.2050818,39.753369 68.397549,41.0107474 C68.5929312,41.2153893 68.9972721,41.5568252 69.3783569,41.8074119 C69.575976,41.9373587 69.7480346,42.0308474 69.8673147,42.0791119 C69.8618276,42.0768916 69.7823529,42.0586351 69.5931885,42.0586351 C69.4066645,42.0586351 69.3288144,42.0763162 69.3239388,42.0782655 C69.4422797,42.0309536 69.6128409,41.9394339 69.8087569,41.8122653 C70.1862929,41.5672079 70.586985,41.2334171 70.7718656,41.0425279 C71.969975,39.7978095 73.6720631,39.10533 75.4050771,39.10533 C76.2680712,39.10533 77.1149997,39.2753744 77.9152622,39.6233272 L78.2945803,39.8085044 L83.1738775,42.5206477 L83.524208,42.740453 C83.9189581,43.0160727 84.2731965,43.3308157 84.5846778,43.6761505 Z" id="Combined-Shape" fill="#458DF1"></path>
                <path d="M49.1165259,1.87486983 C49.610287,1.63453962 50.4075608,1.63294749 50.9045929,1.87486983 L89.228407,20.5283667 C89.7221681,20.7686969 89.7254391,21.156757 89.228407,21.3986794 L50.9045929,40.0521762 C50.4108318,40.2925064 49.613558,40.2940985 49.1165259,40.0521762 L10.7927118,21.3986794 C10.2989508,21.1583491 10.2956797,20.770289 10.7927118,20.5283667 L49.1165259,1.87486983 Z" id="Polygon" fill="#458DF1"></path>
                <path d="M67.5714286,59.3531436 L61.7142857,59.3531436 L61.7142857,63.2579055 L67.5714286,63.2579055 L67.5714286,69.1150484 L71.4761905,69.1150484 L71.4761905,63.2579055 L77.3333333,63.2579055 L77.3333333,59.3531436 L71.4761905,59.3531436 L71.4761905,53.4960007 L67.5714286,53.4960007 L67.5714286,59.3531436 Z M75.3767068,79.8247643 L75.3764834,79.8247643 C74.666309,79.8245857 73.9758779,79.5309391 73.5298692,79.038878 C72.9223416,78.3727908 70.997514,76.6407497 69.4217658,76.6407497 C67.8569165,76.6407497 65.9021615,78.3828857 65.3407311,78.9930041 C64.8958839,79.4766677 64.2103215,79.7654901 63.506892,79.7654901 C63.171749,79.7654901 62.8556792,79.701213 62.5669461,79.5743563 L62.5164268,79.5522011 L57.7270491,76.8738713 L57.6794778,76.8407277 C56.8075165,76.230386 56.4757236,75.0364587 56.9078405,74.0638607 C56.9111459,74.0564012 57.3496056,73.0446294 57.3496056,72.122238 C57.3496056,69.3229476 55.0719913,67.0453779 52.2727456,67.0453779 L52.1029184,67.0453779 C52.0925554,67.0456013 52.0822371,67.0458246 52.0721869,67.0458246 C51.2702201,67.0458246 50.6173099,66.3334615 50.4086216,65.2310586 C50.3920052,65.1428396 50,63.0518029 50,61.4042734 C50,59.7567439 50.3920052,57.6654392 50.4086216,57.5772649 C50.6197666,56.4608363 51.2869258,55.7436491 52.102963,55.7629456 L52.2727902,55.7629456 C55.0720359,55.7629456 57.3496503,53.4853312 57.3496503,50.6860409 C57.3496503,49.7638729 56.9114139,48.7523244 56.9068131,48.7422741 C56.4753215,47.7704354 56.8093478,46.5768208 57.6850166,45.9684444 L57.7345979,45.9340055 L62.7891241,43.1575404 L62.8417428,43.1352065 C63.1264558,43.0137993 63.4381035,42.952381 63.768333,42.952381 C64.4702438,42.952381 65.1571015,43.2348159 65.6061029,43.7079825 C66.204429,44.3343154 68.0953536,45.963397 69.625898,45.963397 C71.1419253,45.963397 73.0214597,44.3666102 73.6177309,43.7512211 C74.0641416,43.2877027 74.7462645,43.0100919 75.4410285,43.0100919 C75.7779135,43.0100919 76.0954573,43.0737883 76.3847264,43.1994836 L76.4358712,43.2219069 L81.31789,45.9340503 L81.3659526,45.9678638 C82.2394327,46.5773122 82.5721189,47.7711948 82.1397787,48.7445076 C82.1364732,48.7519671 81.6979688,49.7636942 81.6979688,50.6860856 C81.6979688,53.485376 83.9755832,55.7629903 86.7748289,55.7629903 L86.9447007,55.7629903 C87.7595766,55.7447658 88.4276291,56.4607024 88.6389974,57.5773096 C88.6556585,57.6655287 89.047619,59.75661 89.047619,61.4040948 C89.047619,63.0515797 88.6556585,65.142929 88.6387741,65.2311034 C88.4276291,66.3474873 87.7595765,67.0620838 86.9444774,67.0454227 L86.7748288,67.0454227 C83.9755831,67.0454227 81.6979688,69.3229924 81.6979688,72.1222827 C81.6979688,73.0444507 82.1362498,74.0557312 82.1406273,74.0658261 C82.5718508,75.0369948 82.2387179,76.2309222 81.3645678,76.8398791 L81.3156565,76.8741394 L76.3513595,79.6179076 L76.2995448,79.6403309 C76.0155465,79.762676 75.7050155,79.8247643 75.3767068,79.8247643 Z" id="Combined-Shape" fill="#458DF1"></path>
            </g>
        </g>
    </g>
</svg>