<?xml version="1.0" encoding="UTF-8"?>
<svg width="100px" height="80px" viewBox="0 0 100 80" version="1.1" xmlns="http://www.w3.org/2000/svg" xmlns:xlink="http://www.w3.org/1999/xlink">
    <!-- Generator: Sketch 45.2 (43514) - http://www.bohemiancoding.com/sketch -->
    <title>患者登记</title>
    <desc>Created with Sketch.</desc>
    <defs></defs>
    <g id="Page-1" stroke="none" stroke-width="1" fill="none" fill-rule="evenodd">
        <g id="设计" transform="translate(-202.000000, -176.000000)">
            <g id="患者登记" transform="translate(202.000000, 176.000000)">
                <rect id="Rectangle" fill="#FFFFFF" x="0" y="0" width="100" height="80"></rect>
                <path d="M23,71.4770731 C26.7766913,70.2756688 30.2286412,67.942856 33.1475569,64.7590601 C33.4452946,65.4901289 34.1613145,66 34.9972916,66 L71.0027084,66 C72.1084602,66 73,65.1045695 73,64 C73,62.8877296 72.1057821,62 71.0027084,62 L35.3909117,62 C37.0970346,59.6371805 38.5525019,56.9445812 39.6995276,54 L71.0027084,54 C72.1084602,54 73,53.1045695 73,52 C73,50.8877296 72.1057821,50 71.0027084,50 L41.0222381,50 C41.7203928,47.4613308 42.2018055,44.7810899 42.4362282,42 L71.0027084,42 C72.1084602,42 73,41.1045695 73,40 C73,38.8877296 72.1057821,38 71.0027084,38 L42.5999161,38 C42.5966027,36.2433905 42.4952274,34.5178119 42.3027707,32.8326623 L42.3027707,32.8326623 C35.0716634,32.4787885 28.4182844,29.8671868 23,25.6710758 L23,3.00275629 C23,2.44894928 23.4484582,2 23.9913525,2 L82.0086475,2 C82.5561564,2 83,2.44631928 83,3.00275629 L83,76.9972437 C83,77.5510507 82.5515418,78 82.0086475,78 L23.9913525,78 C23.4438436,78 23,77.5536807 23,76.9972437 L23,71.4770731 Z M33,16 C33,17.1122704 33.8927712,18 34.9940603,18 L47.0059397,18 C48.1054862,18 49,17.1045695 49,16 C49,14.8877296 48.1072288,14 47.0059397,14 L34.9940603,14 C33.8945138,14 33,14.8954305 33,16 Z M33,28 C33,29.1122704 33.8942179,30 34.9972916,30 L71.0027084,30 C72.1084602,30 73,29.1045695 73,28 C73,26.8877296 72.1057821,26 71.0027084,26 L34.9972916,26 C33.8915398,26 33,26.8954305 33,28 Z" id="Combined-Shape" fill="#458DF1"></path>
                <path d="M19,46 L13,46 L13,50 L19,50 L19,56 L23,56 L23,50 L29,50 L29,46 L23,46 L23,40 L19,40 L19,46 Z M38.752309,35.3605519 C38.9153974,36.7885531 39,38.2513924 39,39.7408347 C39,54.0492301 31.1923862,65.9025505 21,68 C10.8076138,65.9025505 3,54.0492301 3,39.7408347 C3,38.2513924 3.08460262,36.7885531 3.24769104,35.3605519 C10.0376216,35.0282683 16.2162924,32.3072171 21,28 C25.7837076,32.3072171 31.9623784,35.0282683 38.752309,35.3605519 Z" id="Combined-Shape" fill="#458DF1"></path>
            </g>
        </g>
    </g>
</svg>