<?xml version="1.0" encoding="UTF-8"?>
<svg width="160px" height="160px" viewBox="0 0 160 160" version="1.1" xmlns="http://www.w3.org/2000/svg" xmlns:xlink="http://www.w3.org/1999/xlink">
    <!-- Generator: Sketch 45.2 (43514) - http://www.bohemiancoding.com/sketch -->
    <title>02</title>
    <desc>Created with Sketch.</desc>
    <defs></defs>
    <g id="Page-1" stroke="none" stroke-width="1" fill="none" fill-rule="evenodd">
        <g id="Artboard-Copy-6" transform="translate(-100.000000, -880.000000)">
            <g id="02" transform="translate(100.000000, 880.000000)">
                <circle id="Oval-Copy" stroke-opacity="0.12" stroke="#458DF1" stroke-width="8" cx="80" cy="80" r="76"></circle>
                <path d="M79.2232369,64 L90.8267666,104 L110,104 L110,64 L79.2232369,64 Z" id="Rectangle-5" stroke="#458DF1" stroke-width="4"></path>
                <rect id="Rectangle-6" fill="#FFFFFF" transform="translate(70.471414, 88.299520) rotate(-16.000000) translate(-70.471414, -88.299520) " x="48.9714142" y="61.9344413" width="43" height="52.7301565"></rect>
                <rect id="Rectangle-5" stroke="#458DF1" stroke-width="4" x="91" y="72" width="11" height="1" rx="0.5"></rect>
                <rect id="Rectangle-5-Copy-2" stroke="#458DF1" stroke-width="4" x="94" y="88" width="8" height="1" rx="0.5"></rect>
                <rect id="Rectangle-5-Copy" stroke="#458DF1" stroke-width="4" x="90" y="80" width="12" height="1" rx="0.5"></rect>
                <rect id="Rectangle-5-Copy-3" stroke="#458DF1" stroke-width="4" x="98" y="96" width="4" height="1" rx="0.5"></rect>
                <circle id="Oval-2" stroke="#458DF1" stroke-width="4" cx="71" cy="72" r="12"></circle>
                <path d="M91.9144581,104 C90.9492976,92.7718504 81.9369324,84 71,84 C60.0630676,84 51.0507024,92.7718504 50.0855419,104 L91.9144581,104 Z" id="Oval-2-Copy" stroke="#458DF1" stroke-width="4"></path>
            </g>
        </g>
    </g>
</svg>