<?xml version="1.0" encoding="UTF-8"?>
<svg width="16px" height="14px" viewBox="0 0 16 14" version="1.1" xmlns="http://www.w3.org/2000/svg" xmlns:xlink="http://www.w3.org/1999/xlink">
    <!-- Generator: Sketch 39.1 (31720) - http://www.bohemiancoding.com/sketch -->
    <title>Group 6</title>
    <desc>Created with Sketch.</desc>
    <defs></defs>
    <g id="Page-1" stroke="none" stroke-width="1" fill="none" fill-rule="evenodd" opacity="0.699999988">
        <g id="首页" transform="translate(-25.000000, -222.000000)">
            <g id="Group-6" transform="translate(25.000000, 221.000000)">
                <rect id="Rectangle-4" x="0" y="0" width="16" height="16"></rect>
                <path d="M15.992727,12.5127066 C15.9890802,12.4689459 15.9909036,12.4233618 15.992727,12.3777778 C16.0000204,12.071453 15.8960888,11.7979487 15.7046358,11.5481481 C15.3964876,11.1415385 14.9807612,10.8425071 14.5340375,10.5726496 C13.6916443,10.0621083 12.7690233,9.69378917 11.8117583,9.40205128 C11.4306757,9.28535613 10.9474848,9.05014245 10.9420147,8.70005698 C10.9365446,8.38643876 10.983952,8.10017094 11.1899919,7.84672365 C11.7023566,7.21219374 12.0323851,6.46461538 12.238425,5.64592592 C12.4207611,4.9165812 12.4663452,4.18176637 12.3277697,3.43965812 C12.1891942,2.68843305 11.8682825,2.05207977 11.2993936,1.59988604 C10.7852056,1.18962963 10.2272569,1 9.64013436,1 C9.39762725,1 9.14965003,1.03282051 8.89802611,1.09481481 C8.4494791,1.20603988 8.07021985,1.40660968 7.76024833,1.6928775 C8.02828252,1.81139602 8.28355318,1.96820513 8.52788366,2.16330485 C9.18794064,2.69025641 9.61278394,3.43965812 9.78965004,4.39145299 C9.93734235,5.18826211 9.90452184,6.02336182 9.6911885,6.87304844 C9.44685802,7.84672365 9.06395203,8.64717949 8.51876684,9.32364673 C8.46224263,9.39475784 8.42212866,9.48227921 8.41483522,9.66643874 C8.47500616,9.71202278 8.60446485,9.78678062 8.826915,9.85424502 C9.95192925,10.1988604 10.8909606,10.6036467 11.6950631,11.0904843 C12.1144364,11.3439316 12.646858,11.7031339 13.0461743,12.2282621 C13.3360888,12.6093447 13.4764876,13.0268946 13.4655475,13.4663248 L13.4655475,13.5301425 C13.4746643,13.6431909 13.4710176,13.7580627 13.4509606,13.8729345 L15.075576,13.8729345 C15.0719292,13.8729345 16.0528979,13.1709402 15.992727,12.5127066 L15.992727,12.5127066 Z M12.8155169,13.4499145 C12.8228109,13.1435897 12.7188719,12.8700855 12.5274053,12.6202849 C12.2192353,12.2136752 11.8034793,11.9146439 11.3567239,11.6447863 C10.514271,11.134245 9.5915844,10.7659259 8.63425149,10.474188 C8.25314181,10.3574929 7.76991663,10.1222792 7.76444616,9.77219374 C7.75897569,9.45857551 7.80638646,9.17230769 8.01244098,8.9188604 C8.52484203,8.28433049 8.85489394,7.53675214 9.06094844,6.71806267 C9.24329756,5.98871795 9.28888485,5.25390312 9.15029952,4.51179487 C9.01171419,3.76056981 8.69077973,3.12421652 8.12185046,2.6720228 C7.60762592,2.26176639 7.0496376,2.07213675 6.46247341,2.07213675 C6.21994907,2.07213675 5.97195425,2.10495726 5.72031247,2.16695156 C4.74292116,2.40945868 4.09011129,3.07680911 3.77282382,4.13071225 C3.54488741,4.88923077 3.54853439,5.66598291 3.70353114,6.43908831 C3.90229169,7.42188034 4.29069532,7.98165242 4.90885886,8.72923077 C4.93256424,8.75840455 4.9635636,8.78757835 4.97632804,8.82222222 C5.19150001,9.37834758 4.72103926,10.2499145 4.14481603,10.448661 C3.69806067,10.6036467 3.2549523,10.771396 2.82278487,10.9573789 C2.13350518,11.2527635 1.46975436,11.5882621 0.889884146,12.0441026 C0.525185891,12.3303704 0.17507557,12.6385185 0.0565486341,13.0797721 C-0.00362657722,13.3058689 0.0054908836,13.5483761 2.04098412e-05,13.7854131 C-0.00180307685,14.0862678 0.118547346,14.3579487 0.366542152,14.5621652 C0.543420799,14.7080342 0.951882844,14.9450712 0.951882844,14.9450712 L2.97231115,14.9414245 L11.8964773,14.9414245 C11.8964773,14.9414245 12.8775156,14.2394302 12.8173404,13.5830199 C12.81187,13.5392593 12.8155169,13.4936752 12.8155169,13.4499145 Z" id="Combined-Shape" fill="#FFFFFF"></path>
            </g>
        </g>
    </g>
</svg>