<?xml version="1.0" encoding="UTF-8"?>
<svg width="16px" height="16px" viewBox="0 0 16 16" version="1.1" xmlns="http://www.w3.org/2000/svg" xmlns:xlink="http://www.w3.org/1999/xlink">
    <!-- Generator: Sketch 39.1 (31720) - http://www.bohemiancoding.com/sketch -->
    <title>Group 3</title>
    <desc>Created with Sketch.</desc>
    <defs></defs>
    <g id="Page-1" stroke="none" stroke-width="1" fill="none" fill-rule="evenodd" opacity="0.699999988">
        <g id="首页" transform="translate(-24.000000, -333.000000)">
            <g id="Group-3" transform="translate(24.000000, 333.000000)">
                <rect id="Rectangle-4" x="0" y="0" width="16" height="16"></rect>
                <path d="M4.00004081,3 L1.00087166,3 C0.444630861,3 0,3.44704472 0,3.99850233 L0,15.0014977 C0,15.5525106 0.448105505,16 1.00087166,16 L14.9991283,16 C15.5553691,16 16,15.5529553 16,15.0014977 L16,3.99850233 C16,3.44748943 15.5518945,3 14.9991283,3 L11.9999573,3 C11.9999858,2.99688039 12,2.99375741 12,2.9906311 L12,1.0093689 C12,0.443353176 11.5536144,0 11.0029699,0 L4.99703014,0 C4.45303631,0 4,0.451909848 4,1.0093689 L4,2.9906311 C4,2.99375783 4.00001362,2.99688081 4.00004081,3 Z M7.5,11 L5.99769878,11 C5.71484375,11 5.5,11.2238576 5.5,11.5 C5.5,11.7680664 5.72282734,12 5.99769878,12 L7.5,12 L7.5,13.5023012 C7.5,13.7851562 7.72385763,14 8,14 C8.26806641,14 8.5,13.7771727 8.5,13.5023012 L8.5,12 L10.0023012,12 C10.2851562,12 10.5,11.7761424 10.5,11.5 C10.5,11.2319336 10.2771727,11 10.0023012,11 L8.5,11 L8.5,9.49769878 C8.5,9.21484375 8.27614237,9 8,9 C7.73193359,9 7.5,9.22282734 7.5,9.49769878 L7.5,11 Z M0,6 L16,6 L16,7 L0,7 L0,6 Z M5,2 C5,1.44771525 5.45097518,1 5.99077797,1 L10.009222,1 C10.5564136,1 11,1.44386482 11,2 L11,3 L5,3 L5,2 Z" id="Combined-Shape" fill="#FFFFFF"></path>
            </g>
        </g>
    </g>
</svg>