<?xml version="1.0" encoding="UTF-8"?>
<svg width="40px" height="38px" viewBox="0 0 40 38" version="1.1" xmlns="http://www.w3.org/2000/svg" xmlns:xlink="http://www.w3.org/1999/xlink">
    <!-- Generator: Sketch 39.1 (31720) - http://www.bohemiancoding.com/sketch -->
    <title>icon_MedNotes</title>
    <desc>Created with Sketch.</desc>
    <defs></defs>
    <g id="Page-1" stroke="none" stroke-width="1" fill="none" fill-rule="evenodd">
        <g id="导航" transform="translate(-1062.000000, -333.000000)" fill="#458DF1">
            <g id="Group-3" transform="translate(1030.000000, 316.000000)">
                <g id="icon_MedNotes" transform="translate(32.000000, 17.000000)">
                    <path d="M10,34.7385365 L10,37.0031246 C10,37.5467697 10.4468886,38 10.9981537,38 L39.0018463,38 C39.5526348,38 40,37.5536837 40,37.0031246 L40,0.996875402 C40,0.453230292 39.5531114,0 39.0018463,0 L10.9981537,0 C10.4473652,0 10,0.44631632 10,0.996875402 L10,11.8355379 C12.7091422,13.9335934 16.0358317,15.2393943 19.6513854,15.4163311 L19.6513854,15.4163311 C19.7476137,16.2589059 19.7983014,17.1216952 19.799958,18 L34.0081969,18 C34.5559546,18 35,18.4438648 35,19 C35,19.5522847 34.5446944,20 34.0081969,20 L19.7181141,20 C19.6009027,21.3905449 19.3601964,22.7306654 19.0111191,24 L34.0081969,24 C34.5559546,24 35,24.4438648 35,25 C35,25.5522847 34.5446944,26 34.0081969,26 L18.3497638,26 C17.7762509,27.4722906 17.0485173,28.8185902 16.1954559,30 L34.0081969,30 C34.5559546,30 35,30.4438648 35,31 C35,31.5522847 34.5446944,32 34.0081969,32 L15.9918031,32 C15.5768234,32 15.2213698,31.7452423 15.0734277,31.3799126 C13.6140441,32.9716148 11.8881944,34.1378825 10,34.7385365 Z M15,7 C15,6.44771525 15.4530363,6 15.9970301,6 L22.0029699,6 C22.5536144,6 23,6.44386482 23,7 C23,7.55228475 22.5469637,8 22.0029699,8 L15.9970301,8 C15.4463856,8 15,7.55613518 15,7 Z M15,13 C15,12.4477153 15.4553056,12 15.9918031,12 L34.0081969,12 C34.5559546,12 35,12.4438648 35,13 C35,13.5522847 34.5446944,14 34.0081969,14 L15.9918031,14 C15.4440454,14 15,13.5561352 15,13 Z" id="Combined-Shape"></path>
                    <path d="M8,22 L5,22 L5,24 L8,24 L8,27 L10,27 L10,24 L13,24 L13,22 L10,22 L10,19 L8,19 L8,22 Z M17.8761545,16.680276 C17.9576987,17.3942766 18,18.1256962 18,18.8704173 C18,26.024615 14.0961931,31.9512752 9,33 C3.90380692,31.9512752 0,26.024615 0,18.8704173 C0,18.1256962 0.0423013095,17.3942766 0.123845522,16.680276 C3.51881082,16.5141342 6.60814618,15.1536085 9,13 C11.3918538,15.1536085 14.4811892,16.5141342 17.8761545,16.680276 Z" id="Combined-Shape"></path>
                </g>
            </g>
        </g>
    </g>
</svg>