<?xml version="1.0" encoding="UTF-8"?>
<svg width="408px" height="44px" viewBox="0 0 408 44" version="1.1" xmlns="http://www.w3.org/2000/svg" xmlns:xlink="http://www.w3.org/1999/xlink">
    <!-- Generator: Sketch 45.2 (43514) - http://www.bohemiancoding.com/sketch -->
    <title>Group 4</title>
    <desc>Created with Sketch.</desc>
    <defs></defs>
    <g id="Page-1" stroke="none" stroke-width="1" fill="none" fill-rule="evenodd">
        <g id="06--1A-4-创建新公司-邀请同事-Copy" transform="translate(-396.000000, -144.000000)" fill="#212121">
            <g id="Group-4" transform="translate(396.000000, 144.000000)">
                <path d="M38.2413689,29.9495798 C40.2881091,26.846002 41.4117647,23.1591873 41.4117647,19.2979961 C41.4117647,10.5441712 35.6151673,2.9765302 27.4825301,0.913918248 C25.4996956,0.288448149 23.4005972,0 21.2605042,0 C9.50112136,0 0,9.86654911 0,22 C0,34.1334509 9.50112136,44 21.2605042,44 C23.9603185,44 26.5933599,43.4780692 29.0542759,42.4743784 L27.5182863,38.7083367 C25.5424329,39.5141934 23.4307782,39.9327731 21.2605042,39.9327731 C11.7824499,39.9327731 4.06722689,31.9208107 4.06722689,22 C4.06722689,12.0791893 11.7824499,4.06722689 21.2605042,4.06722689 C26.1847471,4.06722689 30.882137,6.14315181 34.1260462,9.88562083 C36.1465523,12.4640337 37.3445378,15.7531094 37.3445378,19.2979961 C37.3445378,22.9450597 36.0840404,26.3804019 33.8356809,29.0679386 L35.4957983,30.4567719 L35.4957983,29.9495798 L38.2413689,29.9495798 Z" id="Combined-Shape"></path>
                <path d="M33.0801038,29.431935 L33.0734809,29.431935 L28.132565,17.7918666 L23.820749,33.4458152 C23.6515114,34.5030965 22.7352209,35.3109244 21.6302521,35.3109244 C20.7549713,35.3109244 19.998081,34.8040345 19.6371161,34.0677897 L19.6302829,34.0704676 L19.5730889,33.9245258 C19.5669188,33.9092863 19.560913,33.8939627 19.5550739,33.878557 L15.1750619,22.7020835 L12.8914533,30.1714308 L8.25174533,30.1714308 L12.8791078,15.0360101 L12.8918685,15.0399114 C13.2276331,14.2413819 14.0172482,13.6806723 14.9378242,13.6806723 C16.0306953,13.6806723 16.938997,14.4709082 17.1224945,15.5111454 L21.2544199,26.0545765 L25.3236104,11.2814741 C25.505717,10.2290289 26.4232502,9.42857143 27.5277402,9.42857143 C28.5170219,9.42857143 29.3563151,10.0707482 29.6515011,10.9609831 L36.2662582,26.544374 C37.5883144,26.7313764 38.5942903,27.6801441 38.5942903,28.8224375 C38.5942903,30.0990485 37.3378283,31.1339461 35.7879037,31.1339461 C34.4941037,31.1339461 33.4047907,30.412821 33.0801038,29.431935 Z" id="Combined-Shape"></path>
                <path d="M56.0537815,13.2665546 L56.0537815,34.3865546 L59.5146218,34.3865546 L59.5146218,19.8332773 L59.6329412,19.8332773 L65.8447059,34.3865546 L68.8322689,34.3865546 L75.0440336,19.8332773 L75.1623529,19.8332773 L75.1623529,34.3865546 L78.6231933,34.3865546 L78.6231933,13.2665546 L74.5707563,13.2665546 L67.412437,29.8312605 L67.2941176,29.8312605 L60.1062185,13.2665546 L56.0537815,13.2665546 Z M88.8652101,18.6796639 C91.3794958,18.6796639 93.3021849,19.5078992 94.6332773,21.2235294 C95.8460504,22.7616807 96.4672269,24.9210084 96.4672269,27.6719328 L85.0198319,27.6719328 C85.1381513,29.0917647 85.5226891,30.1862185 86.1734454,30.9257143 C86.8242017,31.6652101 87.7707563,32.0497479 88.9835294,32.0497479 C90.0188235,32.0497479 90.8470588,31.8131092 91.4978151,31.3398319 C92.0006723,30.9552941 92.4443697,30.3341176 92.8584874,29.4763025 L96.2305882,29.4763025 C95.8756302,30.8961345 95.1657143,32.1089076 94.1008403,33.0554622 C92.7401681,34.2090756 91.0541176,34.8006723 89.0131092,34.8006723 C86.7354622,34.8006723 84.9310924,34.0907563 83.6,32.7005042 C82.1801681,31.2510924 81.4702521,29.2692437 81.4702521,26.7253782 C81.4702521,24.4477311 82.1210084,22.5546218 83.4816807,21.0164706 C84.7831933,19.4487395 86.587563,18.6796639 88.8652101,18.6796639 Z M88.9539496,21.4305882 C87.829916,21.4305882 86.9721008,21.7263866 86.3213445,22.3771429 C85.7001681,22.9983193 85.2860504,23.9152941 85.0789916,25.1280672 L92.9472269,25.1280672 C92.6514286,22.6433613 91.3203361,21.4305882 88.9539496,21.4305882 Z M109.903866,12.852437 L113.275966,12.852437 L113.275966,34.3865546 L110.140504,34.3865546 L110.140504,32.7596639 C109.07563,34.1203361 107.537479,34.8006723 105.52605,34.8006723 C103.248403,34.8006723 101.473613,34.0020168 100.201681,32.4047059 C99.0184874,30.9257143 98.4268907,29.0030252 98.4268907,26.6662185 C98.4268907,24.4181513 98.9889076,22.5546218 100.172101,21.0756303 C101.414454,19.4783193 103.159664,18.6796639 105.348571,18.6796639 C107.123361,18.6796639 108.631933,19.5078992 109.903866,21.1939496 L109.903866,12.852437 Z M106.147227,21.4010084 C104.609076,21.4010084 103.514622,21.9038655 102.804706,22.9095798 C102.183529,23.767395 101.887731,25.0097479 101.887731,26.6662185 C101.887731,28.3226891 102.15395,29.5946218 102.745546,30.4820168 C103.425882,31.5468908 104.520336,32.0793277 106.028908,32.0793277 C107.33042,32.0793277 108.365714,31.5468908 109.07563,30.5115966 C109.696807,29.565042 110.022185,28.3226891 110.022185,26.8436975 L110.022185,26.6070588 C110.022185,24.9801681 109.608067,23.6786555 108.838992,22.7321008 C108.129076,21.8447059 107.212101,21.4010084 106.147227,21.4010084 Z M118.992269,12.852437 C118.341513,12.852437 117.809076,13.0594958 117.365378,13.4736134 C116.921681,13.8877311 116.714622,14.4201681 116.714622,15.0709244 C116.714622,15.7216807 116.921681,16.2541176 117.365378,16.6978151 C117.809076,17.1119328 118.341513,17.3189916 118.992269,17.3189916 C119.643025,17.3189916 120.175462,17.1119328 120.61916,16.6978151 C121.062857,16.2836975 121.299496,15.7216807 121.299496,15.0709244 C121.299496,14.4201681 121.062857,13.8877311 120.648739,13.4736134 C120.205042,13.0594958 119.643025,12.852437 118.992269,12.852437 Z M117.306218,19.0937815 L117.306218,34.3865546 L120.678319,34.3865546 L120.678319,19.0937815 L117.306218,19.0937815 Z M131.600672,18.6796639 C129.204706,18.6796639 127.341176,19.4783193 126.010084,21.0756303 C124.767731,22.525042 124.146555,24.4181513 124.146555,26.7253782 C124.146555,29.0917647 124.767731,31.0144538 126.039664,32.4934454 C127.341176,34.0315966 129.175126,34.8006723 131.541513,34.8006723 C133.523361,34.8006723 135.120672,34.2978151 136.303866,33.3216807 C137.516639,32.3159664 138.315294,30.7778151 138.670252,28.7072269 L135.327731,28.7072269 C135.061513,30.9257143 133.81916,32.0497479 131.571092,32.0497479 C130.26958,32.0497479 129.293445,31.5764706 128.642689,30.6594958 C127.932773,29.7129412 127.607395,28.3818487 127.607395,26.6957983 C127.607395,25.0393277 127.962353,23.7378151 128.672269,22.8208403 C129.382185,21.8742857 130.358319,21.4305882 131.600672,21.4305882 C132.606387,21.4305882 133.434622,21.6672269 134.055798,22.1405042 C134.647395,22.6137815 135.061513,23.3236975 135.268571,24.2998319 L138.611092,24.2998319 C138.315294,22.3771429 137.546218,20.9573109 136.333445,20.0107563 C135.150252,19.1233613 133.582521,18.6796639 131.600672,18.6796639 Z M148.172773,18.6796639 C150.42084,18.6796639 152.106891,19.2416807 153.171765,20.3657143 C154.118319,21.3418487 154.591597,22.7616807 154.591597,24.6252101 L154.591597,34.3865546 L151.456134,34.3865546 L151.456134,32.3751261 C150.864538,33.1442017 150.125042,33.7062185 149.267227,34.1203361 C148.291092,34.5640336 147.137479,34.8006723 145.806387,34.8006723 C144.209076,34.8006723 142.966723,34.3865546 142.049748,33.5878992 C141.103193,32.7596639 140.629916,31.7243697 140.629916,30.452437 C140.629916,28.7368067 141.280672,27.4057143 142.641345,26.4887395 C143.883697,25.6013445 145.628908,25.1280672 147.876975,25.0689076 L151.219496,24.9801681 L151.219496,24.3885714 C151.219496,22.3771429 150.125042,21.4010084 147.936134,21.4010084 C146.98958,21.4010084 146.250084,21.5489076 145.688067,21.9038655 C145.037311,22.2884034 144.593613,22.88 144.416134,23.6786555 L141.073613,23.412437 C141.398992,21.7263866 142.227227,20.4840336 143.558319,19.714958 C144.682353,19.005042 146.220504,18.6796639 148.172773,18.6796639 Z M151.219496,27.4057143 L148.113613,27.4944538 C145.421849,27.5536134 144.090756,28.5001681 144.090756,30.3341176 C144.090756,30.8665546 144.297815,31.3102521 144.771092,31.6652101 C145.24437,32.0201681 145.835966,32.2272269 146.575462,32.2272269 C147.876975,32.2272269 148.971429,31.8426891 149.858824,31.1031933 C150.746218,30.3341176 151.219496,29.3579832 151.219496,28.1747899 L151.219496,27.4057143 Z M156.403361,19.0937815 L162.467227,34.0315966 L159.775462,40.2433613 L163.384202,40.2433613 L171.666555,19.0937815 L167.998655,19.0937815 L164.123697,29.9791597 L160.07126,19.0937815 L156.403361,19.0937815 Z M173.478319,19.0937815 L173.478319,28.6184874 C173.478319,32.730084 175.312269,34.8006723 178.980168,34.8006723 C180.873277,34.8006723 182.470588,34.0020168 183.772101,32.4047059 L183.772101,34.3865546 L187.144202,34.3865546 L187.144202,19.0937815 L183.772101,19.0937815 L183.772101,28.4410084 C183.476302,29.5354622 182.973445,30.3932773 182.293109,31.0440336 C181.612773,31.6652101 180.902857,31.9905882 180.163361,31.9905882 C178.980168,31.9905882 178.151933,31.6947899 177.619496,31.1327731 C177.087059,30.5411765 176.85042,29.6537815 176.85042,28.4114286 L176.85042,19.0937815 L173.478319,19.0937815 Z M198.480672,18.6796639 C197.563697,18.6796639 196.735462,18.8571429 195.966387,19.2416807 C195.226891,19.5966387 194.546555,20.1586555 193.954958,20.8685714 L193.954958,19.0937815 L190.582857,19.0937815 L190.582857,34.3865546 L193.954958,34.3865546 L193.954958,25.1872269 C194.073277,23.9744538 194.487395,23.0278992 195.197311,22.3771429 C195.818487,21.7855462 196.557983,21.4897479 197.386218,21.4897479 C199.693445,21.4897479 200.847059,22.7321008 200.847059,25.2463866 L200.847059,34.3865546 L204.21916,34.3865546 L204.21916,24.9505882 C204.21916,20.7502521 202.296471,18.6796639 198.480672,18.6796639 Z M226.862521,12.852437 C223.49042,12.852437 220.916975,13.9468908 219.142185,16.194958 C217.574454,18.1472269 216.805378,20.7206723 216.805378,23.8561345 C216.805378,27.0507563 217.544874,29.5946218 219.053445,31.4877311 C220.769076,33.6766387 223.401681,34.8006723 226.921681,34.8006723 C229.199328,34.8006723 231.151597,34.149916 232.778487,32.8484034 C234.523697,31.4581513 235.618151,29.5354622 236.091429,27.0507563 L232.719328,27.0507563 C232.30521,28.6480672 231.595294,29.8608403 230.58958,30.6594958 C229.643025,31.3694118 228.400672,31.7539496 226.892101,31.7539496 C224.584874,31.7539496 222.869244,31.0144538 221.77479,29.5946218 C220.769076,28.2635294 220.266218,26.3408403 220.266218,23.8561345 C220.266218,21.4305882 220.769076,19.537479 221.80437,18.1768067 C222.928403,16.6386555 224.584874,15.8991597 226.803361,15.8991597 C228.282353,15.8991597 229.495126,16.194958 230.441681,16.8457143 C231.417815,17.4964706 232.068571,18.5021849 232.423529,19.892437 L235.79563,19.892437 C235.470252,17.7626891 234.553277,16.0470588 233.015126,14.8047059 C231.417815,13.5031933 229.347227,12.852437 226.862521,12.852437 Z M239.234286,12.852437 L239.234286,34.3865546 L242.606387,34.3865546 L242.606387,12.852437 L239.234286,12.852437 Z M248.618487,12.852437 C247.967731,12.852437 247.435294,13.0594958 246.991597,13.4736134 C246.547899,13.8877311 246.34084,14.4201681 246.34084,15.0709244 C246.34084,15.7216807 246.547899,16.2541176 246.991597,16.6978151 C247.435294,17.1119328 247.967731,17.3189916 248.618487,17.3189916 C249.269244,17.3189916 249.801681,17.1119328 250.245378,16.6978151 C250.689076,16.2836975 250.925714,15.7216807 250.925714,15.0709244 C250.925714,14.4201681 250.689076,13.8877311 250.274958,13.4736134 C249.83126,13.0594958 249.269244,12.852437 248.618487,12.852437 Z M246.932437,19.0937815 L246.932437,34.3865546 L250.304538,34.3865546 L250.304538,19.0937815 L246.932437,19.0937815 Z M262.262185,18.6796639 C261.34521,18.6796639 260.516975,18.8571429 259.747899,19.2416807 C259.008403,19.5966387 258.328067,20.1586555 257.736471,20.8685714 L257.736471,19.0937815 L254.36437,19.0937815 L254.36437,34.3865546 L257.736471,34.3865546 L257.736471,25.1872269 C257.85479,23.9744538 258.268908,23.0278992 258.978823,22.3771429 C259.6,21.7855462 260.339496,21.4897479 261.167731,21.4897479 C263.474958,21.4897479 264.628571,22.7321008 264.628571,25.2463866 L264.628571,34.3865546 L268.000672,34.3865546 L268.000672,24.9505882 C268.000672,20.7502521 266.077983,18.6796639 262.262185,18.6796639 Z M273.716975,12.852437 C273.066218,12.852437 272.533781,13.0594958 272.090084,13.4736134 C271.646386,13.8877311 271.439328,14.4201681 271.439328,15.0709244 C271.439328,15.7216807 271.646386,16.2541176 272.090084,16.6978151 C272.533781,17.1119328 273.066218,17.3189916 273.716975,17.3189916 C274.367731,17.3189916 274.900168,17.1119328 275.343865,16.6978151 C275.787563,16.2836975 276.024202,15.7216807 276.024202,15.0709244 C276.024202,14.4201681 275.787563,13.8877311 275.373445,13.4736134 C274.929748,13.0594958 274.367731,12.852437 273.716975,12.852437 Z M272.030924,19.0937815 L272.030924,34.3865546 L275.403025,34.3865546 L275.403025,19.0937815 L272.030924,19.0937815 Z M286.325378,18.6796639 C283.929412,18.6796639 282.065882,19.4783193 280.73479,21.0756303 C279.492437,22.525042 278.87126,24.4181513 278.87126,26.7253782 C278.87126,29.0917647 279.492437,31.0144538 280.76437,32.4934454 C282.065882,34.0315966 283.899832,34.8006723 286.266218,34.8006723 C288.248067,34.8006723 289.845378,34.2978151 291.028571,33.3216807 C292.241344,32.3159664 293.04,30.7778151 293.394958,28.7072269 L290.052437,28.7072269 C289.786218,30.9257143 288.543865,32.0497479 286.295798,32.0497479 C284.994286,32.0497479 284.018151,31.5764706 283.367395,30.6594958 C282.657479,29.7129412 282.332101,28.3818487 282.332101,26.6957983 C282.332101,25.0393277 282.687059,23.7378151 283.396975,22.8208403 C284.106891,21.8742857 285.083025,21.4305882 286.325378,21.4305882 C287.331092,21.4305882 288.159328,21.6672269 288.780504,22.1405042 C289.372101,22.6137815 289.786218,23.3236975 289.993277,24.2998319 L293.335798,24.2998319 C293.04,22.3771429 292.270924,20.9573109 291.058151,20.0107563 C289.874958,19.1233613 288.307227,18.6796639 286.325378,18.6796639 Z M302.897479,18.6796639 C305.145546,18.6796639 306.831597,19.2416807 307.896471,20.3657143 C308.843025,21.3418487 309.316302,22.7616807 309.316302,24.6252101 L309.316302,34.3865546 L306.18084,34.3865546 L306.18084,32.3751261 C305.589244,33.1442017 304.849748,33.7062185 303.991933,34.1203361 C303.015798,34.5640336 301.862185,34.8006723 300.531092,34.8006723 C298.933781,34.8006723 297.691429,34.3865546 296.774454,33.5878992 C295.827899,32.7596639 295.354622,31.7243697 295.354622,30.452437 C295.354622,28.7368067 296.005378,27.4057143 297.36605,26.4887395 C298.608403,25.6013445 300.353613,25.1280672 302.601681,25.0689076 L305.944202,24.9801681 L305.944202,24.3885714 C305.944202,22.3771429 304.849748,21.4010084 302.66084,21.4010084 C301.714286,21.4010084 300.97479,21.5489076 300.412773,21.9038655 C299.762017,22.2884034 299.318319,22.88 299.14084,23.6786555 L295.798319,23.412437 C296.123697,21.7263866 296.951933,20.4840336 298.283025,19.714958 C299.407059,19.005042 300.94521,18.6796639 302.897479,18.6796639 Z M305.944202,27.4057143 L302.838319,27.4944538 C300.146555,27.5536134 298.815462,28.5001681 298.815462,30.3341176 C298.815462,30.8665546 299.022521,31.3102521 299.495798,31.6652101 C299.969076,32.0201681 300.560672,32.2272269 301.300168,32.2272269 C302.601681,32.2272269 303.696134,31.8426891 304.583529,31.1031933 C305.470924,30.3341176 305.944202,29.3579832 305.944202,28.1747899 L305.944202,27.4057143 Z M313.050756,12.852437 L313.050756,34.3865546 L316.422857,34.3865546 L316.422857,12.852437 L313.050756,12.852437 Z M339.362017,12.852437 C335.989916,12.852437 333.416471,13.9468908 331.641681,16.194958 C330.073949,18.1472269 329.304874,20.7206723 329.304874,23.8561345 C329.304874,27.0507563 330.04437,29.5946218 331.552941,31.4877311 C333.268571,33.6766387 335.901176,34.8006723 339.421176,34.8006723 C341.698823,34.8006723 343.651092,34.149916 345.277983,32.8484034 C347.023193,31.4581513 348.117647,29.5354622 348.590924,27.0507563 L345.218823,27.0507563 C344.804706,28.6480672 344.09479,29.8608403 343.089076,30.6594958 C342.142521,31.3694118 340.900168,31.7539496 339.391597,31.7539496 C337.08437,31.7539496 335.368739,31.0144538 334.274286,29.5946218 C333.268571,28.2635294 332.765714,26.3408403 332.765714,23.8561345 C332.765714,21.4305882 333.268571,19.537479 334.303865,18.1768067 C335.427899,16.6386555 337.08437,15.8991597 339.302857,15.8991597 C340.781849,15.8991597 341.994622,16.194958 342.941176,16.8457143 C343.917311,17.4964706 344.568067,18.5021849 344.923025,19.892437 L348.295126,19.892437 C347.969748,17.7626891 347.052773,16.0470588 345.514622,14.8047059 C343.917311,13.5031933 341.846723,12.852437 339.362017,12.852437 Z M351.733781,12.852437 L351.733781,34.3865546 L355.105882,34.3865546 L355.105882,12.852437 L351.733781,12.852437 Z M365.939496,18.6796639 C368.246723,18.6796639 370.110252,19.4191597 371.530084,20.9573109 C372.920336,22.4658824 373.630252,24.3885714 373.630252,26.754958 C373.630252,29.0917647 372.920336,31.0144538 371.559664,32.4934454 C370.139832,34.0315966 368.246723,34.8006723 365.939496,34.8006723 C363.602689,34.8006723 361.73916,34.0315966 360.319328,32.4934454 C358.929076,31.0144538 358.248739,29.0917647 358.248739,26.754958 C358.248739,24.3885714 358.929076,22.4658824 360.348907,20.9573109 C361.73916,19.4191597 363.602689,18.6796639 365.939496,18.6796639 Z M365.939496,21.4305882 C364.519664,21.4305882 363.45479,21.9630252 362.685714,23.0870588 C362.034958,24.0336134 361.70958,25.2759664 361.70958,26.754958 C361.70958,28.2339496 362.034958,29.4467227 362.685714,30.3932773 C363.45479,31.4877311 364.519664,32.0497479 365.939496,32.0497479 C367.329748,32.0497479 368.424202,31.4877311 369.193277,30.3932773 C369.844034,29.4171429 370.198992,28.2043697 370.198992,26.754958 C370.198992,25.2759664 369.844034,24.0336134 369.193277,23.0870588 C368.424202,21.9630252 367.329748,21.4305882 365.939496,21.4305882 Z M376.477311,19.0937815 L376.477311,28.6184874 C376.477311,32.730084 378.31126,34.8006723 381.97916,34.8006723 C383.872269,34.8006723 385.46958,34.0020168 386.771092,32.4047059 L386.771092,34.3865546 L390.143193,34.3865546 L390.143193,19.0937815 L386.771092,19.0937815 L386.771092,28.4410084 C386.475294,29.5354622 385.972437,30.3932773 385.292101,31.0440336 C384.611765,31.6652101 383.901849,31.9905882 383.162353,31.9905882 C381.97916,31.9905882 381.150924,31.6947899 380.618487,31.1327731 C380.08605,30.5411765 379.849412,29.6537815 379.849412,28.4114286 L379.849412,19.0937815 L376.477311,19.0937815 Z M404.467227,12.852437 L407.839328,12.852437 L407.839328,34.3865546 L404.703865,34.3865546 L404.703865,32.7596639 C403.638991,34.1203361 402.10084,34.8006723 400.089412,34.8006723 C397.811765,34.8006723 396.036975,34.0020168 394.765042,32.4047059 C393.581849,30.9257143 392.990252,29.0030252 392.990252,26.6662185 C392.990252,24.4181513 393.552269,22.5546218 394.735462,21.0756303 C395.977815,19.4783193 397.723025,18.6796639 399.911933,18.6796639 C401.686723,18.6796639 403.195294,19.5078992 404.467227,21.1939496 L404.467227,12.852437 Z M400.710588,21.4010084 C399.172437,21.4010084 398.077983,21.9038655 397.368067,22.9095798 C396.746891,23.767395 396.451092,25.0097479 396.451092,26.6662185 C396.451092,28.3226891 396.717311,29.5946218 397.308907,30.4820168 C397.989244,31.5468908 399.083697,32.0793277 400.592269,32.0793277 C401.893781,32.0793277 402.929076,31.5468908 403.638991,30.5115966 C404.260168,29.565042 404.585546,28.3226891 404.585546,26.8436975 L404.585546,26.6070588 C404.585546,24.9801681 404.171428,23.6786555 403.402353,22.7321008 C402.692437,21.8447059 401.775462,21.4010084 400.710588,21.4010084 Z" id="Medicayun-Clinical-C-Copy-2"></path>
            </g>
        </g>
    </g>
</svg>