<?xml version="1.0" encoding="UTF-8"?>
<svg width="147px" height="38px" viewBox="0 0 147 38" version="1.1" xmlns="http://www.w3.org/2000/svg" xmlns:xlink="http://www.w3.org/1999/xlink">
    <!-- Generator: Sketch 45.2 (43514) - http://www.bohemiancoding.com/sketch -->
    <title>Page 1</title>
    <desc>Created with Sketch.</desc>
    <defs>
        <polygon id="path-1" points="18.1410575 0 0.14765977 0 0.14765977 26.7221152 18.1410575 26.7221152 18.1410575 0"></polygon>
        <polygon id="path-3" points="0.15613966 33.7508046 16.6138758 33.7508046 16.6138758 0.0208833103 0.15613966 0.0208833103"></polygon>
    </defs>
    <g id="Page-1" stroke="none" stroke-width="1" fill="none" fill-rule="evenodd">
        <g id="Artboard" transform="translate(-522.000000, -159.000000)">
            <g id="Page-1" transform="translate(522.000000, 159.000000)">
                <g id="Group-3" transform="translate(58.220138, 14.765977)" fill="#FFFFFF">
                    <path d="M88.3342511,13.3948506 C86.4066583,13.576683 85.1785509,12.8966043 84.6554134,11.3651616 C83.9550842,9.83456257 83.284287,8.38707494 82.6388029,7.03746464 L84.7440093,7.03746464 C86.3767045,10.8677591 87.60439,12.9438554 88.4186282,13.2602692 C88.5958199,13.3948506 88.5667098,13.4412579 88.3342511,13.3948506 L88.3342511,13.3948506 Z M87.8068948,5.21070234 C87.8068948,6.38312092 87.0475017,6.94422805 85.5291374,6.90203954 C85.3553208,6.94422805 85.3262107,6.92313379 85.4443385,6.83453793 C85.8493482,6.56031264 86.0564937,6.06670713 86.0564937,5.34528368 L86.0564937,4.12603586 C86.0564937,3.2696092 85.3553208,2.83928644 83.9550842,2.83928644 L75.6355109,2.83928644 C74.5259532,2.79709793 73.6189003,3.08777674 72.9185711,3.72060432 C72.7460202,4.03701811 72.5979385,4.30744644 72.4798107,4.53104552 C72.3659017,4.75886345 72.3068378,4.89428855 72.3068378,4.94027402 C71.6069305,6.42530943 70.3784012,7.05813701 68.6280001,6.83453793 C68.4550272,6.87672644 68.4550272,6.85563218 68.6280001,6.76703632 C69.61943,6.2228046 70.9057575,3.99103264 72.4798107,0.0675016092 L74.5850171,0.0675016092 C73.9985969,1.32893793 73.5345233,2.27817931 73.1843587,2.9110069 C73.1252948,3.08777674 73.0957629,3.20210759 73.0957629,3.24851494 C73.5007725,2.6625166 74.3491834,2.36677517 75.6355109,2.36677517 L84.0436801,2.36677517 C86.785933,2.32458667 88.0393535,2.88569379 87.8068948,4.05853425 L87.8068948,5.21070234 Z M74.2348525,7.03746464 C73.5345233,8.38707494 72.8595072,9.83456257 72.2186638,11.3651616 C71.6360406,12.8966043 70.4083551,13.576683 68.5394042,13.3948506 C68.2483036,13.4412579 68.2187716,13.3948506 68.4550272,13.2602692 C69.2102015,12.9438554 70.437887,10.8677591 72.1296461,7.03746464 L74.2348525,7.03746464 Z M55.6297215,16.234137 L53.8788985,16.234137 L53.8788985,7.44205241 L45.5593252,7.44205241 L45.5593252,6.90203954 L53.8788985,6.90203954 L53.8788985,0.202504828 L55.6297215,0.202504828 L55.6297215,3.11351172 L64.3880553,3.11351172 L64.3880553,3.58602299 L55.6297215,3.58602299 L55.6297215,6.90203954 L66.0540794,6.90203954 L66.0540794,7.44205241 L55.6297215,7.44205241 L55.6297215,16.234137 Z M40.8430721,15.6941241 L33.4849748,15.6941241 C31.616024,15.7409534 30.7385031,15.0612966 30.8566309,13.664857 L30.8566309,6.35738593 L28.7556433,6.96954115 L28.7556433,6.42530943 L30.8566309,5.81779494 L30.8566309,1.75926069 L32.5230769,1.75926069 L32.5230769,5.27778207 L35.8475311,4.26146097 L35.8475311,0.0675016092 L37.5139771,0.0675016092 L37.5139771,3.72060432 L38.8260397,3.31601655 C41.2771918,2.72959632 42.5934732,3.24851494 42.7664461,4.87277241 L42.7664461,9.26881471 C42.82551,10.758069 42.0956488,11.4541793 40.5772845,11.3651616 C39.2352682,11.4119908 38.2143063,11.1630786 37.5139771,10.6234876 L37.5139771,12.9898409 L35.8475311,12.9898409 L35.8475311,4.87277241 L32.5230769,5.88529655 L32.5230769,13.7998602 C32.464013,14.567691 33.0757463,14.9511846 34.3624957,14.9511846 L40.226698,14.9511846 C42.4458134,15.0402023 43.757876,13.8930968 44.1671045,11.5005867 C44.1671045,11.1841729 44.1966364,11.0280754 44.2557003,11.0280754 C44.3147642,11.0744828 44.37425,11.2769876 44.4324702,11.6355899 C44.546801,14.3398731 43.3528663,15.6941241 40.8430721,15.6941241 L40.8430721,15.6941241 Z M37.5139771,10.3488405 C37.5139771,10.4416552 37.5435091,10.4627494 37.602573,10.4159202 C37.657418,10.4627494 37.7755459,10.5091568 37.9527376,10.5513453 C38.7669757,10.732334 39.353396,10.7791632 39.7035606,10.6905674 C40.6949905,10.64416 41.162861,10.0366455 41.1046408,8.86380506 L41.1046408,4.80105195 C40.9270272,3.94884414 40.1971661,3.63243034 38.9146355,3.85602943 L37.5139771,4.32854069 L37.5139771,10.3488405 Z M27.1777932,14.0702886 C27.6460856,14.0702886 28.114378,13.9601766 28.5784516,13.7323586 C28.8737711,13.6437628 29.2239357,13.4876653 29.6331642,13.2602692 C29.6331642,13.3062547 29.5445684,13.4159448 29.3673767,13.5973554 C28.7261114,14.1373683 27.5870217,14.4786733 25.9543265,14.6140984 L24.814815,14.6140984 C24.3469445,14.6140984 23.853339,14.6347708 23.3259826,14.6816 L23.3259826,14.2048699 L24.4650723,14.2048699 L25.4269702,14.2048699 L25.4269702,4.94027402 L23.3259826,4.94027402 L23.3259826,4.46354391 L25.4269702,4.46354391 L25.4269702,0 L27.1777932,0 L27.1777932,4.46354391 L29.4555506,4.46354391 L29.4555506,4.94027402 L27.1777932,4.94027402 L27.1777932,14.0702886 Z M19.2379164,13.327349 L21.0773353,13.327349 L21.0773353,13.8673618 L19.2379164,13.8673618 L19.1493206,14.1373683 C19.0311928,15.5806371 18.0102309,16.2805444 16.0864351,16.234137 C14.7996856,16.234137 13.4580911,15.8080331 12.0574328,14.9511846 C11.880241,14.7701959 11.9393049,14.7237885 12.2304056,14.8166032 C13.1669905,15.0866097 14.3356121,15.2642233 15.7362705,15.3566161 C16.7277003,15.445212 17.3099017,14.9937949 17.4870934,14.0019432 L17.4870934,13.8673618 L9.95644517,13.8673618 C8.49672287,14.0019432 7.93983459,13.4412579 8.28999919,12.1756028 L8.72875965,9.40381793 L7.67826586,9.40381793 L7.67826586,8.93130667 L8.81735551,8.93130667 L9.60628057,4.32854069 C9.07892425,4.55635862 8.37859505,4.71245609 7.50107413,4.80105195 C7.32810126,4.84745931 7.2395054,4.84745931 7.2395054,4.80105195 C7.18044149,4.75886345 7.2395054,4.69136184 7.41669712,4.59854713 C8.58109988,4.10494161 9.51768471,2.56928 10.2180139,0 L11.9688369,0 C11.909773,0.18183246 11.8211771,0.430322759 11.7072682,0.742517701 C11.5300764,1.19393471 11.4119486,1.53566161 11.3571036,1.75926069 L21.1659311,1.75926069 L21.1659311,2.23177195 L11.091316,2.23177195 C10.977407,2.5945931 10.7706833,3.02069701 10.4795826,3.51852138 L10.4795826,3.58602299 C10.3614548,3.80962207 10.2180139,3.96993839 10.0408222,4.05853425 L11.2685077,4.05853425 L11.1799118,4.80105195 C11.4119486,4.35343191 12.0279008,4.12603586 13.0193307,4.12603586 L17.1369288,4.12603586 C19.2969803,4.12603586 20.2884102,4.71245609 20.1158592,5.88529655 L19.7652728,8.93130667 L21.2503082,8.93130667 L21.2503082,9.40381793 L19.6766769,9.40381793 L19.2379164,13.327349 Z M9.86784931,12.5173297 C9.69065758,13.1459384 10.0112902,13.4159448 10.8297472,13.327349 L17.5756893,13.327349 L18.0102309,9.40381793 L10.3909868,9.40381793 L9.86784931,12.5173297 Z M16.6095725,4.59854713 L12.8463578,4.59854713 C11.9688369,4.59854713 11.3866355,4.80105195 11.091316,5.21070234 L10.4795826,8.93130667 L18.0102309,8.93130667 L18.4494133,5.75029333 C18.5080553,4.98288441 17.8921031,4.59854713 16.6095725,4.59854713 L16.6095725,4.59854713 Z M16.2594079,8.11706851 C14.7996856,8.20988322 13.9516967,7.96097103 13.7196599,7.3745508 C13.546687,7.23954759 13.2808994,6.96954115 12.9307348,6.56031264 C12.6396341,6.15530299 12.4371293,5.84352993 12.3190015,5.615712 L13.9854475,5.615712 C14.7996856,6.78813057 15.5886107,7.55596138 16.3480038,7.91456368 C16.4661316,8.00737839 16.4914447,8.07488 16.4365997,8.11706851 L16.2594079,8.11706851 Z M16.0864351,12.5173297 C14.7406217,12.6523329 13.8968516,12.4034207 13.546687,11.7705931 C13.0783946,11.3191761 12.6396341,10.732334 12.2304056,10.0113324 L13.8968516,10.0113324 C14.7701537,11.3191761 15.5299687,12.0870069 16.1708121,12.3110279 C16.2889399,12.4034207 16.3480038,12.4713442 16.3480038,12.5173297 C16.2889399,12.5595182 16.200344,12.5595182 16.0864351,12.5173297 L16.0864351,12.5173297 Z M4.78835321,5.54778851 C6.42104839,5.59419586 7.2395054,6.13420874 7.2395054,7.17204598 L7.2395054,12.7198345 C7.18044149,13.664857 7.41669712,14.2723715 7.93983459,14.5465968 C7.9988985,14.5887853 7.9988985,14.6347708 7.93983459,14.6816 L7.67826586,14.6816 C6.27760747,14.6347708 5.63212333,13.9812708 5.75025114,12.7198345 L5.75025114,7.10454437 C5.69118724,6.47171678 5.37055459,6.11311448 4.78835321,6.02029977 L4.78835321,16.1662135 L3.2105031,16.1662135 L3.2105031,6.08822326 C2.80127459,6.18061609 2.48064195,6.35738593 2.24860517,6.62781425 L2.24860517,12.6523329 C2.30766908,14.0019432 1.60312103,14.7031161 0.147617582,14.7491016 C0.0294897655,14.7031161 -4.21885057e-05,14.6562869 0.0590217195,14.6140984 C0.527314133,14.3398731 0.759350915,13.7112644 0.759350915,12.7198345 L0.759350915,5.54778851 L2.24860517,5.54778851 L2.24860517,6.42530943 C2.42157804,6.06670713 2.74221069,5.81779494 3.2105031,5.68279172 L3.2105031,3.45144166 L0.147617582,3.45144166 L0.147617582,2.9110069 L3.2105031,2.9110069 L3.2105031,0.0675016092 L4.78835321,0.0675016092 L4.78835321,2.9110069 L7.85123873,2.9110069 L7.85123873,3.45144166 L4.78835321,3.45144166 L4.78835321,5.54778851 Z M65.2655762,13.664857 C65.3794852,13.7112644 65.4385491,13.7576717 65.4385491,13.7998602 C65.4385491,13.8458457 65.3794852,13.8673618 65.2655762,13.8673618 C62.8692691,13.9601766 61.3504829,13.6437628 60.7092176,12.9223393 C60.2409252,12.5595182 59.5701279,12.0195053 58.6968259,11.2980818 C57.6463321,10.4416552 56.769233,9.67424625 56.0684819,8.99880828 L58.2580654,8.99880828 C61.4686107,11.8845021 63.8058539,13.4412579 65.2655762,13.664857 L65.2655762,13.664857 Z M73.007167,14.7491016 C73.8846879,15.0195299 74.8170539,15.1752055 75.8084838,15.2216129 C77.2091422,15.2216129 77.8799394,14.8841048 77.8250944,14.2048699 L77.8250944,3.51852138 L79.5759174,3.51852138 L79.5759174,14.2048699 C79.6898263,15.6055283 78.6983964,16.2594501 76.5978307,16.1662135 C75.1376865,16.1244469 73.910001,15.6941241 72.9185711,14.8841048 C72.6274705,14.6562869 72.6570024,14.6140984 73.007167,14.7491016 L73.007167,14.7491016 Z" id="Fill-1"></path>
                </g>
                <polygon id="Fill-4" fill="#92D9F8" points="0 26.9586239 5.44653609 11.9099839 9.69913747 23.684374 8.51364046 26.9586239"></polygon>
                <g id="Group-8" transform="translate(31.219494, 0.000000)">
                    <mask id="mask-2" fill="white">
                        <use xlink:href="#path-1"></use>
                    </mask>
                    <g id="Clip-7"></g>
                    <polygon id="Fill-6" fill="#03D7A3" mask="url(#mask-2)" points="9.80038989 26.7221152 0.14765977 -8.43770115e-05 8.64020598 -8.43770115e-05 18.1410575 26.7221152"></polygon>
                </g>
                <polygon id="Fill-9" fill="#3CB6EC" points="18.8202502 27.2878208 18.8202502 27.2789613 16.3311284 34.1518907 6.73324333 9.22270268 15.2215707 9.22270268 20.5837298 22.4146265"></polygon>
                <g id="Group-13" transform="translate(17.719172, 3.375080)">
                    <mask id="mask-4" fill="white">
                        <use xlink:href="#path-3"></use>
                    </mask>
                    <g id="Clip-12"></g>
                    <polygon id="Fill-11" fill="#3BB5ED" mask="url(#mask-4)" points="9.09588403 32.5650966 8.66556127 33.7510155 0.15613966 33.7510155 6.02456081 17.5210974 6.02877966 17.5253162 12.3612744 0.0208833103 16.6138758 11.7961171 9.10010288 32.5697374"></polygon>
                </g>
            </g>
        </g>
    </g>
</svg>