<?xml version="1.0" encoding="UTF-8"?>
<svg width="148px" height="40px" viewBox="0 0 148 40" version="1.1" xmlns="http://www.w3.org/2000/svg" xmlns:xlink="http://www.w3.org/1999/xlink">
    <!-- Generator: Sketch 39.1 (31720) - http://www.bohemiancoding.com/sketch -->
    <title>Page 1</title>
    <desc>Created with Sketch.</desc>
    <defs>
        <polygon id="path-1" points="19.9787 0.463 0.6697 0.463 0.6697 28.9196 19.9787 28.9196 19.9787 0.463"></polygon>
        <polygon id="path-3" points="0.1835 36 17.8515 36 17.8515 0.0795 0.1835 0.0795"></polygon>
    </defs>
    <g id="Page-1" stroke="none" stroke-width="1" fill="none" fill-rule="evenodd">
        <g id="登录" transform="translate(-725.000000, -187.000000)">
            <g id="Page-1" transform="translate(725.000000, 186.000000)">
                <path d="M147.513,20.4276 C145.594,20.6086 144.371,19.9316 143.851,18.4076 C143.154,16.8836 142.487,15.4436 141.844,14.0996 L143.94,14.0996 C145.565,17.9126 146.786,19.9786 147.597,20.2936 C147.773,20.4276 147.743,20.4736 147.513,20.4276 L147.513,20.4276 Z M146.988,12.2816 C146.988,13.4486 146.232,14.0076 144.72,13.9656 C144.548,14.0076 144.519,13.9866 144.636,13.8976 C145.039,13.6246 145.245,13.1336 145.245,12.4156 L145.245,11.2016 C145.245,10.3496 144.548,9.9216 143.154,9.9216 L134.873,9.9216 C133.769,9.8796 132.867,10.1696 132.169,10.7996 C131.997,11.1146 131.85,11.3826 131.733,11.6056 C131.619,11.8316 131.56,11.9666 131.56,12.0126 C130.864,13.4906 129.641,14.1206 127.899,13.8976 C127.727,13.9396 127.727,13.9186 127.899,13.8306 C128.885,13.2886 130.166,11.0676 131.733,7.1626 L133.827,7.1626 C133.244,8.4186 132.783,9.3636 132.434,9.9926 C132.375,10.1696 132.345,10.2826 132.345,10.3286 C132.748,9.7446 133.593,9.4506 134.873,9.4506 L143.242,9.4506 C145.972,9.4086 147.219,9.9676 146.988,11.1356 L146.988,12.2816 Z M133.48,14.0996 C132.783,15.4436 132.111,16.8836 131.472,18.4076 C130.893,19.9316 129.671,20.6086 127.811,20.4276 C127.521,20.4736 127.492,20.4276 127.727,20.2936 C128.478,19.9786 129.701,17.9126 131.384,14.0996 L133.48,14.0996 Z M114.961,23.2536 L113.218,23.2536 L113.218,14.5026 L104.938,14.5026 L104.938,13.9656 L113.218,13.9656 L113.218,7.2966 L114.961,7.2966 L114.961,10.1946 L123.679,10.1946 L123.679,10.6646 L114.961,10.6646 L114.961,13.9656 L125.337,13.9656 L125.337,14.5026 L114.961,14.5026 L114.961,23.2536 Z M100.243,22.7166 L92.92,22.7166 C91.06,22.7626 90.186,22.0866 90.304,20.6966 L90.304,13.4236 L88.213,14.0326 L88.213,13.4906 L90.304,12.8856 L90.304,8.8466 L91.962,8.8466 L91.962,12.3486 L95.272,11.3366 L95.272,7.1626 L96.93,7.1626 L96.93,10.7996 L98.236,10.3956 C100.676,9.8126 101.986,10.3286 102.159,11.9456 L102.159,16.3206 C102.217,17.8026 101.491,18.4956 99.979,18.4076 C98.644,18.4536 97.627,18.2066 96.93,17.6686 L96.93,20.0246 L95.272,20.0246 L95.272,11.9456 L91.962,12.9526 L91.962,20.8306 C91.904,21.5946 92.513,21.9766 93.793,21.9766 L99.63,21.9766 C101.839,22.0656 103.145,20.9236 103.552,18.5426 C103.552,18.2276 103.581,18.0726 103.64,18.0726 C103.7,18.1176 103.758,18.3196 103.817,18.6766 C103.93,21.3676 102.742,22.7166 100.243,22.7166 L100.243,22.7166 Z M96.93,17.3956 C96.93,17.4886 96.959,17.5096 97.018,17.4636 C97.073,17.5096 97.191,17.5556 97.367,17.5976 C98.177,17.7786 98.761,17.8236 99.11,17.7366 C100.096,17.6896 100.562,17.0856 100.503,15.9176 L100.503,11.8736 C100.327,11.0256 99.601,10.7106 98.325,10.9336 L96.93,11.4036 L96.93,17.3956 Z M86.642,21.0996 C87.109,21.0996 87.575,20.9906 88.036,20.7636 C88.33,20.6756 88.679,20.5196 89.086,20.2936 C89.086,20.3396 88.998,20.4486 88.822,20.6296 C88.183,21.1666 87.05,21.5066 85.424,21.6406 L84.29,21.6406 C83.825,21.6406 83.333,21.6616 82.809,21.7086 L82.809,21.2336 L83.943,21.2336 L84.9,21.2336 L84.9,12.0126 L82.809,12.0126 L82.809,11.5376 L84.9,11.5376 L84.9,7.0956 L86.642,7.0956 L86.642,11.5376 L88.909,11.5376 L88.909,12.0126 L86.642,12.0126 L86.642,21.0996 Z M78.74,20.3606 L80.571,20.3606 L80.571,20.8976 L78.74,20.8976 L78.652,21.1666 C78.534,22.6026 77.518,23.2996 75.603,23.2536 C74.323,23.2536 72.987,22.8296 71.593,21.9766 C71.416,21.7966 71.475,21.7506 71.765,21.8426 C72.697,22.1116 73.861,22.2876 75.254,22.3806 C76.242,22.4686 76.821,22.0186 76.997,21.0316 L76.997,20.8976 L69.501,20.8976 C68.048,21.0316 67.494,20.4736 67.843,19.2146 L68.28,16.4556 L67.234,16.4556 L67.234,15.9846 L68.367,15.9846 L69.153,11.4036 C68.628,11.6306 67.931,11.7856 67.058,11.8736 C66.885,11.9206 66.797,11.9206 66.797,11.8736 C66.739,11.8316 66.797,11.7646 66.974,11.6726 C68.132,11.1806 69.065,9.6526 69.762,7.0956 L71.504,7.0956 C71.446,7.2756 71.358,7.5236 71.244,7.8346 C71.068,8.2836 70.95,8.6236 70.896,8.8466 L80.659,8.8466 L80.659,9.3166 L70.631,9.3166 C70.518,9.6776 70.312,10.1016 70.022,10.5976 L70.022,10.6646 C69.905,10.8866 69.762,11.0466 69.585,11.1356 L70.807,11.1356 L70.719,11.8736 C70.95,11.4286 71.563,11.2016 72.55,11.2016 L76.649,11.2016 C78.798,11.2016 79.785,11.7856 79.613,12.9526 L79.265,15.9846 L80.742,15.9846 L80.742,16.4556 L79.176,16.4556 L78.74,20.3606 Z M69.413,19.5536 C69.237,20.1796 69.556,20.4486 70.37,20.3606 L77.085,20.3606 L77.518,16.4556 L69.934,16.4556 L69.413,19.5536 Z M76.123,11.6726 L72.378,11.6726 C71.504,11.6726 70.925,11.8736 70.631,12.2816 L70.022,15.9846 L77.518,15.9846 L77.954,12.8186 C78.013,12.0546 77.4,11.6726 76.123,11.6726 L76.123,11.6726 Z M75.775,15.1746 C74.323,15.2666 73.478,15.0196 73.247,14.4356 C73.075,14.3016 72.811,14.0326 72.462,13.6246 C72.172,13.2216 71.971,12.9116 71.853,12.6846 L73.512,12.6846 C74.323,13.8516 75.108,14.6156 75.864,14.9726 C75.981,15.0656 76.006,15.1326 75.951,15.1746 L75.775,15.1746 Z M75.603,19.5536 C74.263,19.6886 73.423,19.4406 73.075,18.8106 C72.609,18.3616 72.172,17.7786 71.765,17.0596 L73.423,17.0596 C74.292,18.3616 75.048,19.1256 75.687,19.3486 C75.804,19.4406 75.864,19.5086 75.864,19.5536 C75.804,19.5956 75.716,19.5956 75.603,19.5536 L75.603,19.5536 Z M64.358,12.6166 C65.983,12.6636 66.797,13.2006 66.797,14.2336 L66.797,19.7556 C66.739,20.6966 66.974,21.3016 67.494,21.5736 C67.553,21.6156 67.553,21.6616 67.494,21.7086 L67.234,21.7086 C65.84,21.6616 65.198,21.0116 65.315,19.7556 L65.315,14.1666 C65.256,13.5366 64.937,13.1796 64.358,13.0876 L64.358,23.1866 L62.787,23.1866 L62.787,13.1546 C62.38,13.2466 62.061,13.4236 61.829,13.6926 L61.829,19.6886 C61.889,21.0316 61.187,21.7296 59.739,21.7756 C59.62,21.7296 59.591,21.6836 59.651,21.6406 C60.117,21.3676 60.347,20.7426 60.347,19.7556 L60.347,12.6166 L61.829,12.6166 L61.829,13.4906 C62.002,13.1336 62.321,12.8856 62.787,12.7516 L62.787,10.5306 L59.739,10.5306 L59.739,9.9926 L62.787,9.9926 L62.787,7.1626 L64.358,7.1626 L64.358,9.9926 L67.407,9.9926 L67.407,10.5306 L64.358,10.5306 L64.358,12.6166 Z M124.552,20.6966 C124.665,20.7426 124.724,20.7886 124.724,20.8306 C124.724,20.8766 124.665,20.8976 124.552,20.8976 C122.167,20.9906 120.656,20.6756 120.017,19.9576 C119.551,19.5956 118.883,19.0586 118.014,18.3406 C116.968,17.4886 116.095,16.7236 115.398,16.0526 L117.577,16.0526 C120.773,18.9246 123.099,20.4736 124.552,20.6966 L124.552,20.6966 Z M132.257,21.7756 C133.131,22.0446 134.059,22.1996 135.045,22.2456 C136.44,22.2456 137.108,21.9096 137.053,21.2336 L137.053,10.5976 L138.795,10.5976 L138.795,21.2336 C138.909,22.6286 137.922,23.2786 135.83,23.1866 C134.378,23.1446 133.156,22.7166 132.169,21.9096 C131.879,21.6836 131.909,21.6406 132.257,21.7756 L132.257,21.7756 Z" id="Fill-1" fill="#4A4A4A"></path>
                <g id="Group-5" transform="translate(59.000000, 29.536800)" fill="#4A4A4A">
                    <path d="M88.4368,8.9431 C88.2448,8.9431 88.0588,8.8501 87.8828,8.6741 L80.5728,1.3171 L80.5728,8.6281 C80.5728,8.8381 80.4248,8.9431 80.1268,8.9431 C79.8298,8.9431 79.6818,8.8381 79.6818,8.6281 L79.6818,0.3221 C79.6818,0.1331 79.8078,0.0411 80.0598,0.0411 C80.2948,0.0411 80.4968,0.1251 80.6608,0.2931 L87.8828,7.6031 L87.8828,0.3561 C87.8828,0.1461 88.0298,0.0411 88.3288,0.0411 C88.6258,0.0411 88.7728,0.1461 88.7728,0.3561 L88.7728,8.6281 C88.7728,8.8381 88.6598,8.9431 88.4368,8.9431 L88.4368,8.9431 Z M73.1658,8.9891 C72.0228,9.0521 71.0058,8.8421 70.1128,8.3591 C69.1168,7.8221 68.6218,7.0871 68.6218,6.1541 L68.6218,0.4021 C68.6218,0.1921 68.7688,0.0871 69.0668,0.0871 C69.3648,0.0871 69.5118,0.1921 69.5118,0.4021 L69.5118,6.1541 C69.5118,6.8771 69.9068,7.4521 70.6918,7.8721 C71.3928,8.2371 72.1948,8.4011 73.1018,8.3591 C75.2858,8.2631 76.3768,7.5031 76.3768,6.0751 L76.3768,0.4021 C76.3768,0.1921 76.5248,0.0871 76.8228,0.0871 C77.1208,0.0871 77.2678,0.1921 77.2678,0.4021 L77.2678,6.0751 C77.2678,7.8811 75.8988,8.8501 73.1658,8.9891 L73.1658,8.9891 Z M62.8728,4.7811 L62.8728,8.6281 C62.8728,8.8381 62.7258,8.9431 62.4278,8.9431 C62.1288,8.9431 61.9828,8.8381 61.9828,8.6281 L61.9828,4.7441 L57.8128,0.5741 C57.7538,0.5241 57.7248,0.4641 57.7248,0.4021 C57.7248,0.1921 57.8798,0.0871 58.1958,0.0871 C58.3298,0.0871 58.4428,0.1331 58.5308,0.2251 L62.4118,4.1431 L66.1818,0.2341 C66.2698,0.1371 66.3878,0.0871 66.5348,0.0871 C66.8578,0.0871 67.0178,0.1921 67.0178,0.4021 C67.0178,0.4641 66.9888,0.5241 66.9288,0.5741 L62.8728,4.7811 Z M58.6778,8.6531 C58.6778,8.8461 58.5188,8.9431 58.1958,8.9431 C58.0018,8.9431 57.8718,8.8761 57.7958,8.7501 L56.9398,7.2251 L50.0698,7.2251 L49.2428,8.7501 C49.1668,8.8761 49.0368,8.9431 48.8438,8.9431 C48.5208,8.9431 48.3608,8.8461 48.3608,8.6531 C48.3608,8.6111 48.3738,8.5731 48.4068,8.5311 L52.9088,0.2301 C53.0548,0.0831 53.2278,0.0071 53.4208,0.0071 C53.6258,0.0071 53.8068,0.0831 53.9548,0.2301 L58.6358,8.5311 C58.6658,8.5731 58.6778,8.6111 58.6778,8.6531 L58.6778,8.6531 Z M53.4248,0.9891 L50.4108,6.5951 L56.5828,6.5951 L53.4248,0.9891 Z M42.7008,8.3591 C43.9348,8.3591 44.9808,7.9681 45.8448,7.1921 C45.9338,7.1081 46.0508,7.0661 46.1988,7.0661 C46.5128,7.0661 46.6678,7.1751 46.6678,7.3981 C46.6678,7.4731 46.6308,7.5401 46.5548,7.6031 C45.9338,8.1281 45.3298,8.4891 44.7418,8.6911 C44.1538,8.8881 43.4598,8.9891 42.6588,8.9891 C41.3478,8.9891 40.2778,8.5731 39.4458,7.7461 C38.6148,6.9151 38.1988,5.8101 38.1988,4.4371 C38.1988,2.9341 38.6988,1.8001 39.6938,1.0321 C40.5078,0.4021 41.4988,0.0871 42.6588,0.0871 C43.5478,0.0871 44.2668,0.1921 44.8078,0.4021 C45.3498,0.6121 45.8288,0.9821 46.2448,1.5061 C46.2908,1.5561 46.3118,1.6111 46.3118,1.6611 C46.3118,1.8711 46.1568,1.9761 45.8448,1.9761 C45.6948,1.9761 45.5768,1.9261 45.4888,1.8211 C44.8918,1.0871 43.9638,0.7171 42.7008,0.7171 C41.7508,0.7171 40.9498,0.9891 40.2938,1.5361 C39.4928,2.2081 39.0888,3.1731 39.0888,4.4371 C39.0888,5.5791 39.4418,6.5201 40.1388,7.2551 C40.8358,7.9891 41.6928,8.3591 42.7008,8.3591 L42.7008,8.3591 Z M35.2348,8.9431 C34.9408,8.9431 34.7898,8.8381 34.7898,8.6281 L34.7898,0.4021 C34.7898,0.1921 34.9408,0.0871 35.2348,0.0871 C35.5328,0.0871 35.6788,0.1921 35.6788,0.4021 L35.6788,8.6281 C35.6788,8.8381 35.5328,8.9431 35.2348,8.9431 L35.2348,8.9431 Z M28.0248,8.6401 C27.1758,8.7581 25.7738,8.8171 23.8088,8.8171 L23.8088,0.0871 C26.7228,0.0871 28.7008,0.2591 29.7378,0.6081 C31.4468,1.1621 32.3028,2.3671 32.3028,4.2141 C32.3028,5.6551 31.9008,6.7301 31.0978,7.4431 C30.4308,8.0531 29.4058,8.4521 28.0248,8.6401 L28.0248,8.6401 Z M29.2718,1.1411 C28.4398,0.8601 26.9158,0.7171 24.7028,0.7171 L24.7028,8.1871 C26.8988,8.1871 28.4228,8.0191 29.2718,7.6831 C30.6948,7.1251 31.4088,5.9701 31.4088,4.2141 C31.4088,2.6611 30.6948,1.6361 29.2718,1.1411 L29.2718,1.1411 Z M21.0708,8.1871 C21.3688,8.1871 21.5158,8.2921 21.5158,8.5021 C21.5158,8.7121 21.3688,8.8171 21.0708,8.8171 L13.3148,8.8171 L13.3148,0.0871 L21.0708,0.0871 C21.3688,0.0871 21.5158,0.1921 21.5158,0.4021 C21.5158,0.6121 21.3688,0.7171 21.0708,0.7171 L14.2058,0.7171 L14.2058,3.6481 L20.6668,3.6481 C20.9658,3.6481 21.1168,3.7531 21.1168,3.9631 C21.1168,4.1721 20.9658,4.2771 20.6668,4.2771 L14.2058,4.2771 L14.2058,8.1871 L21.0708,8.1871 Z M10.2878,8.9431 C9.9898,8.9431 9.8418,8.8381 9.8418,8.6281 L9.8418,1.0651 L6.2058,4.7981 C6.0588,4.9451 5.8738,5.0171 5.6518,5.0171 C5.4288,5.0171 5.2398,4.9451 5.0928,4.7981 L1.4818,1.0651 L1.4818,8.6281 C1.4818,8.8381 1.3348,8.9431 1.0368,8.9431 C0.7388,8.9431 0.5908,8.8381 0.5908,8.6281 L0.5908,0.4481 C0.5908,0.2091 0.7478,0.0871 1.0578,0.0871 C1.3518,0.0871 1.6118,0.1961 1.8338,0.4191 L5.6388,4.2441 L9.4138,0.4141 C9.6538,0.1961 9.9218,0.0871 10.2198,0.0871 C10.5478,0.0871 10.7078,0.2171 10.7078,0.4781 L10.7078,8.6281 C10.7078,8.8381 10.5688,8.9431 10.2878,8.9431 L10.2878,8.9431 Z" id="Fill-3"></path>
                </g>
                <polygon id="Fill-6" fill="#92D9F9" points="0.0003 29.7108 5.8453 13.6818 10.4103 26.2228 9.1393 29.7108"></polygon>
                <g id="Group-10" transform="translate(33.000000, 0.536800)">
                    <mask id="mask-2" fill="white">
                        <use xlink:href="#path-1"></use>
                    </mask>
                    <g id="Clip-9"></g>
                    <polygon id="Fill-8" fill="#03D7A3" mask="url(#mask-2)" points="11.0267 28.9196 0.6697 0.4626 9.7807 0.4626 19.9787 28.9196"></polygon>
                </g>
                <polygon id="Fill-11" fill="#3CB6EC" points="20.2015 30.0585 20.1985 30.0505 17.5295 37.3695 7.2275 10.8215 16.3385 10.8215 22.0935 24.8705"></polygon>
                <g id="Group-15" transform="translate(19.000000, 4.536800)">
                    <mask id="mask-4" fill="white">
                        <use xlink:href="#path-3"></use>
                    </mask>
                    <g id="Clip-14"></g>
                    <polygon id="Fill-13" fill="#3BB5ED" mask="url(#mask-4)" points="9.7815 34.7385 9.3225 36.0005 0.1835 36.0005 6.4875 18.7145 6.4895 18.7225 13.2865 0.0795 17.8515 12.6205 9.7865 34.7405"></polygon>
                </g>
            </g>
        </g>
    </g>
</svg>