<?xml version="1.0" encoding="UTF-8"?>
<svg width="34px" height="36px" viewBox="0 0 34 36" version="1.1" xmlns="http://www.w3.org/2000/svg" xmlns:xlink="http://www.w3.org/1999/xlink">
    <!-- Generator: Sketch 45.2 (43514) - http://www.bohemiancoding.com/sketch -->
    <title>Group</title>
    <desc>Created with Sketch.</desc>
    <defs></defs>
    <g id="Page-1" stroke="none" stroke-width="1" fill="none" fill-rule="evenodd">
        <g id="06--1A-4-创建新公司-邀请同事-Copy" transform="translate(-32.000000, -14.000000)" fill="#212121">
            <g id="Group" transform="translate(32.000000, 14.000000)">
                <path d="M31.2883927,24.5042017 C32.9629983,21.9649107 33.8823529,18.948426 33.8823529,15.7892696 C33.8823529,8.62704917 29.1396823,2.43534289 22.4857064,0.747751294 C20.8633873,0.236003031 19.1459432,0 17.394958,0 C7.77364475,0 0,8.07263109 0,18 C0,27.9273689 7.77364475,36 17.394958,36 C19.6038969,36 21.7582035,35.5729657 23.7716802,34.7517642 L22.5149615,31.6704573 C20.8983542,32.3297946 19.1706367,32.6722689 17.394958,32.6722689 C9.64018631,32.6722689 3.32773109,26.1170269 3.32773109,18 C3.32773109,9.88297305 9.64018631,3.32773109 17.394958,3.32773109 C21.423884,3.32773109 25.267203,5.02621512 27.9213105,8.08823523 C29.5744519,10.1978457 30.5546218,12.8889077 30.5546218,15.7892696 C30.5546218,18.7732307 29.5233058,21.5839652 27.683739,23.7828588 L29.0420168,24.919177 L29.0420168,24.5042017 L31.2883927,24.5042017 Z" id="Combined-Shape"></path>
                <path d="M27.0655395,24.0806741 L27.0601208,24.0806741 L23.0175532,14.5569817 L19.4897038,27.3647579 C19.3512366,28.2298062 18.6015444,28.8907563 17.697479,28.8907563 C16.9813401,28.8907563 16.3620662,28.4760282 16.0667314,27.8736461 L16.0611405,27.8758371 L16.0143455,27.7564302 C16.0092972,27.7439615 16.0043834,27.731424 15.999606,27.7188194 L12.4159598,18.5744319 L10.5475527,24.6857161 L6.751428,24.6857161 L10.5374519,12.3021901 L10.5478924,12.3053821 C10.8226089,11.6520398 11.4686577,11.1932773 12.2218561,11.1932773 C13.1160235,11.1932773 13.8591794,11.839834 14.0093137,12.6909371 L17.38998,21.3173808 L20.7193176,9.23029702 C20.8683139,8.36920546 21.6190229,7.71428571 22.5226965,7.71428571 C23.3321088,7.71428571 24.0188033,8.23970311 24.2603191,8.96807705 L29.672393,21.7181242 C30.7540754,21.8711261 31.5771466,22.6473906 31.5771466,23.5819943 C31.5771466,24.6264942 30.5491322,25.4732287 29.2810121,25.4732287 C28.2224485,25.4732287 27.3311924,24.8832172 27.0655395,24.0806741 Z" id="Combined-Shape"></path>
            </g>
        </g>
    </g>
</svg>