<?xml version="1.0" encoding="UTF-8"?>
<svg width="40px" height="40px" viewBox="0 0 40 40" version="1.1" xmlns="http://www.w3.org/2000/svg" xmlns:xlink="http://www.w3.org/1999/xlink">
    <!-- Generator: Sketch 45.2 (43514) - http://www.bohemiancoding.com/sketch -->
    <title>随访</title>
    <desc>Created with Sketch.</desc>
    <defs></defs>
    <g id="Page-1" stroke="none" stroke-width="1" fill="none" fill-rule="evenodd">
        <g id="随访" fill="#458DF1">
            <path d="M26.75,24.493479 C25.856687,24.1045155 25.0270582,23.5151253 25.0147396,22.7300284 C24.9985244,21.8042493 25.1390556,20.9592068 25.7498256,20.2110482 C27.2686431,18.3379604 28.2469561,16.1311615 28.8577261,13.7144476 C29.3982306,11.5614731 29.5333567,9.39235125 29.1225733,7.20169972 C28.71179,4.98413599 27.7605021,3.10566571 26.0741283,1.77082154 C24.5499058,0.559773385 22.8959622,0 21.1555379,0 C20.436667,0 19.7015809,0.0968838527 18.9556848,0.279886672 C16.058581,0.995750682 14.1235751,2.96572235 13.1830974,6.07677053 C12.5074668,8.31586403 12.5182769,10.6087819 12.9777057,12.8909348 C13.5668555,15.792068 14.71813,17.4444759 16.55044,19.6512748 C16.6207056,19.7373938 16.7125914,19.8235128 16.7504267,19.925779 C17.3882219,21.5674221 15.9937205,24.1402266 14.2857264,24.7269122 C12.9614905,25.1844192 11.6480648,25.6796034 10.3670692,26.2286119 C8.32396245,27.1005666 6.3565263,28.0909348 4.63772218,29.4365439 C3.55671329,30.2815864 2.51894476,31.1912182 2.16761686,32.4937677 C1.98925039,33.1611898 2.01627563,33.8770538 2.0000605,34.5767705 C1.99465547,35.4648725 2.3513884,36.2668555 3.08647442,36.8696884 C3.61076372,37.3002833 4.82149368,38 4.82149368,38 L10.8102829,37.9892352 L22.5999756,37.9892352 L22.5999756,26.4852312 C22.5999756,25.930055 23.0449219,25.4799957 23.5933733,25.4799957 L26.75,25.4799957 L26.75,24.493479 Z" id="Combined-Shape"></path>
            <path d="M0.374214241,30.8943721 C0.120713623,30.5204642 -0.00273112824,30.0891391 4.58155679e-05,29.6274413 C0.0123258162,29.0912421 -0.00814086172,28.542669 0.126939145,28.0312174 C0.393005834,27.0330619 1.17892587,26.3360029 1.99759259,25.6884392 C3.29927265,24.6572868 4.78924604,23.8983587 6.33652612,23.2301719 C7.30664616,22.8094618 8.30132621,22.4299977 9.30419294,22.0794059 C10.5976863,21.6298234 11.6537664,19.6582601 11.170753,18.4002542 C11.1420997,18.3218866 11.072513,18.2558928 11.0192997,18.1898991 C9.6316596,16.4988092 8.75977956,15.2325541 8.31360621,13.0093895 C7.96567287,11.2605551 7.9574862,9.50347143 8.4691529,7.78763386 C8.99215104,6.03704384 9.92125806,4.75793705 11.2467499,3.98460789 C11.0539227,4.64090644 10.8969182,5.37687405 10.7161472,6.18447463 C10.2249185,8.35245353 10.272232,10.4321828 10.7161469,12.5987267 C11.2854026,15.3528946 12.3171673,16.9711998 13.676764,19.0166021 C13.9037731,19.3581187 14.0877182,19.5480181 14.3614722,20.0808207 C14.9777306,20.8356814 13.6303181,23.2781531 11.9799989,23.8351184 C10.7004793,24.2694491 9.43140478,24.7395483 8.19366541,25.2607451 C6.21954946,26.0885284 4.31854892,27.0287267 2.6577847,28.3061701 C1.70405319,29.0386851 0.785155525,29.8223229 0.374214241,30.8943721 Z" id="Combined-Shape"></path>
            <path d="M28.0000408,27 C28.0000136,26.9968808 28,26.9937578 28,26.9906311 L28,25.0093689 C28,24.4519098 28.4530363,24 28.9970301,24 L35.0029699,24 C35.5536144,24 36,24.4433532 36,25.0093689 L36,26.9906311 C36,26.9937574 35.9999858,26.9968804 35.9999573,27 L38.9991283,27 C39.5518945,27 40,27.4474894 40,27.9985023 L40,39.0014977 C40,39.5529553 39.5553691,40 38.9991283,40 L25.0008717,40 C24.4481055,40 24,39.5525106 24,39.0014977 L24,27.9985023 C24,27.4470447 24.4446309,27 25.0008717,27 L28.0000408,27 Z M31.5,35 L29.9976988,35 C29.7148438,35 29.5,35.2238576 29.5,35.5 C29.5,35.7680664 29.7228273,36 29.9976988,36 L31.5,36 L31.5,37.5023012 C31.5,37.7851562 31.7238576,38 32,38 C32.2680664,38 32.5,37.7771727 32.5,37.5023012 L32.5,36 L34.0023012,36 C34.2851562,36 34.5,35.7761424 34.5,35.5 C34.5,35.2319336 34.2771727,35 34.0023012,35 L32.5,35 L32.5,33.4976988 C32.5,33.2148438 32.2761424,33 32,33 C31.7319336,33 31.5,33.2228273 31.5,33.4976988 L31.5,35 Z M24,30 L24,31 L40,31 L40,30 L24,30 Z M29,26 L29,27 L35,27 L35,26 C35,25.4438648 34.5564136,25 34.009222,25 L29.990778,25 C29.4509752,25 29,25.4477153 29,26 Z" id="Combined-Shape"></path>
        </g>
    </g>
</svg>