<?xml version="1.0" encoding="UTF-8"?>
<svg width="40px" height="40px" viewBox="0 0 40 40" version="1.1" xmlns="http://www.w3.org/2000/svg" xmlns:xlink="http://www.w3.org/1999/xlink">
    <!-- Generator: Sketch 39.1 (31720) - http://www.bohemiancoding.com/sketch -->
    <title>Group 5</title>
    <desc>Created with Sketch.</desc>
    <defs></defs>
    <g id="Page-1" stroke="none" stroke-width="1" fill="none" fill-rule="evenodd">
        <g id="Group-5">
            <rect id="Rectangle-11" x="0" y="0" width="40" height="40"></rect>
            <path d="M21.9207197,39.0702893 L20.9069124,39.5638824 C20.4121998,39.8047435 19.6008749,39.8002462 19.1153993,39.5638824 L0.367578758,30.4361176 C-0.127133926,30.1952565 -0.117896818,29.8002462 0.367578758,29.5638824 L7.68755568,26 L18.0183193,31.0297462 C18.0556293,31.6444169 18.1452829,32.2578992 18.2438545,32.7812293 C18.5128413,34.2021657 19.5563282,35.3405443 21.061364,35.3405443 C21.1054894,35.3402094 21.1054894,35.3402094 21.1640892,35.3403155 C21.4932903,35.3403155 21.7644322,35.6114557 21.7644322,35.9406585 C21.7644322,35.945675 21.713846,36.1154054 21.7096388,36.1249 C21.279251,37.0936044 21.3803449,38.1960253 21.9207197,39.0702893 Z" id="Combined-Shape" fill="#458DF1"></path>
            <path d="M37.7141033,21.3707113 L39.6326262,20.4361176 C40.1178311,20.1997538 40.1270631,19.8047435 39.6326262,19.5638824 L32.31673,16 L20.8952572,21.5638824 C20.4008203,21.8047435 19.5899477,21.8002462 19.1047428,21.5638824 L7.68326999,16 L0.367373839,19.5638824 C-0.117831093,19.8002462 -0.127063051,20.1952565 0.367373839,20.4361176 L18.0844789,29.0668687 C18.1264594,28.7330381 18.1788242,28.4118685 18.2339598,28.1191319 C18.5065168,26.6771835 19.5799743,25.5258053 21.0653773,25.5615087 L21.1523134,25.5615087 C21.4813212,25.5615087 21.7523217,25.2903554 21.7523217,24.9611429 C21.7523217,24.9579674 21.700277,24.7833007 21.6976053,24.7771459 C21.0873655,23.4019499 21.5471348,21.7609881 22.7825622,20.9021885 L22.985903,20.7742259 L25.5733633,19.352134 L25.7547406,19.2640542 C26.1765544,19.0841343 26.6028504,19 27.0369919,19 C27.9336829,19 28.812359,19.3614817 29.4231348,20.0055048 C29.5232087,20.1103213 29.7303101,20.2852031 29.9254999,20.4135524 C30.0267194,20.4801105 30.114847,20.527995 30.1759417,20.5527158 C30.1731312,20.5515786 30.1324247,20.5422277 30.0355355,20.5422277 C29.9399989,20.5422277 29.9001244,20.5512839 29.8976272,20.5522823 C29.9582408,20.5280494 30.0456014,20.4811734 30.1459487,20.4160383 C30.3393207,20.2905211 30.5445533,20.1195551 30.6392483,20.0217826 C31.252914,19.3842439 32.1247153,19.0295593 33.0123566,19.0295593 C33.4543779,19.0295593 33.8881706,19.1166552 34.2980611,19.2948749 L34.492346,19.3897217 L36.9914982,20.7788683 L37.1709358,20.8914515 C37.3731249,21.0326226 37.5545641,21.1938324 37.7141033,21.3707113 Z" id="Combined-Shape" fill="#458DF1"></path>
            <path d="M19.120775,0.178963332 C19.6156268,-0.0618977849 20.4271798,-0.0574005079 20.9127919,0.178963332 L39.6658848,9.30672807 C40.1607367,9.54758919 40.1514969,9.94259949 39.6658848,10.1789633 L20.9127919,19.3067281 C20.4179401,19.5475892 19.6063871,19.5430919 19.120775,19.3067281 L0.36768213,10.1789633 C-0.127169679,9.93810222 -0.117929974,9.54309191 0.36768213,9.30672807 L19.120775,0.178963332 Z" id="Polygon" fill="#458DF1"></path>
            <path d="M29,29.4003906 L26,29.4003906 L26,31.4003906 L29,31.4003906 L29,34.4003906 L31,34.4003906 L31,31.4003906 L34,31.4003906 L34,29.4003906 L31,29.4003906 L31,26.4003906 L29,26.4003906 L29,29.4003906 Z M32.9978254,39.8858549 L32.997711,39.8858549 C32.6339632,39.8857634 32.2803277,39.7353591 32.0518842,39.4833277 C31.7407115,39.1421611 30.7548243,38.2550181 29.9477337,38.2550181 C29.1462255,38.2550181 28.1450095,39.1473317 27.8574476,39.4598314 C27.6295991,39.7075615 27.2784573,39.8554949 26.9181642,39.8554949 C26.7465056,39.8554949 26.5846162,39.8225725 26.4367285,39.7575971 L26.4108527,39.7462493 L23.9577569,38.3744219 L23.9333911,38.3574459 C23.4867767,38.0448319 23.316834,37.4333081 23.5381622,36.9351482 C23.5398552,36.9313274 23.7644322,36.4131028 23.7644322,35.9406585 C23.7644322,34.5068756 22.5978492,33.3403155 21.1640892,33.3403155 L21.0771045,33.3403155 C21.0717967,33.3404299 21.0665117,33.3405443 21.061364,33.3405443 C20.6506005,33.3405443 20.3161831,32.9756754 20.209294,32.41103 C20.2007831,32.3658447 20,31.2948259 20,30.4509693 C20,29.6071127 20.2007831,28.5359567 20.209294,28.4907942 C20.3174414,27.9189649 20.6591571,27.5516251 21.0771274,27.5615087 L21.1641121,27.5615087 C22.5978721,27.5615087 23.764455,26.3949258 23.764455,24.9611429 C23.764455,24.4888129 23.5399925,23.9707027 23.537636,23.965555 C23.3166281,23.467784 23.4877147,22.8564204 23.936228,22.544813 L23.9616233,22.5271736 L26.550527,21.1050817 L26.577478,21.0936424 C26.7233066,21.0314582 26.882931,21 27.052073,21 C27.4115883,21 27.7633935,21.1446618 27.9933698,21.3870155 C28.2998295,21.7078201 29.2683519,22.5422277 30.0522892,22.5422277 C30.828791,22.5422277 31.7914793,21.7243613 32.0968866,21.409162 C32.3255359,21.1717501 32.674916,21.0295593 33.0307707,21.0295593 C33.2033215,21.0295593 33.365966,21.0621842 33.5141282,21.1265648 L33.5403243,21.1380499 L36.0408705,22.5271965 L36.0654879,22.5445156 C36.5128801,22.8566721 36.6832804,23.468173 36.4618379,23.966699 C36.4601448,23.9705197 36.235545,24.4887214 36.235545,24.9611658 C36.235545,26.3949487 37.402128,27.5615316 38.8358879,27.5615316 L38.9228955,27.5615316 C39.3402709,27.5521971 39.6824442,27.9188963 39.790706,28.4908171 C39.7992397,28.5360025 40,29.6070442 40,30.4508778 C40,31.2947115 39.7992397,32.3658905 39.7905916,32.411053 C39.6824442,32.9828594 39.3402709,33.3488722 38.9227811,33.3403384 L38.8358879,33.3403384 C37.4021279,33.3403384 36.235545,34.5068985 36.235545,35.9406814 C36.235545,36.4130114 36.4600304,36.9309843 36.4622725,36.9361548 C36.6831431,37.4335827 36.512514,38.0451065 36.0647786,38.3570113 L36.0397265,38.3745592 L33.4970378,39.7799039 L33.4704985,39.791389 C33.325036,39.8540536 33.1659836,39.8858549 32.9978254,39.8858549 Z" id="Combined-Shape" fill="#458DF1"></path>
        </g>
    </g>
</svg>