<?xml version="1.0" encoding="UTF-8"?>
<svg width="160px" height="160px" viewBox="0 0 160 160" version="1.1" xmlns="http://www.w3.org/2000/svg" xmlns:xlink="http://www.w3.org/1999/xlink">
    <!-- Generator: Sketch 45.2 (43514) - http://www.bohemiancoding.com/sketch -->
    <title>02</title>
    <desc>Created with Sketch.</desc>
    <defs></defs>
    <g id="Page-1" stroke="none" stroke-width="1" fill="none" fill-rule="evenodd">
        <g id="Artboard-Copy-6" transform="translate(-100.000000, -880.000000)" stroke="#458DF1">
            <g id="02" transform="translate(100.000000, 880.000000)">
                <circle id="Oval-Copy" stroke-opacity="0.12" stroke-width="8" cx="80" cy="80" r="76"></circle>
                <g id="Group" transform="translate(49.000000, 48.000000)" stroke-width="4">
                    <path d="M24.4810961,2 L24.4810961,11.0926137 L23.2315259,11.5984268 C21.3347161,12.3662359 19.5556369,13.3967066 17.9440154,14.656573 L16.8808867,15.4876614 L9.00033395,10.9378222 L2.00033395,23.0621778 L9.87671159,27.6096066 L9.69147163,28.943449 C9.5517151,29.9497826 9.48109606,30.9701754 9.48109606,32 C9.48109606,33.0298246 9.5517151,34.0502174 9.69147163,35.056551 L9.87671159,36.3903934 L2.00033395,40.9378222 L9.00033395,53.0621778 L16.8808867,48.5123386 L17.9440154,49.343427 C19.5556369,50.6032934 21.3347161,51.6337641 23.2315259,52.4015732 L24.4810961,52.9073863 L24.4810961,62 L38.4810961,62 L38.4810961,52.9073863 L39.7306663,52.4015732 C41.6274761,51.6337641 43.4065552,50.6032934 45.0181767,49.343427 L46.0813054,48.5123386 L53.9618582,53.0621778 L60.9618582,40.9378222 L53.0854805,36.3903934 L53.2707205,35.056551 C53.410477,34.0502174 53.4810961,33.0298246 53.4810961,32 C53.4810961,30.9701754 53.410477,29.9497826 53.2707205,28.943449 L53.0854805,27.6096066 L60.9618582,23.0621778 L53.9618582,10.9378222 L46.0813054,15.4876614 L45.0181767,14.656573 C43.4065552,13.3967066 41.6274761,12.3662359 39.7306663,11.5984268 L38.4810961,11.0926137 L38.4810961,2 L24.4810961,2 Z" id="Combined-Shape"></path>
                    <circle id="Oval-4" cx="31.4799957" cy="32" r="10"></circle>
                </g>
            </g>
        </g>
    </g>
</svg>