<?xml version="1.0" encoding="UTF-8"?>
<svg width="216px" height="197px" viewBox="0 0 216 197" version="1.1" xmlns="http://www.w3.org/2000/svg" xmlns:xlink="http://www.w3.org/1999/xlink">
    <!-- Generator: Sketch 39.1 (31720) - http://www.bohemiancoding.com/sketch -->
    <title>我的工作日志-搜索无结果</title>
    <desc>Created with Sketch.</desc>
    <defs>
        <rect id="path-1" x="0" y="16" width="151.578947" height="123.451777" rx="2"></rect>
        <mask id="mask-2" maskContentUnits="userSpaceOnUse" maskUnits="objectBoundingBox" x="0" y="0" width="151.578947" height="123.451777" fill="white">
            <use xlink:href="#path-1"></use>
        </mask>
    </defs>
    <g id="Page-1" stroke="none" stroke-width="1" fill="none" fill-rule="evenodd">
        <g id="项目首页-我的工作日志-搜索结果空" transform="translate(-584.000000, -389.000000)">
            <g id="我的工作日志-搜索无结果" transform="translate(584.000000, 373.000000)">
                <g id="Group-2" transform="translate(22.000000, 0.000000)">
                    <rect id="Rectangle-2" fill-opacity="1.49011614e-09" fill="#D8D8D8" x="6" y="0" width="160" height="160"></rect>
                    <use id="Rectangle-11" stroke-opacity="0.12" stroke="#000000" mask="url(#mask-2)" stroke-width="2" fill="#FFFFFF" xlink:href="#path-1"></use>
                    <rect id="Rectangle-11" fill-opacity="0.12" fill="#000000" x="0" y="16" width="151.578947" height="18.1928934" rx="2"></rect>
                    <rect id="Rectangle-11-Copy" fill-opacity="0.12" fill="#000000" x="15.5465587" y="49.786802" width="51.8218623" height="2.59898477"></rect>
                    <rect id="Rectangle-11-Copy" fill-opacity="0.12" fill="#000000" x="15.5465587" y="65.3807107" width="40.1619433" height="2.59898477"></rect>
                    <rect id="Rectangle-11-Copy" fill-opacity="0.12" fill="#000000" x="15.5465587" y="80.9746193" width="36.2753036" height="2.59898477"></rect>
                    <rect id="Rectangle-11-Copy" fill-opacity="0.12" fill="#000000" x="15.5465587" y="96.5685279" width="37.5708502" height="2.59898477"></rect>
                    <rect id="Rectangle-11-Copy" fill-opacity="0.12" fill="#000000" x="15.5465587" y="112.162437" width="47.9352227" height="2.59898477"></rect>
                    <path d="M157.586605,129.859503 L133.876377,106.07078 C133.600405,105.795514 133.295522,105.585321 133.004353,105.356285 C137.009476,99.1908695 139.348204,91.8469302 139.348204,83.9363376 C139.348204,62.2038031 121.79119,44.5888325 100.119446,44.5888325 C78.4598325,44.5888325 60.8906883,62.2038031 60.8906883,83.9363376 C60.8906883,105.671922 78.4598325,123.28305 100.119446,123.28305 C108.002984,123.28305 115.333094,120.931069 121.489363,116.912848 C121.713548,117.21168 121.919249,117.508937 122.190694,117.782055 L145.903977,141.573707 C147.523,143.192924 149.631533,144 151.743132,144 C153.856204,144 155.966209,143.193045 157.58376,141.57754 C160.804939,138.338896 160.804939,133.09569 157.586605,129.859503 M100.119446,110.858073 C85.3234429,110.858073 73.2793963,98.7791715 73.2793963,83.9363486 C73.2793963,69.0957832 85.3235536,57.0137211 100.119446,57.0137211 C114.915339,57.0137211 126.959496,69.0957832 126.959496,83.9363486 C126.959496,98.7790504 114.915339,110.858073 100.119446,110.858073" id="Shape" fill-opacity="0.12" fill="#000000"></path>
                    <path d="M157.586605,129.859503 L133.876377,106.07078 C133.600405,105.795514 133.295522,105.585321 133.004353,105.356285 C137.009476,99.1908695 139.348204,91.8469302 139.348204,83.9363376 C139.348204,62.2038031 121.79119,44.5888325 100.119446,44.5888325 C78.4598325,44.5888325 60.8906883,62.2038031 60.8906883,83.9363376 C60.8906883,105.671922 78.4598325,123.28305 100.119446,123.28305 C108.002984,123.28305 115.333094,120.931069 121.489363,116.912848 C121.713548,117.21168 121.919249,117.508937 122.190694,117.782055 L145.903977,141.573707 C147.523,143.192924 149.631533,144 151.743132,144 C153.856204,144 155.966209,143.193045 157.58376,141.57754 C160.804939,138.338896 160.804939,133.09569 157.586605,129.859503 M100.119446,110.858073 C85.3234429,110.858073 73.2793963,98.7791715 73.2793963,83.9363486 C73.2793963,69.0957832 85.3235536,57.0137211 100.119446,57.0137211 C114.915339,57.0137211 126.959496,69.0957832 126.959496,83.9363486 C126.959496,98.7790504 114.915339,110.858073 100.119446,110.858073" id="Shape" fill="#E0E0E0"></path>
                </g>
                <text id="没有任何可显示的搜索结果" font-family="PingFangSC-Regular, PingFang SC" font-size="18" font-weight="normal" fill-opacity="0.54" fill="#000000">
                    <tspan x="0" y="211">没有任何可显示的搜索结果</tspan>
                </text>
            </g>
        </g>
    </g>
</svg>