<?xml version="1.0" encoding="UTF-8"?>
<svg width="300px" height="300px" viewBox="0 0 300 300" version="1.1" xmlns="http://www.w3.org/2000/svg" xmlns:xlink="http://www.w3.org/1999/xlink">
    <!-- Generator: Sketch 45.2 (43514) - http://www.bohemiancoding.com/sketch -->
    <title>02</title>
    <desc>Created with Sketch.</desc>
    <defs>
        <path d="M54,10 L246,10 L246,10 C248.209139,10 250,11.790861 250,14 L250,226 L250,226 C250,228.209139 248.209139,230 246,230 L54,230 L54,230 C51.790861,230 50,228.209139 50,226 L50,14 L50,14 C50,11.790861 51.790861,10 54,10 Z" id="path-1"></path>
        <path d="M32,114 L84,114 L84,114 C91.7319865,114 98,120.268014 98,128 L98,180 L98,180 C98,187.731986 91.7319865,194 84,194 L32,194 L32,194 C24.2680135,194 18,187.731986 18,180 L18,128 L18,128 C18,120.268014 24.2680135,114 32,114 Z" id="path-2"></path>
        <path d="M124,114 L176,114 L176,114 C183.731986,114 190,120.268014 190,128 L190,180 L190,180 C190,187.731986 183.731986,194 176,194 L124,194 L124,194 C116.268014,194 110,187.731986 110,180 L110,128 L110,128 C110,120.268014 116.268014,114 124,114 Z" id="path-3"></path>
        <path d="M216,114 L268,114 L268,114 C275.731986,114 282,120.268014 282,128 L282,180 L282,180 C282,187.731986 275.731986,194 268,194 L216,194 L216,194 C208.268014,194 202,187.731986 202,180 L202,128 L202,128 C202,120.268014 208.268014,114 216,114 Z" id="path-4"></path>
        <path d="M216,204 L268,204 L268,204 C275.731986,204 282,210.268014 282,218 L282,270 L282,270 C282,277.731986 275.731986,284 268,284 L216,284 L216,284 C208.268014,284 202,277.731986 202,270 L202,218 L202,218 C202,210.268014 208.268014,204 216,204 Z" id="path-5"></path>
        <path d="M124,204 L176,204 L176,204 C183.731986,204 190,210.268014 190,218 L190,270 L190,270 C190,277.731986 183.731986,284 176,284 L124,284 L124,284 C116.268014,284 110,277.731986 110,270 L110,218 L110,218 C110,210.268014 116.268014,204 124,204 Z" id="path-6"></path>
        <path d="M32,204 L84,204 L84,204 C91.7319865,204 98,210.268014 98,218 L98,270 L98,270 C98,277.731986 91.7319865,284 84,284 L32,284 L32,284 C24.2680135,284 18,277.731986 18,270 L18,218 L18,218 C18,210.268014 24.2680135,204 32,204 Z" id="path-7"></path>
        <path d="M66.9389789,173 C64.4873536,173 61.3222721,171.366807 59.0987445,169.996358 C56.1209761,168.16149 52.9130817,165.622923 50.0657253,162.848803 L50.0554743,162.838552 L49.1514159,161.934275 C46.3770771,159.087138 43.8387846,155.879024 42.0036425,152.90131 C40.6334119,150.677728 39,147.512646 39,145.061021 C39,142.437487 40.8760363,139.652897 41.6826831,138.577532 C42.3119938,137.738323 44.5109081,135 46.379215,135 C47.1464477,135 47.9726098,135.502133 49.0584446,136.628259 C50.0188559,137.623973 50.9404561,138.861654 51.5443311,139.724654 C52.3554731,140.883287 53.1055477,142.096354 53.6567426,143.140692 C54.5492345,144.831498 54.6524568,145.556521 54.6524568,145.954829 C54.6524568,146.75868 54.2325509,147.45591 53.4046895,148.027004 C52.8595245,148.403 52.2051621,148.68608 51.572398,148.959951 C51.145585,149.144523 50.4640329,149.43917 50.204086,149.646492 C50.2948645,150.030601 50.6911987,150.958232 51.7625068,152.53107 C52.7607973,153.996574 54.0515967,155.584816 55.2177947,156.782424 C56.4151842,157.948403 58.0032068,159.239422 59.4691497,160.237712 C61.0415491,161.308582 61.9691793,161.705135 62.3535631,161.795914 C62.5606106,161.535967 62.8554766,160.854634 63.0400488,160.427821 C63.3137003,159.794893 63.5967804,159.140475 63.9729963,158.59531 C64.5440903,157.767449 65.2413203,157.347762 66.0451714,157.347762 C66.443479,157.347762 67.1685018,157.450985 68.8595274,158.343257 C69.9036458,158.894452 71.1169325,159.644527 72.2754013,160.455669 C73.1383462,161.059763 74.3760269,161.981363 75.3719603,162.941555 C76.4978671,164.02739 77,164.853552 77,165.620785 C77,167.489092 74.2618958,169.688006 73.4226871,170.317372 C72.3471032,171.123964 69.5625134,173 66.9389789,173 L66.9389789,173 Z" id="path-8"></path>
    </defs>
    <g id="Page-1" stroke="none" stroke-width="1" fill="none" fill-rule="evenodd">
        <g id="Artboard-Copy-3" transform="translate(-800.000000, -1260.000000)">
            <g id="02" transform="translate(800.000000, 1260.000000)">
                <rect id="Rectangle-6-Copy-2" fill="#FFFFFF" x="0" y="0" width="300" height="300"></rect>
                <g id="Rectangle-14">
                    <use fill-opacity="0.0500000007" fill="#458DF1" fill-rule="evenodd" xlink:href="#path-1"></use>
                    <path stroke-opacity="0.1" stroke="#458DF1" stroke-width="3" d="M54,11.5 C52.6192881,11.5 51.5,12.6192881 51.5,14 L51.5,226 C51.5,227.380712 52.6192881,228.5 54,228.5 L246,228.5 C247.380712,228.5 248.5,227.380712 248.5,226 L248.5,14 C248.5,12.6192881 247.380712,11.5 246,11.5 L54,11.5 Z"></path>
                </g>
                <g id="Rectangle-14">
                    <use fill="#FFFFFF" fill-rule="evenodd" xlink:href="#path-2"></use>
                    <path stroke-opacity="0.3" stroke="#458DF1" stroke-width="2" d="M32,115 C24.8202983,115 19,120.820298 19,128 L19,180 C19,187.179702 24.8202983,193 32,193 L84,193 C91.1797017,193 97,187.179702 97,180 L97,128 C97,120.820298 91.1797017,115 84,115 L32,115 Z"></path>
                </g>
                <g id="Rectangle-14-Copy">
                    <use fill="#FFFFFF" fill-rule="evenodd" xlink:href="#path-3"></use>
                    <path stroke-opacity="0.3" stroke="#458DF1" stroke-width="2" d="M124,115 C116.820298,115 111,120.820298 111,128 L111,180 C111,187.179702 116.820298,193 124,193 L176,193 C183.179702,193 189,187.179702 189,180 L189,128 C189,120.820298 183.179702,115 176,115 L124,115 Z"></path>
                </g>
                <g id="Rectangle-14-Copy-2">
                    <use fill="#FFFFFF" fill-rule="evenodd" xlink:href="#path-4"></use>
                    <path stroke-opacity="0.3" stroke="#458DF1" stroke-width="2" d="M216,115 C208.820298,115 203,120.820298 203,128 L203,180 C203,187.179702 208.820298,193 216,193 L268,193 C275.179702,193 281,187.179702 281,180 L281,128 C281,120.820298 275.179702,115 268,115 L216,115 Z"></path>
                </g>
                <g id="Rectangle-14-Copy-3">
                    <use fill="#FFFFFF" fill-rule="evenodd" xlink:href="#path-5"></use>
                    <path stroke-opacity="0.3" stroke="#458DF1" stroke-width="2" d="M216,205 C208.820298,205 203,210.820298 203,218 L203,270 C203,277.179702 208.820298,283 216,283 L268,283 C275.179702,283 281,277.179702 281,270 L281,218 C281,210.820298 275.179702,205 268,205 L216,205 Z"></path>
                </g>
                <g id="Rectangle-14-Copy-4">
                    <use fill="#FFFFFF" fill-rule="evenodd" xlink:href="#path-6"></use>
                    <path stroke-opacity="0.3" stroke="#458DF1" stroke-width="2" d="M124,205 C116.820298,205 111,210.820298 111,218 L111,270 C111,277.179702 116.820298,283 124,283 L176,283 C183.179702,283 189,277.179702 189,270 L189,218 C189,210.820298 183.179702,205 176,205 L124,205 Z"></path>
                </g>
                <g id="Rectangle-14-Copy-5">
                    <use fill="#FFFFFF" fill-rule="evenodd" xlink:href="#path-7"></use>
                    <path stroke-opacity="0.3" stroke="#458DF1" stroke-width="2" d="M32,205 C24.8202983,205 19,210.820298 19,218 L19,270 C19,277.179702 24.8202983,283 32,283 L84,283 C91.1797017,283 97,277.179702 97,270 L97,218 C97,210.820298 91.1797017,205 84,205 L32,205 Z"></path>
                </g>
                <rect id="Rectangle-13-Copy-11" fill-opacity="0.300000012" fill="#458DF1" x="156" y="51" width="60" height="10"></rect>
                <rect id="Rectangle-13-Copy-11" fill-opacity="0.300000012" fill="#458DF1" x="156" y="77" width="60" height="10"></rect>
                <path d="M133.982517,84.1926346 C134.010964,83.0028329 133.605586,81.9405099 132.858836,80.970255 C131.656925,79.3909349 130.035412,78.2294618 128.292996,77.1813031 C125.007298,75.1983003 121.408676,73.7677054 117.674929,72.6345609 C116.188541,72.1813031 114.303888,71.2677054 114.282552,69.907932 C114.261216,68.6898017 114.446126,67.5779037 115.249771,66.5934844 C117.248215,64.1288952 118.535469,61.2252125 119.339113,58.0453258 C120.050303,55.2124646 120.228101,52.3583569 119.687596,49.4759207 C119.147092,46.5580737 117.895398,44.0864023 115.676485,42.3300283 C113.670929,40.7365439 111.494687,40 109.204655,40 C108.258772,40 107.291554,40.1274788 106.310112,40.3682719 C102.498133,41.3101983 99.9520725,43.9022663 98.7146018,47.9957507 C97.8256142,50.9419263 97.8398381,53.9589235 98.4443496,56.9617564 C99.2195467,60.7790368 100.734382,62.9532578 103.145316,65.8569405 C103.237771,65.9702549 103.358673,66.0835694 103.408456,66.2181303 C104.24766,68.378187 102.41279,71.7634561 100.16543,72.5354108 C98.4230139,73.1373937 96.6948221,73.7889518 95.0093016,74.5113314 C92.3210032,75.6586402 89.7322714,76.9617564 87.4706871,78.7322946 C86.048307,79.8441926 84.6828221,81.0410765 84.2205485,82.7549575 C83.9858558,83.6331445 84.0214153,84.5750708 84.0000796,85.4957507 C83.9929677,86.6643059 84.4623532,87.7195468 85.4295716,88.5127479 C86.1194259,89.0793201 87.7124917,90 87.7124917,90 L95.5924775,89.9858357 L130.398119,89.9858357 C130.398119,89.9858357 134.224321,87.2592069 133.989628,84.7096317 C133.968293,84.5396601 133.982517,84.3626062 133.982517,84.1926346 L133.982517,84.1926346 Z" id="Shape-Copy-2" fill-opacity="0.300000012" fill="#458DF1"></path>
                <g id="Group-9" transform="translate(135.000000, 225.000000)" stroke="#458DF1" stroke-width="3">
                    <path d="M15,35.887961 C24.025936,26.8454044 28.5,19.8088432 28.5,15 C28.5,7.54415588 22.4558441,1.5 15,1.5 C7.54415588,1.5 1.5,7.54415588 1.5,15 C1.5,19.8088432 5.97406401,26.8454044 15,35.887961 Z" id="Oval-4"></path>
                    <circle id="Oval-5" cx="15" cy="15" r="4.5"></circle>
                </g>
                <g id="Group-7" transform="translate(39.000000, 231.000000)" stroke="#458DF1" stroke-width="3">
                    <rect id="Rectangle-21" x="1.5" y="1.5" width="35" height="23" rx="2"></rect>
                    <rect id="Rectangle-21" x="8.5" y="8.5" width="21" height="1" rx="0.5"></rect>
                    <rect id="Rectangle-21-Copy" x="8.5" y="15.5" width="11" height="1" rx="0.5"></rect>
                </g>
                <g id="Group-12" transform="translate(223.000000, 239.000000)" stroke-width="3" stroke="#458DF1">
                    <circle id="Oval-6" cx="5" cy="5" r="3.5"></circle>
                    <circle id="Oval-6-Copy" cx="19" cy="5" r="3.5"></circle>
                    <circle id="Oval-6-Copy-2" cx="33" cy="5" r="3.5"></circle>
                </g>
                <g id="Group-11" transform="translate(229.000000, 135.000000)" stroke="#458DF1" stroke-width="3">
                    <circle id="Oval-2" cx="13.5" cy="13.5" r="12"></circle>
                    <rect id="Rectangle-15" x="5.5" y="30.5" width="16" height="1"></rect>
                    <rect id="Rectangle-15-Copy" x="13.5" y="25.5" width="1" height="12"></rect>
                </g>
                <g id="Group-10" transform="translate(131.000000, 136.000000)" stroke="#458DF1" stroke-width="3">
                    <rect id="Rectangle-19" x="1.5" y="5.5" width="35" height="29" rx="2"></rect>
                    <rect id="Rectangle-19" x="1.5" y="14.5" width="35" height="1" rx="0.5"></rect>
                    <rect id="Rectangle-19-Copy-2" x="8.5" y="21.5" width="7" height="1" rx="0.5"></rect>
                    <rect id="Rectangle-19-Copy-3" x="8.5" y="27.5" width="7" height="1" rx="0.5"></rect>
                    <rect id="Rectangle-19-Copy-2" x="22.5" y="21.5" width="7" height="1" rx="0.5"></rect>
                    <rect id="Rectangle-19-Copy-3" x="22.5" y="27.5" width="7" height="1" rx="0.5"></rect>
                    <rect id="Rectangle-19-Copy" x="9.5" y="1.5" width="1" height="7" rx="0.5"></rect>
                    <rect id="Rectangle-19-Copy" x="28.5" y="1.5" width="1" height="7" rx="0.5"></rect>
                </g>
                <g id="Shape" fill-rule="nonzero">
                    <use fill="#FFFFFF" fill-rule="evenodd" xlink:href="#path-8"></use>
                    <path stroke="#458DF1" stroke-width="3" d="M66.9389789,171.5 C68.6308176,171.5 70.7076089,170.478519 72.5227247,169.117343 C74.1035567,167.931797 75.5,166.407087 75.5,165.620785 C75.5,165.359523 75.1908719,164.850825 74.3308538,164.021415 C73.5458102,163.264545 72.5181281,162.456603 71.4150556,161.68441 C70.3068624,160.90847 69.1463401,160.19085 68.1595203,159.669903 C67.4577966,159.299638 66.9206443,159.066949 66.5228746,158.943471 C66.2816387,158.868585 66.1490423,158.847762 66.0451714,158.847762 C65.7705151,158.847762 65.5150305,159.001569 65.2075614,159.447278 C64.9700256,159.791485 64.7916166,160.156354 64.4168292,161.0232 C64.0069505,161.971022 63.8188233,162.363901 63.5268672,162.73045 L62.9343578,163.474342 L62.0087973,163.255755 C61.2665817,163.080469 60.1005435,162.482543 58.6248466,161.477532 C57.0888169,160.431513 55.4328898,159.085558 54.1431352,157.828898 C52.9153258,156.568018 51.5695131,154.912127 50.5227692,153.375493 C49.517628,151.899798 48.9197203,150.733744 48.7442997,149.99149 L48.5256829,149.066461 L49.2687937,148.47379 C49.4827423,148.303155 49.7380468,148.157214 50.0765937,147.990882 C50.1754674,147.942305 50.2805514,147.892663 50.3931151,147.841095 C50.567759,147.761087 50.7073003,147.699809 50.9765859,147.583358 C51.1324876,147.515882 51.2000282,147.48655 51.2843632,147.449547 C51.8879279,147.184729 52.2567594,146.996562 52.5529334,146.792293 C52.9985633,146.484878 53.1524568,146.229316 53.1524568,145.954829 C53.1524568,145.850975 53.1316387,145.718427 53.056754,145.477259 C52.9332632,145.079553 52.700539,144.542494 52.3301743,143.840846 C51.8094807,142.854299 51.0920303,141.694065 50.3153329,140.584632 C49.5442772,139.482714 48.7359047,138.454523 47.9786435,137.669426 C47.149137,136.80914 46.6404715,136.5 46.379215,136.5 C45.5929553,136.5 44.0682209,137.896574 42.8826171,139.47762 C41.5218129,141.291748 40.5,143.369139 40.5,145.061021 C40.5,146.795662 41.5742977,149.345351 43.2806123,152.114324 C45.0563542,154.995654 47.5265363,158.117426 50.2122047,160.873743 L51.1161345,161.777892 L51.1124783,161.774416 C53.8838211,164.474477 57.0054346,166.944581 59.8857757,168.719415 C62.6538329,170.425481 65.2041555,171.5 66.9389789,171.5 Z"></path>
                </g>
            </g>
        </g>
    </g>
</svg>