<?xml version="1.0" encoding="UTF-8"?>
<svg width="124px" height="32px" viewBox="0 0 124 32" version="1.1" xmlns="http://www.w3.org/2000/svg" xmlns:xlink="http://www.w3.org/1999/xlink">
    <!-- Generator: Sketch 45.2 (43514) - http://www.bohemiancoding.com/sketch -->
    <title>Page 1</title>
    <desc>Created with Sketch.</desc>
    <defs>
        <polygon id="path-1" points="15.3218391 0 0.124712644 0 0.124712644 22.569354 15.3218391 22.569354 15.3218391 0"></polygon>
        <polygon id="path-3" points="0.131874713 28.5057471 14.0319897 28.5057471 14.0319897 0.017637931 0.131874713 0.017637931"></polygon>
    </defs>
    <g id="Page-1" stroke="none" stroke-width="1" fill="none" fill-rule="evenodd">
        <g id="Artboard-Copy-3" transform="translate(-32.000000, -16.000000)">
            <g id="Page-1" transform="translate(32.000000, 16.000000)">
                <g id="Group-3" transform="translate(49.172414, 12.471264)" fill="#FFFFFF">
                    <path d="M74.606631,11.3132184 C72.9785966,11.4667931 71.9413437,10.8924023 71.4995046,9.59895402 C70.9080103,8.30621839 70.3414586,7.08367816 69.7962862,5.9438046 L71.5743322,5.9438046 C72.9532977,9.17885057 73.9901943,10.9323103 74.6778954,11.1995517 C74.8275506,11.3132184 74.8029644,11.3524138 74.606631,11.3132184 L74.606631,11.3132184 Z M74.1612287,4.40093103 C74.1612287,5.39114943 73.5198494,5.86505747 72.2374471,5.82942529 C72.0906425,5.86505747 72.0660563,5.84724138 72.1658264,5.77241379 C72.5078954,5.5408046 72.6828494,5.12390805 72.6828494,4.5145977 L72.6828494,3.48482759 C72.6828494,2.76149425 72.0906425,2.39804598 70.9080103,2.39804598 L63.8813437,2.39804598 C62.9442172,2.36241379 62.1781253,2.60791954 61.586631,3.1424023 C61.4408954,3.40964368 61.3158264,3.63804598 61.2160563,3.82689655 C61.1198494,4.01931034 61.0699644,4.13368966 61.0699644,4.17252874 C60.4788264,5.42678161 59.4412172,5.96126437 57.9628379,5.77241379 C57.816746,5.80804598 57.816746,5.79022989 57.9628379,5.7154023 C58.8001943,5.25574713 59.8866195,3.3708046 61.2160563,0.0570114943 L62.9941023,0.0570114943 C62.4988149,1.12241379 62.1068609,1.92413793 61.8111138,2.45862069 C61.7612287,2.60791954 61.7362862,2.70448276 61.7362862,2.74367816 C62.0783552,2.24874713 62.7949184,1.99896552 63.8813437,1.99896552 L70.9828379,1.99896552 C73.2989299,1.96333333 74.3575621,2.43724138 74.1612287,3.42781609 L74.1612287,4.40093103 Z M62.6983552,5.9438046 C62.1068609,7.08367816 61.536746,8.30621839 60.9954931,9.59895402 C60.5034126,10.8924023 59.4665161,11.4667931 57.8880103,11.3132184 C57.6421483,11.3524138 57.6172057,11.3132184 57.816746,11.1995517 C58.4545621,10.9323103 59.4914586,9.17885057 60.9203092,5.9438046 L62.6983552,5.9438046 Z M46.9845621,13.7112644 L45.5058264,13.7112644 L45.5058264,6.28551724 L38.4791598,6.28551724 L38.4791598,5.82942529 L45.5058264,5.82942529 L45.5058264,0.171034483 L46.9845621,0.171034483 L46.9845621,2.62965517 L54.3818034,2.62965517 L54.3818034,3.02873563 L46.9845621,3.02873563 L46.9845621,5.82942529 L55.7889184,5.82942529 L55.7889184,6.28551724 L46.9845621,6.28551724 L46.9845621,13.7112644 Z M34.4958379,13.2551724 L28.2812287,13.2551724 C26.702723,13.2947241 25.9615736,12.7206897 26.0613437,11.5412644 L26.0613437,5.36941379 L24.2868609,5.88643678 L24.2868609,5.42678161 L26.0613437,4.91367816 L26.0613437,1.48586207 L27.4688149,1.48586207 L27.4688149,4.45758621 L30.276631,3.5992069 L30.276631,0.0570114943 L31.6841023,0.0570114943 L31.6841023,3.1424023 L32.7922632,2.80068966 C34.8624931,2.3054023 35.9742172,2.74367816 36.1203092,4.11551724 L36.1203092,7.8283908 C36.1701943,9.0862069 35.5537575,9.67413793 34.2713552,9.59895402 C33.1378954,9.63850575 32.2755966,9.42827586 31.6841023,8.97254023 L31.6841023,10.9711494 L30.276631,10.9711494 L30.276631,4.11551724 L27.4688149,4.97068966 L27.4688149,11.6552874 C27.4189299,12.3037931 27.9355966,12.6276897 29.0223782,12.6276897 L33.9752517,12.6276897 C35.8495046,12.7028736 36.9576655,11.7340345 37.3032977,9.71333333 C37.3032977,9.44609195 37.3282402,9.31425287 37.3781253,9.31425287 C37.4280103,9.35344828 37.4782517,9.52448276 37.5274241,9.82735632 C37.6239874,12.1113793 36.6155966,13.2551724 34.4958379,13.2551724 L34.4958379,13.2551724 Z M31.6841023,8.74057471 C31.6841023,8.81896552 31.7090448,8.83678161 31.7589299,8.79722989 C31.8052517,8.83678161 31.9050218,8.87597701 32.054677,8.9116092 C32.7423782,9.06447126 33.2376655,9.10402299 33.5334126,9.0291954 C34.370769,8.99 34.7659299,8.47689655 34.7167575,7.48632184 L34.7167575,4.05494253 C34.566746,3.33517241 33.9503092,3.06793103 32.8670908,3.25678161 L31.6841023,3.65586207 L31.6841023,8.74057471 Z M22.9542172,11.8836897 C23.3497345,11.8836897 23.7452517,11.7906897 24.1372057,11.5982759 C24.386631,11.5234483 24.6823782,11.3916092 25.0280103,11.1995517 C25.0280103,11.2383908 24.9531828,11.3310345 24.8035276,11.4842529 C24.2619184,11.9403448 23.2998494,12.2286092 21.9208839,12.3429885 L20.9584586,12.3429885 C20.5632977,12.3429885 20.1464011,12.3604483 19.7009989,12.4 L19.7009989,11.9973563 L20.6630678,11.9973563 L21.4754816,11.9973563 L21.4754816,4.17252874 L19.7009989,4.17252874 L19.7009989,3.76988506 L21.4754816,3.76988506 L21.4754816,0 L22.9542172,0 L22.9542172,3.76988506 L24.8779989,3.76988506 L24.8779989,4.17252874 L22.9542172,4.17252874 L22.9542172,11.8836897 Z M16.2482402,11.2562069 L17.8018034,11.2562069 L17.8018034,11.7122989 L16.2482402,11.7122989 L16.1734126,11.9403448 C16.0736425,13.1593218 15.2113437,13.7504598 13.5865161,13.7112644 C12.4997345,13.7112644 11.366631,13.3513793 10.1836425,12.6276897 C10.0339874,12.4748276 10.0838724,12.4356322 10.3297345,12.514023 C11.120769,12.742069 12.1077805,12.8920805 13.290769,12.9701149 C14.1281253,13.0449425 14.6198494,12.6636782 14.7695046,11.8259655 L14.7695046,11.7122989 L8.40915977,11.7122989 C7.17628621,11.8259655 6.70594138,11.3524138 7.00168851,10.2834483 L7.37226322,7.94241379 L6.48502184,7.94241379 L6.48502184,7.54333333 L7.4470908,7.54333333 L8.11341264,3.65586207 C7.66801034,3.84827586 7.07651609,3.98011494 6.33536667,4.05494253 C6.18927471,4.09413793 6.11444713,4.09413793 6.11444713,4.05494253 C6.06456207,4.01931034 6.11444713,3.96229885 6.2641023,3.88390805 C7.24755057,3.46701149 8.03858506,2.17 8.63007931,0 L10.1088149,0 C10.0589299,0.153574713 9.9841023,0.363448276 9.8878954,0.627126437 C9.73824023,1.0083908 9.63847011,1.29701149 9.59214828,1.48586207 L17.876631,1.48586207 L17.876631,1.88494253 L9.36766552,1.88494253 C9.27145862,2.19137931 9.09686092,2.55126437 8.85099885,2.97172414 L8.85099885,3.02873563 C8.75122874,3.21758621 8.63007931,3.35298851 8.48042414,3.42781609 L9.51732069,3.42781609 L9.4424931,4.05494253 C9.63847011,3.67688506 10.1587,3.48482759 10.9960563,3.48482759 L14.4737575,3.48482759 C16.2981253,3.48482759 17.1354816,3.98011494 16.989746,4.97068966 L16.6936425,7.54333333 L17.9478954,7.54333333 L17.9478954,7.94241379 L16.6188149,7.94241379 L16.2482402,11.2562069 Z M8.33433218,10.572069 C8.18467701,11.1029885 8.45548161,11.3310345 9.14674598,11.2562069 L14.8443322,11.2562069 L15.2113437,7.94241379 L8.77617126,7.94241379 L8.33433218,10.572069 Z M14.0283552,3.88390805 L10.8499644,3.88390805 C10.1088149,3.88390805 9.6170908,4.05494253 9.36766552,4.40093103 L8.85099885,7.54333333 L15.2113437,7.54333333 L15.5822747,4.85666667 C15.6318034,4.20851724 15.1115736,3.88390805 14.0283552,3.88390805 L14.0283552,3.88390805 Z M13.732608,6.85563218 C12.4997345,6.93402299 11.7835276,6.7237931 11.5875506,6.22850575 C11.4414586,6.11448276 11.2169759,5.88643678 10.9212287,5.5408046 C10.6753667,5.19873563 10.5043322,4.93541379 10.4045621,4.743 L11.8120333,4.743 C12.4997345,5.73321839 13.1660563,6.38172414 13.8074356,6.6845977 C13.9072057,6.76298851 13.9285851,6.82 13.8822632,6.85563218 L13.732608,6.85563218 Z M13.5865161,10.572069 C12.4498494,10.686092 11.7372057,10.4758621 11.4414586,9.94137931 C11.0459414,9.56011494 10.6753667,9.06447126 10.3297345,8.45551724 L11.7372057,8.45551724 C12.474792,9.56011494 13.1165276,10.2086207 13.6577805,10.3978276 C13.7575506,10.4758621 13.8074356,10.5332299 13.8074356,10.572069 C13.7575506,10.6077011 13.682723,10.6077011 13.5865161,10.572069 L13.5865161,10.572069 Z M4.04421724,4.68563218 C5.42318276,4.72482759 6.11444713,5.18091954 6.11444713,6.05747126 L6.11444713,10.7431034 C6.06456207,11.5412644 6.2641023,12.0543678 6.70594138,12.285977 C6.75582644,12.3216092 6.75582644,12.3604483 6.70594138,12.4 L6.48502184,12.4 C5.30203333,12.3604483 4.75686092,11.8085057 4.85663103,10.7431034 L4.85663103,6.00045977 C4.80674598,5.46597701 4.53594138,5.16310345 4.04421724,5.08471264 L4.04421724,13.6538966 L2.71157356,13.6538966 L2.71157356,5.14208046 C2.36594138,5.22011494 2.09513678,5.36941379 1.89915977,5.59781609 L1.89915977,10.686092 C1.94904483,11.8259655 1.35398736,12.4181724 0.124677011,12.4570115 C0.0249068966,12.4181724 -3.56321839e-05,12.3786207 0.0498494253,12.3429885 C0.445366667,12.1113793 0.641343678,11.5804598 0.641343678,10.7431034 L0.641343678,4.68563218 L1.89915977,4.68563218 L1.89915977,5.42678161 C2.04525172,5.12390805 2.31605632,4.91367816 2.71157356,4.79965517 L2.71157356,2.91506897 L0.124677011,2.91506897 L0.124677011,2.45862069 L2.71157356,2.45862069 L2.71157356,0.0570114943 L4.04421724,0.0570114943 L4.04421724,2.45862069 L6.63111379,2.45862069 L6.63111379,2.91506897 L4.04421724,2.91506897 L4.04421724,4.68563218 Z M55.1229529,11.5412644 C55.2191598,11.5804598 55.2690448,11.6196552 55.2690448,11.6552874 C55.2690448,11.6941264 55.2191598,11.7122989 55.1229529,11.7122989 C53.0990448,11.7906897 51.8162862,11.5234483 51.274677,10.9141379 C50.8791598,10.6077011 50.312608,10.1516092 49.5750218,9.54229885 C48.6877805,8.81896552 47.9469874,8.17081609 47.3551368,7.60034483 L49.2044471,7.60034483 C51.9160563,10.0375862 53.8900793,11.3524138 55.1229529,11.5412644 L55.1229529,11.5412644 Z M61.6614586,12.4570115 C62.402608,12.6854138 63.1900793,12.8168966 64.0274356,12.856092 C65.2104241,12.856092 65.7769759,12.5710345 65.730654,11.9973563 L65.730654,2.97172414 L67.2093897,2.97172414 L67.2093897,11.9973563 C67.3055966,13.1803448 66.4682402,13.7326437 64.6941138,13.6538966 C63.4608839,13.6186207 62.4239874,13.2551724 61.586631,12.5710345 C61.340769,12.3786207 61.3657115,12.3429885 61.6614586,12.4570115 L61.6614586,12.4570115 Z" id="Fill-1"></path>
                </g>
                <polygon id="Fill-4" fill="#92D9F8" points="0 22.769108 4.60011494 10.059108 8.19183908 20.0036943 7.19057471 22.769108"></polygon>
                <g id="Group-8" transform="translate(26.367816, 0.000000)">
                    <mask id="mask-2" fill="white">
                        <use xlink:href="#path-1"></use>
                    </mask>
                    <g id="Clip-7"></g>
                    <polygon id="Fill-6" fill="#03D7A3" mask="url(#mask-2)" points="8.27735632 22.569354 0.124712644 -7.12643678e-05 7.29747126 -7.12643678e-05 15.3218391 22.569354"></polygon>
                </g>
                <polygon id="Fill-9" fill="#3CB6EC" points="15.8954816 23.047146 15.8954816 23.0396632 13.7931828 28.8445023 5.68686092 7.78944483 12.8560563 7.78944483 17.3849069 18.9312724"></polygon>
                <g id="Group-13" transform="translate(14.965517, 2.850575)">
                    <mask id="mask-4" fill="white">
                        <use xlink:href="#path-3"></use>
                    </mask>
                    <g id="Clip-12"></g>
                    <polygon id="Fill-11" fill="#3BB5ED" mask="url(#mask-4)" points="7.68233448 27.5043046 7.31888621 28.5059253 0.131874713 28.5059253 5.08831149 14.7982241 5.09187471 14.8017874 10.4402655 0.017637931 14.0319897 9.96293678 7.6858977 27.5082241"></polygon>
                </g>
            </g>
        </g>
    </g>
</svg>