<?xml version="1.0" encoding="UTF-8"?>
<svg width="301px" height="300px" viewBox="0 0 301 300" version="1.1" xmlns="http://www.w3.org/2000/svg" xmlns:xlink="http://www.w3.org/1999/xlink">
    <!-- Generator: Sketch 45.2 (43514) - http://www.bohemiancoding.com/sketch -->
    <title>01</title>
    <desc>Created with Sketch.</desc>
    <defs>
        <rect id="path-1" x="17" y="73" width="268" height="176" rx="3"></rect>
        <rect id="path-2" x="0" y="0" width="160" height="85" rx="3"></rect>
        <rect id="path-3" x="0" y="0" width="172" height="76" rx="3"></rect>
        <rect id="path-4" x="0" y="0" width="160" height="46" rx="3"></rect>
    </defs>
    <g id="Page-1" stroke="none" stroke-width="1" fill="none" fill-rule="evenodd">
        <g id="Artboard-Copy-3" transform="translate(-99.000000, -840.000000)">
            <g id="01" transform="translate(99.000000, 840.000000)">
                <rect id="Rectangle-16" fill="#FFFFFF" x="0" y="0" width="300" height="300"></rect>
                <g id="Rectangle-9">
                    <use fill="#FFFFFF" fill-rule="evenodd" xlink:href="#path-1"></use>
                    <rect stroke-opacity="0.1" stroke="#458DF1" stroke-width="5" x="19.5" y="75.5" width="263" height="171" rx="3"></rect>
                </g>
                <rect id="Rectangle-10" fill-opacity="0.1" fill="#458DF1" x="22" y="99" width="258" height="124"></rect>
                <rect id="Rectangle-9" fill-opacity="0.100000001" fill="#458DF1" x="101" y="257" width="100" height="10" rx="3"></rect>
                <g id="Group-16" transform="translate(26.000000, 24.000000)">
                    <g id="Rectangle-9-Copy">
                        <use fill="#FFFFFF" fill-rule="evenodd" xlink:href="#path-2"></use>
                        <rect stroke="#458DF1" stroke-width="3" x="1.5" y="1.5" width="157" height="82" rx="3"></rect>
                    </g>
                    <rect id="Rectangle-13" fill-opacity="0.300000012" fill="#458DF1" x="16" y="26" width="8" height="8"></rect>
                    <rect id="Rectangle-13-Copy-3" fill-opacity="0.300000012" fill="#458DF1" x="16" y="12" width="118" height="6"></rect>
                    <rect id="Rectangle-13-Copy-4" fill-opacity="0.300000012" fill="#458DF1" x="32" y="28" width="72" height="4"></rect>
                    <rect id="Rectangle-13-Copy-5" fill-opacity="0.300000012" fill="#458DF1" x="32" y="41" width="32" height="4"></rect>
                    <rect id="Rectangle-13-Copy-6" fill-opacity="0.300000012" fill="#458DF1" x="32" y="54" width="52" height="4"></rect>
                    <rect id="Rectangle-13-Copy" fill-opacity="0.300000012" fill="#458DF1" x="16" y="39" width="8" height="8"></rect>
                    <rect id="Rectangle-13-Copy-2" fill-opacity="0.300000012" fill="#458DF1" x="16" y="52" width="8" height="8"></rect>
                    <rect id="Rectangle-13-Copy-6" fill-opacity="0.300000012" fill="#458DF1" x="32" y="67" width="42" height="4"></rect>
                    <rect id="Rectangle-13-Copy-2" fill-opacity="0.300000012" fill="#458DF1" x="16" y="65" width="8" height="8"></rect>
                </g>
                <g id="Group-14" transform="translate(0.000000, 161.000000)">
                    <g id="Rectangle-9-Copy-3">
                        <use fill="#FFFFFF" fill-rule="evenodd" xlink:href="#path-3"></use>
                        <rect stroke="#458DF1" stroke-width="3" x="1.5" y="1.5" width="169" height="73" rx="3"></rect>
                    </g>
                    <circle id="Oval-3" fill-opacity="0.3" fill="#458DF1" cx="48" cy="39" r="2"></circle>
                    <circle id="Oval-3-Copy-5" fill-opacity="0.3" fill="#458DF1" cx="48" cy="49" r="2"></circle>
                    <circle id="Oval-3-Copy-10" fill-opacity="0.3" fill="#458DF1" cx="48" cy="59" r="2"></circle>
                    <circle id="Oval-3-Copy" fill-opacity="0.3" fill="#458DF1" cx="72" cy="39" r="2"></circle>
                    <circle id="Oval-3-Copy-6" fill-opacity="0.3" fill="#458DF1" cx="72" cy="49" r="2"></circle>
                    <circle id="Oval-3-Copy-11" fill-opacity="0.3" fill="#458DF1" cx="72" cy="59" r="2"></circle>
                    <circle id="Oval-3-Copy-2" fill-opacity="0.3" fill="#458DF1" cx="96" cy="39" r="2"></circle>
                    <circle id="Oval-3-Copy-7" fill-opacity="0.3" fill="#458DF1" cx="96" cy="49" r="2"></circle>
                    <circle id="Oval-3-Copy-12" fill-opacity="0.3" fill="#458DF1" cx="96" cy="59" r="2"></circle>
                    <circle id="Oval-3-Copy-3" fill-opacity="0.3" fill="#458DF1" cx="120" cy="39" r="2"></circle>
                    <circle id="Oval-3-Copy-8" fill-opacity="0.3" fill="#458DF1" cx="120" cy="49" r="2"></circle>
                    <circle id="Oval-3-Copy-13" fill-opacity="0.3" fill="#458DF1" cx="120" cy="59" r="2"></circle>
                    <circle id="Oval-3-Copy-4" fill-opacity="0.3" fill="#458DF1" cx="144" cy="39" r="2"></circle>
                    <circle id="Oval-3-Copy-9" fill-opacity="0.3" fill="#458DF1" cx="144" cy="49" r="2"></circle>
                    <circle id="Oval-3-Copy-14" fill-opacity="0.3" fill="#458DF1" cx="144" cy="59" r="2"></circle>
                    <rect id="Rectangle-13-Copy-11" fill-opacity="0.3" fill="#458DF1" x="16" y="10" width="98" height="6"></rect>
                    <rect id="Rectangle-13-Copy-12" fill-opacity="0.3" fill="#458DF1" x="16" y="36" width="16" height="6"></rect>
                    <rect id="Rectangle-13-Copy-14" fill-opacity="0.3" fill="#458DF1" x="16" y="56" width="16" height="6"></rect>
                    <rect id="Rectangle-13-Copy-15" fill-opacity="0.3" fill="#458DF1" x="40" y="26" width="16" height="6"></rect>
                    <rect id="Rectangle-13-Copy-17" fill-opacity="0.3" fill="#458DF1" x="88" y="26" width="16" height="6"></rect>
                    <rect id="Rectangle-13-Copy-19" fill-opacity="0.3" fill="#458DF1" x="136" y="26" width="16" height="6"></rect>
                    <rect id="Rectangle-13-Copy-16" fill-opacity="0.3" fill="#458DF1" x="64" y="26" width="16" height="6"></rect>
                    <rect id="Rectangle-13-Copy-18" fill-opacity="0.3" fill="#458DF1" x="112" y="26" width="16" height="6"></rect>
                    <rect id="Rectangle-13-Copy-13" fill-opacity="0.3" fill="#458DF1" x="16" y="46" width="16" height="6"></rect>
                </g>
                <g id="Group-15" transform="translate(141.000000, 89.000000)">
                    <g id="Rectangle-9-Copy-2">
                        <use fill="#FFFFFF" fill-rule="evenodd" xlink:href="#path-4"></use>
                        <rect stroke="#458DF1" stroke-width="3" x="1.5" y="1.5" width="157" height="43" rx="3"></rect>
                    </g>
                    <rect id="Rectangle-13-Copy-7" fill-opacity="0.3" fill="#458DF1" x="16" y="12" width="100" height="6"></rect>
                    <rect id="Rectangle-13-Copy-9" fill-opacity="0.3" fill="#458DF1" x="16" y="28" width="16" height="6"></rect>
                    <rect id="Rectangle-13-Copy-10" fill-opacity="0.3" fill="#458DF1" x="34" y="27" width="1" height="8"></rect>
                    <rect id="Rectangle-13-Copy-8" fill-opacity="0.3" fill="#458DF1" x="16" y="36" width="128" height="1"></rect>
                </g>
            </g>
        </g>
    </g>
</svg>