<?xml version="1.0" encoding="UTF-8"?>
<svg width="300px" height="300px" viewBox="0 0 300 300" version="1.1" xmlns="http://www.w3.org/2000/svg" xmlns:xlink="http://www.w3.org/1999/xlink">
    <!-- Generator: Sketch 45.2 (43514) - http://www.bohemiancoding.com/sketch -->
    <title>03</title>
    <desc>Created with Sketch.</desc>
    <defs>
        <circle id="path-1" cx="63" cy="161" r="59"></circle>
        <rect id="path-2" x="162" y="8" width="134" height="84" rx="2"></rect>
        <rect id="path-3" x="162" y="108" width="134" height="84" rx="2"></rect>
        <rect id="path-4" x="162" y="208" width="134" height="84" rx="2"></rect>
    </defs>
    <g id="Page-1" stroke="none" stroke-width="1" fill="none" fill-rule="evenodd">
        <g id="Artboard-Copy-3" transform="translate(-100.000000, -1680.000000)">
            <g id="03" transform="translate(100.000000, 1680.000000)">
                <rect id="Rectangle-6-Copy-3" fill="#FFFFFF" x="0" y="0" width="300" height="300"></rect>
                <rect id="Rectangle-25-Copy-15" fill-opacity="0.1" fill="#458DF1" x="70" y="150" width="130" height="6"></rect>
                <rect id="Rectangle-25-Copy-18" fill-opacity="0.1" fill="#458DF1" x="70" y="47" width="130" height="6"></rect>
                <rect id="Rectangle-25-Copy-19" fill-opacity="0.1" fill="#458DF1" x="70" y="247" width="130" height="6"></rect>
                <rect id="Rectangle-25-Copy-16" fill-opacity="0.1" fill="#458DF1" x="64" y="47" width="6" height="84"></rect>
                <rect id="Rectangle-25-Copy-17" fill-opacity="0.1" fill="#458DF1" x="64" y="178" width="6" height="75"></rect>
                <g id="Oval">
                    <use fill="#FFFFFF" fill-rule="evenodd" xlink:href="#path-1"></use>
                    <circle stroke="#458DF1" stroke-width="4" cx="63" cy="161" r="57"></circle>
                </g>
                <g id="设置-copy" transform="translate(63.000000, 160.412291) rotate(-345.000000) translate(-63.000000, -160.412291) translate(34.000000, 133.000000)" fill-rule="nonzero" fill="#458DF1">
                    <path d="M37.6926849,54.8077007 C36.6378962,54.8073689 35.6119741,54.371717 34.9503671,53.6407641 C34.0482059,52.6516716 31.1897586,50.0795667 28.8495811,50.0795667 C26.5259935,50.0795667 23.6234168,52.6666025 22.7896063,53.5724135 C22.1289947,54.2910899 21.1110357,54.7194422 20.0665328,54.7194422 C19.5688345,54.7194422 19.0993391,54.624216 18.6706549,54.436086 L18.5956684,54.4032379 L11.4835593,50.4262965 L11.4128862,50.3768585 C10.1185387,49.4707157 9.62581739,47.6975825 10.2671846,46.2529301 C10.2721616,46.2423126 10.9234828,44.7395954 10.9234828,43.3699297 C10.9234828,39.2134851 7.5414568,35.8307954 3.3843486,35.8307954 L3.13251325,35.8307954 L3.08672501,35.8317908 C1.89589882,35.8317908 0.92638248,34.774016 0.616150525,33.1365885 C0.591597408,33.005528 0.0096221676,29.900554 0.0096221676,27.4542008 C0.0096221676,25.0075159 0.591265609,21.9022101 0.616150525,21.7711496 C0.929700469,20.1131506 1.92045193,19.048408 3.13218145,19.0769427 L3.3843486,19.0769427 C7.54112501,19.0769427 10.9234828,15.6949166 10.9234828,11.5381402 C10.9234828,10.1688063 10.2728252,8.66642092 10.2658574,8.65148997 C9.62482199,7.20849663 10.1208613,5.43602699 11.4215129,4.53253864 L11.4951723,4.48144161 L19.000463,0.358176894 L19.0787676,0.324997006 C19.5014793,0.144830212 19.9643388,0.0535855196 20.4547375,0.0535855196 C21.4972496,0.0535855196 22.5168676,0.472979307 23.1837833,1.17572934 C24.0723407,2.10576161 26.8800229,4.52490726 29.153177,4.52490726 C31.4044324,4.52490726 34.1951928,2.15354065 35.0807641,1.23976653 C35.7436982,0.551615642 36.7566802,0.139189631 37.7882429,0.139189631 C38.2885957,0.139189631 38.7600819,0.234084112 39.1900932,0.420555084 L39.2660752,0.453734972 L46.5152172,4.48110981 L46.5872175,4.53121144 C47.8842194,5.43635879 48.3779361,7.20916022 47.7362371,8.65447616 C47.7315919,8.66542552 47.0799389,10.1681427 47.0799389,11.5378084 C47.0799389,15.6945848 50.4619649,19.0766109 54.6190731,19.0766109 L54.8712402,19.0766109 C56.0816425,19.0497352 57.0733894,20.1128188 57.3872712,21.7708178 C57.4121561,21.9022101 57.9937995,25.0068523 57.9937995,27.4535373 C57.9937995,29.9002222 57.4121561,33.005528 57.3869394,33.1362567 C57.0733894,34.7942557 56.0813107,35.8550168 54.8709084,35.8301318 L54.6190731,35.8301318 C50.4622967,35.8301318 47.0799389,39.2124897 47.0799389,43.3695979 C47.0799389,44.7389318 47.7309283,46.2406536 47.7372324,46.2555845 C48.3776043,47.6979143 47.8825604,49.4707157 46.5842313,50.3748677 L46.5118992,50.4259647 L39.1399916,54.5001232 L39.0633461,54.5333031 C38.6409661,54.7157924 38.1800974,54.8077007 37.6926849,54.8077007 L37.6926849,54.8077007 Z M29.3046363,17.9808582 C23.6175539,17.9808582 18.9914403,22.6073725 18.9914403,28.293796 C18.9914403,33.9812525 23.6180704,38.6077668 29.3046363,38.6077668 C34.9912022,38.6077668 39.6183489,33.9812525 39.6183489,28.293796 C39.6183489,22.6073725 34.9917188,17.9808582 29.3046363,17.9808582 L29.3046363,17.9808582 Z" id="Shape"></path>
                </g>
                <g id="Rectangle-25-Copy-11">
                    <use fill="#FFFFFF" fill-rule="evenodd" xlink:href="#path-2"></use>
                    <rect stroke-opacity="0.2" stroke="#458DF1" stroke-width="3" x="163.5" y="9.5" width="131" height="81" rx="2"></rect>
                </g>
                <rect id="Rectangle-17" fill-opacity="0.200000003" fill="#458DF1" x="180" y="30" width="98" height="12" rx="1"></rect>
                <rect id="Rectangle-17" fill-opacity="0.200000003" fill="#458DF1" x="180" y="58" width="68" height="12" rx="1"></rect>
                <g id="Rectangle-25-Copy-12">
                    <use fill="#FFFFFF" fill-rule="evenodd" xlink:href="#path-3"></use>
                    <rect stroke-opacity="0.2" stroke="#458DF1" stroke-width="3" x="163.5" y="109.5" width="131" height="81" rx="2"></rect>
                </g>
                <rect id="Rectangle-17" fill-opacity="0.200000003" fill="#458DF1" x="180" y="132" width="28" height="36" rx="1"></rect>
                <rect id="Rectangle-17-Copy" fill-opacity="0.200000003" fill="#458DF1" x="215" y="132" width="28" height="36" rx="1"></rect>
                <rect id="Rectangle-17-Copy-2" fill-opacity="0.200000003" fill="#458DF1" x="250" y="132" width="28" height="36" rx="1"></rect>
                <g id="Rectangle-25-Copy-13">
                    <use fill="#FFFFFF" fill-rule="evenodd" xlink:href="#path-4"></use>
                    <rect stroke-opacity="0.2" stroke="#458DF1" stroke-width="3" x="163.5" y="209.5" width="131" height="81" rx="2"></rect>
                </g>
                <rect id="Rectangle-17-Copy" fill-opacity="0.200000003" fill="#458DF1" x="238" y="263" width="38" height="6" rx="1"></rect>
                <rect id="Rectangle-17-Copy" fill-opacity="0.200000003" fill="#458DF1" x="238" y="247" width="38" height="6" rx="1"></rect>
                <rect id="Rectangle-17-Copy" fill-opacity="0.200000003" fill="#458DF1" x="238" y="231" width="38" height="6" rx="1"></rect>
                <path d="M219.986713,264.586402 C220.008333,263.682153 219.700245,262.874788 219.132716,262.137394 C218.219263,260.93711 216.986913,260.054391 215.662677,259.25779 C213.165547,257.750708 210.430594,256.663456 207.592946,255.802266 C206.463291,255.45779 205.030955,254.763456 205.01474,253.730028 C204.998524,252.804249 205.139056,251.959207 205.749826,251.211048 C207.268643,249.33796 208.246956,247.131161 208.857726,244.714448 C209.398231,242.561473 209.533357,240.392351 209.122573,238.2017 C208.71179,235.984136 207.760502,234.105666 206.074128,232.770822 C204.549906,231.559773 202.895962,231 201.155538,231 C200.436667,231 199.701581,231.096884 198.955685,231.279887 C196.058581,231.995751 194.123575,233.965722 193.183097,237.076771 C192.507467,239.315864 192.518277,241.608782 192.977706,243.890935 C193.566856,246.792068 194.71813,248.444476 196.55044,250.651275 C196.620706,250.737394 196.712591,250.823513 196.750427,250.925779 C197.388222,252.567422 195.99372,255.140227 194.285726,255.726912 C192.961491,256.184419 191.648065,256.679603 190.367069,257.228612 C188.323962,258.100567 186.356526,259.090935 184.637722,260.436544 C183.556713,261.281586 182.518945,262.191218 182.167617,263.493768 C181.98925,264.16119 182.016276,264.877054 182.00006,265.576771 C181.994655,266.464873 182.351388,267.266856 183.086474,267.869688 C183.610764,268.300283 184.821494,269 184.821494,269 L190.810283,268.989235 L217.26257,268.989235 C217.26257,268.989235 220.170484,266.916997 219.992118,264.97932 C219.975902,264.850142 219.986713,264.715581 219.986713,264.586402 L219.986713,264.586402 Z" id="Shape-Copy-5" fill-opacity="0.300000012" fill="#458DF1"></path>
            </g>
        </g>
    </g>
</svg>