<?xml version="1.0" encoding="UTF-8"?>
<svg width="300px" height="301px" viewBox="0 0 300 301" version="1.1" xmlns="http://www.w3.org/2000/svg" xmlns:xlink="http://www.w3.org/1999/xlink">
    <!-- Generator: Sketch 45.2 (43514) - http://www.bohemiancoding.com/sketch -->
    <title>04</title>
    <desc>Created with Sketch.</desc>
    <defs>
        <rect id="path-1" x="43" y="12" width="212" height="272" rx="4"></rect>
        <circle id="path-2" cx="237" cy="201" r="60"></circle>
    </defs>
    <g id="Page-1" stroke="none" stroke-width="1" fill="none" fill-rule="evenodd">
        <g id="Artboard-Copy-3" transform="translate(-800.000000, -2100.000000)">
            <g id="04" transform="translate(800.000000, 2100.000000)">
                <rect id="Rectangle-16-Copy-3" fill="#FFFFFF" x="0" y="1" width="300" height="300"></rect>
                <rect id="Rectangle-27" fill-opacity="0.1" fill="#458DF1" transform="translate(139.218819, 150.168487) rotate(-13.000000) translate(-139.218819, -150.168487) " x="36.7188192" y="19.7139415" width="205" height="260.909091" rx="2"></rect>
                <rect id="Rectangle-27" fill-opacity="0.1" fill="#458DF1" transform="translate(125.218819, 154.713942) rotate(-30.000000) translate(-125.218819, -154.713942) " x="42.7188192" y="49.7139415" width="165" height="210" rx="2"></rect>
                <g id="Rectangle-27">
                    <use fill="#FFFFFF" fill-rule="evenodd" xlink:href="#path-1"></use>
                    <rect stroke-opacity="0.2" stroke="#458DF1" stroke-width="4" x="45" y="14" width="208" height="268" rx="4"></rect>
                </g>
                <rect id="Rectangle-27-Copy-7" fill-opacity="0.100000001" fill="#458DF1" x="71" y="122" width="72" height="66" rx="2"></rect>
                <rect id="Rectangle-27-Copy-14" fill-opacity="0.100000001" fill="#458DF1" x="71" y="198" width="72" height="56" rx="2"></rect>
                <rect id="Rectangle-27-Copy-13" fill-opacity="0.100000001" fill="#458DF1" x="155" y="122" width="72" height="66" rx="2"></rect>
                <rect id="Rectangle-27-Copy-15" fill-opacity="0.100000001" fill="#458DF1" x="155" y="198" width="72" height="56" rx="2"></rect>
                <rect id="Rectangle-27-Copy-2" fill-opacity="0.100000001" fill="#458DF1" x="151" y="43" width="76" height="10" rx="2"></rect>
                <rect id="Rectangle-27-Copy-4" fill-opacity="0.100000001" fill="#458DF1" x="151" y="65" width="76" height="10" rx="2"></rect>
                <rect id="Rectangle-27-Copy-6" fill-opacity="0.100000001" fill="#458DF1" x="151" y="87" width="76" height="10" rx="2"></rect>
                <path d="M130.97902,93.0311615 C131.013157,91.6033995 130.526703,90.3286119 129.630604,89.1643059 C128.18831,87.2691218 126.242494,85.8753541 124.151595,84.6175638 C120.208758,82.2379604 115.890412,80.5212465 111.409914,79.1614731 C109.62625,78.6175638 107.364665,77.5212465 107.339062,75.8895184 C107.31346,74.4277621 107.535351,73.0934844 108.499725,71.9121813 C110.897858,68.9546743 112.442562,65.470255 113.406936,61.6543909 C114.260364,58.2549575 114.473721,54.8300283 113.825116,51.3711048 C113.17651,47.8696884 111.674477,44.9036827 109.011782,42.796034 C106.605114,40.8838527 103.993624,40 101.245586,40 C100.110527,40 98.9498646,40.1529745 97.7721339,40.4419263 C93.1977595,41.5722379 90.142487,44.6827195 88.6575222,49.5949008 C87.5907371,53.1303116 87.6078057,56.7507082 88.3332195,60.3541076 C89.2634561,64.9348442 91.0812578,67.5439093 93.974379,71.0283286 C94.0853246,71.1643059 94.2304074,71.3002833 94.2901474,71.4617564 C95.2971925,74.0538244 93.0953481,78.1161473 90.3985154,79.0424929 C88.3076167,79.7648725 86.2337865,80.5467422 84.2111619,81.4135977 C80.9852039,82.7903683 77.8787257,84.3541076 75.1648245,86.4787536 C73.4579683,87.8130312 71.8193865,89.2492918 71.2646582,91.305949 C70.9830269,92.3597733 71.0256984,93.490085 71.0000955,94.5949008 C70.9915613,95.9971671 71.5548238,97.2634561 72.7154859,98.2152974 C73.5433111,98.8951842 75.45499,100 75.45499,100 L84.9109729,99.9830029 L126.677742,99.9830029 C126.677742,99.9830029 131.269185,96.7110482 130.987554,93.6515581 C130.961951,93.4475921 130.97902,93.2351275 130.97902,93.0311615 L130.97902,93.0311615 Z" id="Shape-Copy-5" fill-opacity="0.300000012" fill="#458DF1"></path>
                <g id="Oval-11">
                    <use fill="#FFFFFF" fill-rule="evenodd" xlink:href="#path-2"></use>
                    <circle stroke="#458DF1" stroke-width="3" cx="237" cy="201" r="58.5"></circle>
                </g>
                <path d="M222.5,182.875 L222.5,172.996644 C222.5,172.446213 222.955521,172 223.498246,172 L250.501754,172 C251.05307,172 251.5,172.449856 251.5,172.996644 L251.5,182.875 L264.993301,182.875 C265.549286,182.875 266,183.326301 266,183.881074 L266,228.993926 C266,229.549565 265.54996,230 264.993301,230 L209.006699,230 C208.450714,230 208,229.548699 208,228.993926 L208,183.881074 C208,183.325435 208.45004,182.875 209.006699,182.875 L222.5,182.875 Z M235.1875,211.875 L228.937796,211.875 C228.385536,211.875 227.9375,212.318483 227.9375,212.865547 L227.9375,214.509453 C227.9375,215.055504 228.385348,215.5 228.937796,215.5 L235.1875,215.5 L235.1875,221.749704 C235.1875,222.301964 235.630983,222.75 236.178047,222.75 L237.821953,222.75 C238.368004,222.75 238.8125,222.302152 238.8125,221.749704 L238.8125,215.5 L245.062204,215.5 C245.614464,215.5 246.0625,215.056517 246.0625,214.509453 L246.0625,212.865547 C246.0625,212.319496 245.614652,211.875 245.062204,211.875 L238.8125,211.875 L238.8125,205.625296 C238.8125,205.073036 238.369017,204.625 237.821953,204.625 L236.178047,204.625 C235.631996,204.625 235.1875,205.072848 235.1875,205.625296 L235.1875,211.875 Z M208,193.75 L208,197.375 L266,197.375 L266,193.75 L208,193.75 Z M226.125,176.633081 L226.125,182.875 L247.875,182.875 L247.875,176.633081 C247.875,176.07852 247.431283,175.625 246.88393,175.625 L227.11607,175.625 C226.57928,175.625 226.125,176.076333 226.125,176.633081 Z" id="Combined-Shape" fill="#458DF1"></path>
            </g>
        </g>
    </g>
</svg>