<?xml version="1.0" encoding="UTF-8"?>
<svg width="300px" height="300px" viewBox="0 0 300 300" version="1.1" xmlns="http://www.w3.org/2000/svg" xmlns:xlink="http://www.w3.org/1999/xlink">
    <!-- Generator: Sketch 45.2 (43514) - http://www.bohemiancoding.com/sketch -->
    <title>05</title>
    <desc>Created with Sketch.</desc>
    <defs>
        <path d="M30,21 L124,21 L124,21 C130.627417,21 136,26.372583 136,33 L136,102 L98,139 L30,139 L30,139 C23.372583,139 18,133.627417 18,127 L18,33 L18,33 C18,26.372583 23.372583,21 30,21 Z" id="path-1"></path>
        <path d="M30,157 L124,157 L124,157 C130.627417,157 136,162.372583 136,169 L136,238 L98,275 L30,275 L30,275 C23.372583,275 18,269.627417 18,263 L18,169 L18,169 C18,162.372583 23.372583,157 30,157 Z" id="path-2"></path>
        <path d="M166,21 L260,21 L260,21 C266.627417,21 272,26.372583 272,33 L272,102 L234,139 L166,139 L166,139 C159.372583,139 154,133.627417 154,127 L154,33 L154,33 C154,26.372583 159.372583,21 166,21 Z" id="path-3"></path>
    </defs>
    <g id="Page-1" stroke="none" stroke-width="1" fill="none" fill-rule="evenodd">
        <g id="Artboard-Copy-3" transform="translate(-100.000000, -2520.000000)">
            <g id="05" transform="translate(100.000000, 2520.000000)">
                <rect id="Rectangle-16-Copy-4" fill="#FFFFFF" x="0" y="0" width="300" height="300"></rect>
                <g id="Rectangle-11">
                    <use fill="#FFFFFF" fill-rule="evenodd" xlink:href="#path-1"></use>
                    <path stroke-opacity="0.1" stroke="#458DF1" stroke-width="4" d="M97.1871501,137 L134,101.155909 L134,33 C134,27.4771525 129.522847,23 124,23 L30,23 C24.4771525,23 20,27.4771525 20,33 L20,127 C20,132.522847 24.4771525,137 30,137 L97.1871501,137 Z"></path>
                </g>
                <path d="M97,138 L97,104 L97,104 C97,101.790861 98.790861,100 101,100 L136,100" id="Rectangle-12" fill="#FFFFFF"></path>
                <path d="M97,138 L97,104 L97,104 C97,101.790861 98.790861,100 101,100 L136,100" id="Rectangle-12" fill-opacity="0.100000001" fill="#458DF1"></path>
                <circle id="Oval-7" stroke="#458DF1" stroke-width="3" cx="213" cy="216" r="57.5"></circle>
                <rect id="Rectangle-22" fill="#458DF1" x="190" y="218" width="20" height="20" rx="2"></rect>
                <rect id="Rectangle-22-Copy" fill="#458DF1" x="215" y="218" width="20" height="20" rx="2"></rect>
                <rect id="Rectangle-22-Copy-2" fill="#458DF1" transform="translate(226.142136, 202.142136) rotate(-315.000000) translate(-226.142136, -202.142136) " x="216.142136" y="192.142136" width="20" height="20" rx="2"></rect>
                <rect id="Rectangle-22-Copy-3" fill="#458DF1" x="190" y="194" width="20" height="20" rx="2"></rect>
                <rect id="Rectangle-28" fill-opacity="0.300000012" fill="#458DF1" x="44" y="55" width="66" height="12" rx="2"></rect>
                <rect id="Rectangle-28-Copy" fill-opacity="0.300000012" fill="#458DF1" x="44" y="85" width="53" height="12" rx="2"></rect>
                <g id="Rectangle-11">
                    <use fill="#FFFFFF" fill-rule="evenodd" xlink:href="#path-2"></use>
                    <path stroke-opacity="0.1" stroke="#458DF1" stroke-width="4" d="M97.1871501,273 L134,237.155909 L134,169 C134,163.477153 129.522847,159 124,159 L30,159 C24.4771525,159 20,163.477153 20,169 L20,263 C20,268.522847 24.4771525,273 30,273 L97.1871501,273 Z"></path>
                </g>
                <path d="M97,274 L97,240 L97,240 C97,237.790861 98.790861,236 101,236 L136,236" id="Rectangle-12" fill="#FFFFFF"></path>
                <path d="M97,274 L97,240 L97,240 C97,237.790861 98.790861,236 101,236 L136,236" id="Rectangle-12" fill-opacity="0.100000001" fill="#458DF1"></path>
                <rect id="Rectangle-28" fill-opacity="0.300000012" fill="#458DF1" x="44" y="191" width="66" height="12" rx="2"></rect>
                <rect id="Rectangle-28-Copy" fill-opacity="0.300000012" fill="#458DF1" x="44" y="221" width="53" height="12" rx="2"></rect>
                <g id="Rectangle-11">
                    <use fill="#FFFFFF" fill-rule="evenodd" xlink:href="#path-3"></use>
                    <path stroke-opacity="0.1" stroke="#458DF1" stroke-width="4" d="M233.18715,137 L270,101.155909 L270,33 C270,27.4771525 265.522847,23 260,23 L166,23 C160.477153,23 156,27.4771525 156,33 L156,127 C156,132.522847 160.477153,137 166,137 L233.18715,137 Z"></path>
                </g>
                <path d="M233,138 L233,104 L233,104 C233,101.790861 234.790861,100 237,100 L272,100" id="Rectangle-12" fill="#FFFFFF"></path>
                <path d="M233,138 L233,104 L233,104 C233,101.790861 234.790861,100 237,100 L272,100" id="Rectangle-12" fill-opacity="0.100000001" fill="#458DF1"></path>
                <rect id="Rectangle-28" fill-opacity="0.300000012" fill="#458DF1" x="180" y="55" width="66" height="12" rx="2"></rect>
                <rect id="Rectangle-28-Copy" fill-opacity="0.300000012" fill="#458DF1" x="180" y="85" width="53" height="12" rx="2"></rect>
            </g>
        </g>
    </g>
</svg>