<?xml version="1.0" encoding="UTF-8"?>
<svg width="14px" height="16px" viewBox="0 0 14 16" version="1.1" xmlns="http://www.w3.org/2000/svg" xmlns:xlink="http://www.w3.org/1999/xlink">
    <!-- Generator: Sketch 39.1 (31720) - http://www.bohemiancoding.com/sketch -->
    <title>Group 7</title>
    <desc>Created with Sketch.</desc>
    <defs></defs>
    <g id="Page-1" stroke="none" stroke-width="1" fill="none" fill-rule="evenodd" opacity="0.699999988">
        <g id="首页" transform="translate(-25.000000, -165.000000)">
            <g id="Group-7" transform="translate(24.000000, 165.000000)">
                <rect id="Rectangle-4" x="0" y="0" width="16" height="16"></rect>
                <path d="M12,2 L12,1.0093689 C12,0.443353176 11.5536144,0 11.0029699,0 L4.99703014,0 C4.45303631,0 4,0.451909848 4,1.0093689 L4,2 L2.00684547,2 C1.44994876,2 1,2.45078007 1,3.00684547 L1,14.9931545 C1,15.5500512 1.45078007,16 2.00684547,16 L13.9931545,16 C14.5500512,16 15,15.5492199 15,14.9931545 L15,3.00684547 C15,2.44994876 14.5492199,2 13.9931545,2 L12,2 Z M4,5.5 C4,5.22385763 4.23079681,5 4.50043583,5 L11.4995642,5 C11.7759472,5 12,5.23193359 12,5.5 C12,5.77614237 11.7692032,6 11.4995642,6 L4.50043583,6 C4.22405275,6 4,5.76806641 4,5.5 Z M4,9 C4,8.72385763 4.23079681,8.5 4.50043583,8.5 L11.4995642,8.5 C11.7759472,8.5 12,8.73193359 12,9 C12,9.27614237 11.7692032,9.5 11.4995642,9.5 L4.50043583,9.5 C4.22405275,9.5 4,9.26806641 4,9 Z M4,12.5 C4,12.2238576 4.23079681,12 4.50043583,12 L11.4995642,12 C11.7759472,12 12,12.2319336 12,12.5 C12,12.7761424 11.7692032,13 11.4995642,13 L4.50043583,13 C4.22405275,13 4,12.7680664 4,12.5 Z" id="Combined-Shape" fill="#FFFFFF"></path>
            </g>
        </g>
    </g>
</svg>